<?xml version="1.0" encoding="utf-8"?>
<!-- Generator: Adobe Illustrator 27.1.1, SVG Export Plug-In . SVG Version: 6.00 Build 0)  -->
<svg version="1.1" id="Laag_1" xmlns="http://www.w3.org/2000/svg" xmlns:xlink="http://www.w3.org/1999/xlink" x="0px" y="0px"
	 viewBox="0 0 1000 1000" style="enable-background:new 0 0 1000 1000;" xml:space="preserve">
<style type="text/css">
	.st0{fill:#FFFFFF;}
	.st1{fill:#E41B1B;}
	.st2{fill:#E30D13;}
</style>
<g>
	<g>
		<path class="st0" d="M99.29,612.78c33.01-81.58,89.6-162.22,165.19-235.92L84.1,392.63l17.91-129.01l402.54-35.22l-14.9,107.29
			l-6.05,5.39c-94.15,83.81-162.92,178.91-198.88,275.02l-4.86,13L85.82,646.08L99.29,612.78z"/>
	</g>
	<g>
		<path class="st1" d="M84.47,647.07l14.01-34.62c32.52-80.36,89.08-161.41,163.64-234.52L83.09,393.6l18.16-130.79l404.33-35.37
			l-15.09,108.69l-6.29,5.6c-94.04,83.71-162.73,178.7-198.64,274.68l-5.06,13.52L84.47,647.07z M100.1,613.11l-12.94,31.98
			l192.09-16.8l4.67-12.48c36.01-96.25,104.86-191.47,199.12-275.37l5.81-5.17l14.7-105.89l-400.76,35.06L85.12,391.67l181.72-15.9
			l-1.75,1.71C189.83,450.86,132.78,532.34,100.1,613.11L100.1,613.11z"/>
	</g>
</g>
<g>
	<g>
		<path class="st0" d="M528.13,575.26c33.01-81.58,89.6-162.22,165.19-235.92l-193.7,16.95l18.97-129.11l414.8-36.29l-14.9,107.29
			l-6.05,5.39c-94.15,83.81-162.92,178.91-198.88,275.02l-4.86,13l-194.05,16.97L528.13,575.26z"/>
	</g>
	<g>
		<path class="st1" d="M513.32,609.55l14.01-34.62c32.52-80.37,89.09-161.42,163.64-234.51L498.6,357.25l19.23-130.88l0.69-0.06
			l415.89-36.39l-15.09,108.69l-6.29,5.6c-94.04,83.72-162.73,178.7-198.64,274.68l-5.06,13.52L513.32,609.55z M528.13,575.26
			l0.81,0.33L516,607.57l192.09-16.8l4.67-12.48c36.01-96.24,104.86-191.47,199.12-275.37l5.81-5.17l14.7-105.89l-413.02,36.14
			l-18.71,127.33l195.04-17.06l-1.75,1.71c-75.25,73.38-132.3,154.85-164.99,235.62L528.13,575.26z"/>
	</g>
</g>
<g>
	<path class="st2" d="M327.53,349.25l-217.84,19.06l11.7-84.3l357.57-31.28l-9.98,71.92C368.75,413.87,300.34,511.6,264.13,608.39
		l-144.44,12.64C157.19,528.36,227.42,434.23,327.53,349.25z"/>
</g>
<g>
	<path class="st0" d="M151.12,656.41l27.34-2.15l-6.28,33.36l11.09-0.87l6.28-33.36l27.34-2.15l-18.39,97.72l-27.34,2.15l7.04-37.43
		l-11.09,0.87l-7.04,37.43l-27.34,2.15L151.12,656.41z"/>
	<path class="st0" d="M250.67,732.3l-14.57,1.15l-4.07,12.87l-23.09,1.82l33.2-98.89l35.47-2.79l-1.86,96.42l-25.8,2.03
		L250.67,732.3z M242.61,713.01l9.16-0.72l0.66-12.99c0.54-9.62,1.27-17.57,1.84-23.95c-1.85,6.49-4.27,14.57-7.38,24.39
		L242.61,713.01z"/>
	<path class="st0" d="M323.58,726.57l-14.57,1.15l-4.07,12.87l-23.09,1.82l33.22-98.89l35.47-2.79l-1.88,96.42l-25.8,2.03
		L323.58,726.57z M315.52,707.27l9.16-0.72l0.67-12.99c0.54-9.62,1.27-17.57,1.84-23.96c-1.86,6.49-4.27,14.57-7.39,24.39
		L315.52,707.27z"/>
	<path class="st0" d="M385.53,734.25l-26.44,2.08l18.39-97.72l42.3-3.33c12.77-1.01,19.27,4.95,16.7,18.61l-1.09,5.78
		c-1.85,9.85-6.71,16.05-13.85,19.59c6.11,1.98,9.17,6.66,7.41,15.98l-5.17,27.45c-0.72,3.81-0.54,6.25,0.04,7.89l-0.12,0.66
		l-26.18,2.06c-0.94-1.09-1.22-3.66-0.58-7.07l4.55-24.17c0.94-4.99,0.17-7-3.82-6.69l-4.9,0.39L385.53,734.25z M396.58,675.54
		l4.64-0.37c3.61-0.28,5.79-2.4,6.56-6.47l1.53-8.14c0.81-4.33-0.13-6.07-4.13-5.76l-4.77,0.37L396.58,675.54z"/>
	<path class="st0" d="M481.78,630.41l-13.82,73.42l20.38-1.61l-4.57,24.3l-47.59,3.74l18.39-97.72L481.78,630.41z"/>
	<path class="st0" d="M564.85,623.87l-4.28,22.72l-24.5,1.93l-2.45,13l21.02-1.65l-4.35,23.11l-21.02,1.65l-2.99,15.89l25.15-1.98
		l-4.33,22.99l-51.2,4.03l18.39-97.72L564.85,623.87z"/>
	<path class="st0" d="M603.33,717.12l-9.67,0.76l-0.91-34.99c-0.33-11.75-0.17-20.69-0.1-27.16c-1.05,6.94-2.45,16.37-4.79,28.84
		l-6.45,34.28l-21.54,1.69l18.39-97.72l30.57-2.4l-0.25,31.72c-0.01,8.15-0.19,13.86-0.5,17.51c1.08-3.71,3.07-9.56,6.17-17.95
		l12.12-32.66l29.92-2.35l-18.39,97.72l-22.05,1.74l6.45-34.28c2.35-12.48,4.46-21.7,6.08-28.94c-2.37,6.53-5.75,15.72-10.61,28.01
		L603.33,717.12z"/>
</g>
<g>
	<path class="st0" d="M134.43,794.56l-9.72,0.76l5.93-31.51l26.87-2.11l-1.35,7.2L139,770.25l-0.93,4.95l15.2-1.19l-1.35,7.2
		l-15.2,1.19L134.43,794.56z"/>
	<path class="st0" d="M163.9,790.86c-2.72-1.17-4.69-2.94-5.9-5.3c-1.21-2.36-1.52-5.13-0.92-8.31c0.6-3.18,1.97-6.08,4.12-8.71
		c2.15-2.62,4.85-4.75,8.1-6.4c3.26-1.64,6.78-2.62,10.58-2.92c3.83-0.3,7.11,0.14,9.83,1.31c2.72,1.18,4.69,2.94,5.88,5.3
		c1.19,2.36,1.49,5.13,0.9,8.31c-0.6,3.18-1.96,6.08-4.1,8.7c-2.13,2.62-4.83,4.75-8.08,6.4c-3.25,1.64-6.8,2.62-10.63,2.92
		C169.89,792.47,166.62,792.04,163.9,790.86z M179.96,782.68c1.51-0.8,2.8-1.87,3.87-3.21c1.06-1.34,1.75-2.84,2.06-4.49
		c0.31-1.65,0.17-3.08-0.41-4.29c-0.58-1.21-1.5-2.11-2.76-2.69c-1.25-0.58-2.71-0.81-4.36-0.68c-1.65,0.13-3.23,0.59-4.75,1.39
		s-2.8,1.87-3.87,3.21c-1.07,1.34-1.75,2.84-2.06,4.49c-0.31,1.65-0.17,3.08,0.41,4.29c0.58,1.21,1.5,2.11,2.76,2.69
		c1.25,0.58,2.71,0.81,4.36,0.68C176.86,783.95,178.44,783.48,179.96,782.68z"/>
	<path class="st0" d="M206.25,787.53c-2.73-1.18-4.69-2.94-5.9-5.3c-1.21-2.36-1.52-5.13-0.92-8.31c0.6-3.18,1.97-6.08,4.12-8.7
		c2.15-2.62,4.85-4.76,8.1-6.4c3.25-1.65,6.78-2.62,10.58-2.92c3.83-0.3,7.11,0.14,9.83,1.31c2.72,1.18,4.68,2.94,5.88,5.3
		c1.19,2.36,1.49,5.13,0.9,8.31c-0.6,3.18-1.96,6.08-4.1,8.7c-2.13,2.62-4.83,4.76-8.08,6.4c-3.25,1.64-6.8,2.62-10.63,2.92
		C212.23,789.15,208.97,788.71,206.25,787.53z M222.31,779.35c1.51-0.8,2.8-1.87,3.87-3.21c1.06-1.34,1.75-2.83,2.06-4.49
		c0.31-1.65,0.17-3.08-0.41-4.29c-0.58-1.21-1.5-2.11-2.76-2.69s-2.71-0.81-4.36-0.68c-1.65,0.13-3.23,0.59-4.75,1.39
		c-1.51,0.8-2.8,1.87-3.87,3.21c-1.07,1.34-1.75,2.84-2.06,4.49c-0.31,1.65-0.17,3.08,0.41,4.29c0.59,1.21,1.5,2.11,2.76,2.69
		c1.25,0.58,2.7,0.81,4.36,0.68C219.21,780.62,220.79,780.15,222.31,779.35z"/>
	<path class="st0" d="M258.3,784.81l-9.72,0.77l4.57-24.3l-11.41,0.9l1.35-7.2l32.49-2.55l-1.35,7.2l-11.36,0.89L258.3,784.81z"/>
	<path class="st0" d="M303.95,767.92c0.93,1.2,1.23,2.7,0.89,4.5c-0.35,1.86-1.25,3.51-2.69,4.93c-1.44,1.43-3.22,2.57-5.34,3.41
		c-2.12,0.85-4.37,1.36-6.76,1.55l-17.94,1.41l5.93-31.5l17.94-1.41c2.15-0.17,4.06,0.04,5.71,0.64c1.66,0.59,2.9,1.49,3.71,2.7
		c0.82,1.21,1.08,2.61,0.78,4.2c-0.3,1.59-1.01,2.98-2.14,4.18c-1.12,1.2-2.44,2.16-3.94,2.9
		C301.73,765.89,303.01,766.72,303.95,767.92z M290.52,775.18c1.12-0.09,2.07-0.42,2.87-1c0.79-0.58,1.27-1.32,1.44-2.22
		c0.31-1.65-0.79-2.38-3.29-2.18l-7.34,0.58l-1.02,5.4L290.52,775.18z M286.4,758.66l-1.02,5.4l7.34-0.58
		c1.06-0.08,1.96-0.41,2.71-0.99s1.2-1.31,1.37-2.22c0.31-1.65-0.71-2.38-3.07-2.2L286.4,758.66z"/>
	<path class="st0" d="M344.21,778.06l-10.39,0.82l-1.23-4.83l-14.58,1.15l-3.11,5.17l-10.39,0.82l19.98-32.61l11.58-0.91
		L344.21,778.06z M328.43,758.01l-5.88,9.73l8.22-0.64L328.43,758.01z"/>
	<path class="st0" d="M372.79,775.81l-26.08,2.05l5.93-31.5l9.72-0.77l-4.57,24.3l16.35-1.28L372.79,775.81z"/>
	<path class="st0" d="M402.23,773.49l-26.08,2.05l5.93-31.51l9.72-0.77l-4.57,24.31l16.35-1.28L402.23,773.49z"/>
	<path class="st0" d="M448.07,769.89l-26.08,2.05l5.93-31.5l9.72-0.76l-4.57,24.3l16.35-1.28L448.07,769.89z"/>
	<path class="st0" d="M478.29,767.51l-26.83,2.11l5.93-31.5l26.83-2.11l-1.35,7.2l-17.1,1.34l-0.93,4.95l15.16-1.19l-1.35,7.2
		l-15.16,1.19l-0.93,4.95l17.1-1.34L478.29,767.51z"/>
	<path class="st0" d="M520.49,764.19l-10.38,0.82l-1.23-4.83l-14.59,1.15l-3.1,5.17l-10.39,0.82l19.98-32.61l11.58-0.91
		L520.49,764.19z M504.71,744.15l-5.88,9.73l8.22-0.64L504.71,744.15z"/>
	<path class="st0" d="M539.87,744.05l20.9-1.64l-0.67,3.55c-0.62,3.27-2.01,6.2-4.18,8.78c-2.17,2.58-4.76,4.61-7.77,6.11
		c-3.01,1.49-6.06,2.36-9.15,2.61c-3.54,0.28-6.65-0.15-9.34-1.28c-2.69-1.13-4.67-2.89-5.96-5.25c-1.28-2.37-1.61-5.19-1-8.46
		c0.61-3.24,2.06-6.18,4.34-8.83c2.29-2.65,5.07-4.77,8.36-6.36c3.29-1.59,6.7-2.52,10.24-2.8c6.78-0.53,11.83,1.07,15.17,4.8
		l-9.11,5.37c-0.69-0.8-1.7-1.38-3.03-1.73c-1.33-0.35-2.84-0.46-4.55-0.33c-1.59,0.12-3.15,0.56-4.69,1.32
		c-1.54,0.76-2.86,1.8-3.96,3.13c-1.11,1.33-1.83,2.86-2.15,4.6c-0.33,1.77-0.21,3.25,0.36,4.45c0.57,1.2,1.47,2.07,2.69,2.63
		c1.22,0.56,2.6,0.77,4.16,0.65c1.36-0.11,2.68-0.45,3.96-1.02s2.39-1.29,3.32-2.15c0.93-0.86,1.6-1.76,2.01-2.71l-11.14,0.88
		L539.87,744.05z"/>
	<path class="st0" d="M566.57,729.53l9.72-0.77l-3.36,17.87c-0.37,1.98,0.01,3.47,1.14,4.46c1.13,0.99,2.78,1.4,4.93,1.23
		c2.18-0.17,4.04-0.86,5.59-2.06c1.55-1.2,2.51-2.79,2.88-4.77l3.36-17.87l9.73-0.77l-3.36,17.87c-0.52,2.76-1.77,5.3-3.74,7.61
		c-1.97,2.31-4.38,4.18-7.22,5.6c-2.84,1.42-5.75,2.25-8.76,2.48c-3.01,0.24-5.69-0.15-8.05-1.16c-2.37-1.01-4.12-2.55-5.27-4.62
		c-1.15-2.07-1.47-4.48-0.95-7.24L566.57,729.53z"/>
	<path class="st0" d="M625.07,755.97l-26.83,2.11l5.93-31.5l26.83-2.11l-1.35,7.2l-17.1,1.35l-0.93,4.95l15.16-1.19l-1.35,7.2
		l-15.16,1.19l-0.93,4.95l17.1-1.34L625.07,755.97z"/>
</g>
<g>
	<path class="st2" d="M756.37,311.73l-230.93,20.2l12.4-84.36l369.97-32.37l-9.98,71.92C797.6,376.35,729.18,474.08,692.97,570.87
		l-144.44,12.64C586.03,490.84,656.27,396.71,756.37,311.73z"/>
</g>
<g>
	<g>
		<g>
			<path class="st2" d="M382.05,607.38c-0.51-0.84-51.51-84.06-93.26-135.51l-21.74-26.79l115.34-10.09l6.12,8.01
				c10.97,14.36,23.08,31.84,36,51.98c18.97-36.86,48.15-86,80.72-113.74l4.46-3.8l131.51-10.26l-2.81,1.86
				c-0.72,0.48-72.54,48.8-126.3,149.44c-23.45,40.96-39.07,77.51-40.77,81.54l-4.37,10.14l-78.97,6.91L382.05,607.38z"/>
		</g>
		<g>
			<path class="st0" d="M637.9,368.3c0,0-72.09,47.73-126.59,149.76c-24.71,43.18-40.68,81.32-40.84,81.7l-4.12,9.57l-77.92,6.82
				l-5.64-9.23c-0.51-0.83-51.4-83.93-93.33-135.6l-20.7-25.52l113.22-9.91l5.83,7.63c13.39,17.53,26.64,37.35,36.77,53.2
				c17.81-34.78,47.86-86.43,81.2-114.83l4.24-3.61L637.9,368.3 M644.48,366.04l-6.72,0.52l-127.87,9.97l-0.56,0.04l-0.43,0.37
				l-4.24,3.61c-18.01,15.34-46.46,47.32-80.24,112.67c-12.62-19.62-24.46-36.69-35.22-50.76l-5.83-7.63l-0.58-0.76l-0.96,0.08
				l-113.22,9.91l-3.27,0.29l2.07,2.55l20.7,25.52c41.7,51.4,92.68,134.58,93.19,135.41l5.64,9.23l0.56,0.92l1.08-0.09l77.92-6.82
				l1.04-0.09l0.41-0.96l4.12-9.57l0.04-0.1c1.7-4.03,17.31-40.53,40.71-81.42c53.69-100.53,125.32-148.7,126.04-149.17
				L644.48,366.04L644.48,366.04z"/>
		</g>
	</g>
	<g>
		<path class="st0" d="M515.36,395.18c-41.81,35.61-77.16,114.63-89.3,137.05c-6.97-11.66-29.28-48.21-52.12-78.1l-70.93,6.21
			c43.17,53.21,94.67,137.5,94.67,137.5l24.98-2.19l6.79-0.59l24.98-2.19c0,0,66.03-153.37,133.72-204.05
			C564.45,390.88,547.74,392.34,515.36,395.18z"/>
	</g>
</g>
</svg>
