<?xml version="1.0" standalone="no"?>
<!DOCTYPE svg PUBLIC "-//W3C//DTD SVG 1.1//EN" "http://www.w3.org/Graphics/SVG/1.1/DTD/svg11.dtd" >
<svg xmlns="http://www.w3.org/2000/svg" xmlns:xlink="http://www.w3.org/1999/xlink" version="1.1">
<metadata>
Created by FontForge 20170731 at Tue Sep 21 08:59:24 2021
 By Aleksey,,,
Copyright (c) 2021 by Erik Sachse. All rights reserved.
</metadata>
<defs>
<font id="GorillasSansDisplay-Bold" horiz-adv-x="0" >
  <font-face 
    font-family="Gorillas Sans Display Light"
    font-weight="700"
    font-stretch="expanded"
    units-per-em="1000"
    panose-1="0 0 8 5 0 0 0 0 0 0"
    ascent="800"
    descent="-200"
    cap-height="700"
    bbox="-572 -340 1351 1157"
    underline-thickness="50"
    underline-position="-150"
    unicode-range="U+0020-F8FF"
  />
<missing-glyph horiz-adv-x="350" 
d="M65 700h222v-700h-222v700zM233 630v23h-115v-23h45v-26h-46v-23h116v23h-46v26h46zM187 514v49h-70v-73h116v24h-46zM140 539h23v-25h-23v25zM233 448v23h-116v-23h46v-26h-46v-23h70v49h46zM233 359v70h-23v-46h-93v-24h116zM233 265v79h-70v-39h24v16h23v-33h-70v56
h-23v-79h116zM233 144v79h-116v-79h116zM140 200h70v-33h-70v33zM233 104v23h-116v-23h49l-49 -33v-23h116v23h-71l49 33h22z" />
    <glyph glyph-name=".notdef" horiz-adv-x="350" 
d="M65 700h222v-700h-222v700zM233 630v23h-115v-23h45v-26h-46v-23h116v23h-46v26h46zM187 514v49h-70v-73h116v24h-46zM140 539h23v-25h-23v25zM233 448v23h-116v-23h46v-26h-46v-23h70v49h46zM233 359v70h-23v-46h-93v-24h116zM233 265v79h-70v-39h24v16h23v-33h-70v56
h-23v-79h116zM233 144v79h-116v-79h116zM140 200h70v-33h-70v33zM233 104v23h-116v-23h49l-49 -33v-23h116v23h-71l49 33h22z" />
    <glyph glyph-name=".null" 
 />
    <glyph glyph-name="nonmarkingreturn" horiz-adv-x="333" 
 />
    <glyph glyph-name="space" unicode=" " horiz-adv-x="340" 
 />
    <glyph glyph-name="exclam" unicode="!" horiz-adv-x="297" 
d="M217 206h-138l-16 494h171zM248 0h-195v130h195v-130z" />
    <glyph glyph-name="quotedbl" unicode="&#x22;" horiz-adv-x="450" 
d="M70 427v273h125v-273h-125zM255 427v273h125v-273h-125z" />
    <glyph glyph-name="numbersign" unicode="#" horiz-adv-x="690" 
d="M660 520v-91h-143l-34 -160h152v-91h-172l-38 -178h-103l38 178h-117l-38 -178h-103l38 178h-110v91h130l34 160h-139v91h158l39 180h103l-39 -180h117l39 180h103l-39 -180h124zM263 269h117l34 160h-117z" />
    <glyph glyph-name="dollar" unicode="$" horiz-adv-x="763" 
d="M665 76.5q-66 -56.5 -169 -79.5l-11 -95h-102l10 81h-20q-32 0 -48 1l-10 -82h-102l11 94q-99 17 -185 53l48 154q76 -30 150 -46.5t136 -16.5q71 0 113 19t42 52q0 26 -21 40t-63 21l-176 26q-100 15 -161.5 67t-61.5 131q0 75 66.5 128.5t172.5 76.5l11 99h102l-10 -86
q11 1 32 1q24 0 36 -1l10 86h102l-11 -96q100 -15 166 -42l-50 -154q-138 51 -253 51q-165 0 -165 -63q0 -25 23.5 -41.5t64.5 -22.5l161 -25q108 -15 168 -64.5t60 -131.5q0 -78 -66 -134.5z" />
    <glyph glyph-name="percent" unicode="%" horiz-adv-x="855" 
d="M129.5 429q-44.5 21 -70.5 56.5t-26 76.5q0 42 26 77.5t70.5 56t96.5 20.5q53 0 98 -20.5t71 -56t26 -77.5q0 -41 -26 -76.5t-71 -56.5t-98 -21q-52 0 -96.5 21zM823 700l-642 -700h-148l642 700h148zM285.5 515q24.5 19 24.5 47t-24.5 47.5t-59.5 19.5
q-34 0 -58.5 -19.5t-24.5 -47.5t24.5 -47t58.5 -19q35 0 59.5 19zM531.5 5q-44.5 21 -71 56.5t-26.5 76.5q0 42 26.5 77.5t71 56t96.5 20.5q53 0 97.5 -20.5t71 -56t26.5 -77.5q0 -41 -26.5 -76.5t-71 -56.5t-97.5 -21q-52 0 -96.5 21zM687.5 91q24.5 19 24.5 47t-24.5 47.5
t-59.5 19.5q-34 0 -58.5 -19.5t-24.5 -47.5t24 -47t59 -19t59.5 19z" />
    <glyph glyph-name="ampersand" unicode="&#x26;" horiz-adv-x="936" 
d="M912 0h-237l-75 57q-122 -73 -262 -73q-90 0 -160.5 25.5t-109.5 71t-39 103.5q0 61 44 112.5t118 79.5q-54 56 -54 117q0 64 47.5 115t123 79.5t155.5 28.5q69 0 143 -15t130 -38l-49 -154q-72 26 -125 38.5t-99 12.5q-58 0 -99 -20.5t-41 -52.5q0 -31 42 -64l239 -185
q59 56 120 141l124 -77q-61 -89 -129 -153zM480 149l-209 160q-35 -13 -55.5 -39t-20.5 -55q0 -27 19.5 -50t54 -36t77.5 -13q68 0 134 33z" />
    <glyph glyph-name="quotesingle" unicode="'" horiz-adv-x="265" 
d="M70 427v273h125v-273h-125z" />
    <glyph glyph-name="parenleft" unicode="(" horiz-adv-x="342" 
d="M315 800q-45 -108 -68.5 -228t-23.5 -222t23.5 -222t68.5 -228h-184q-45 104 -65 215t-20 235t20 235t65 215h184z" />
    <glyph glyph-name="parenright" unicode=")" horiz-adv-x="344" 
d="M227 800q85 -203 85 -450t-85 -450h-185q45 106 67.5 226t22.5 224t-22.5 224t-67.5 226h185z" />
    <glyph glyph-name="asterisk" unicode="*" horiz-adv-x="466" 
d="M307 548h109v-61h-109l77 -77l-44 -44l-76 77v-108h-62v108l-76 -77l-44 44l77 77h-109v61h109l-77 76l44 45l76 -77v108h62v-108l76 77l44 -45z" />
    <glyph glyph-name="plus" unicode="+" horiz-adv-x="491" 
d="M315 405h143v-140h-143v-146h-140v146h-142v140h142v147h140v-147z" />
    <glyph glyph-name="comma" unicode="," horiz-adv-x="352" 
d="M86 0v130h195v-130l-117 -140h-128l115 140h-65z" />
    <glyph glyph-name="hyphen" unicode="-" horiz-adv-x="420" 
d="M40 265v140h340v-140h-340z" />
    <glyph glyph-name="period" unicode="." horiz-adv-x="326" 
d="M262 0h-195v130h195v-130z" />
    <glyph glyph-name="slash" unicode="/" horiz-adv-x="477" 
d="M34 -100l261 900h149l-262 -900h-148z" />
    <glyph glyph-name="zero" unicode="0" horiz-adv-x="750" 
d="M187.5 28.5q-77.5 44.5 -118 126.5t-40.5 195t40.5 195t118 126.5t187.5 44.5t188.5 -44.5t119 -126.5t40.5 -195t-40.5 -195t-119 -126.5t-188.5 -44.5t-187.5 44.5zM481 197q36 56 36 153q0 98 -36 154t-106 56q-69 0 -105 -56.5t-36 -153.5t36 -153t105 -56
q70 0 106 56z" />
    <glyph glyph-name="one" unicode="1" horiz-adv-x="750" 
d="M729 0h-701v140h269v420h-261l25 140h426v-560h242v-140z" />
    <glyph glyph-name="two" unicode="2" horiz-adv-x="750" 
d="M71 0v398h264q70 0 107.5 24.5t37.5 59.5q0 34 -42.5 56t-110.5 22q-115 0 -250 -51l-48 153q67 25 144.5 39.5t153.5 14.5q109 0 195 -25.5t135 -75t49 -118.5t-42 -123.5t-119 -85t-179 -30.5h-105v-118h448v-140h-638z" />
    <glyph glyph-name="three" unicode="3" horiz-adv-x="748" 
d="M479 402q121 -15 184.5 -58.5t63.5 -124.5q0 -79 -54.5 -132t-137 -78t-167.5 -25q-92 0 -184 26.5t-159 72.5l90 136q59 -40 120.5 -59t132.5 -19q67 0 110.5 21t43.5 57t-54.5 54t-151.5 18h-92v116l230 153h-404v140h661v-140z" />
    <glyph glyph-name="four" unicode="4" horiz-adv-x="750" 
d="M399 163h-354v537h190v-397h164v397h190v-397h130v-140h-130v-163h-190v163z" />
    <glyph glyph-name="five" unicode="5" horiz-adv-x="750" 
d="M114 227q58 -42 122 -64t120 -22q75 0 126.5 27t51.5 74t-44.5 71.5t-120.5 24.5h-316v362h666v-140h-479v-98h171q91 0 160.5 -28t108 -78t38.5 -114q0 -71 -46.5 -130t-129.5 -93.5t-186 -34.5q-88 0 -175.5 27t-160.5 77z" />
    <glyph glyph-name="six" unicode="6" horiz-adv-x="750" 
d="M410 456q91 -4 160.5 -33.5t108.5 -81t39 -120.5q0 -72 -42 -125.5t-120 -82.5t-182 -29q-103 0 -180.5 28t-120 78t-42.5 114q0 59 28.5 111.5t96.5 123.5l258 261h234zM490 153.5q45 28.5 45 73.5q0 44 -45.5 73t-115.5 29q-71 0 -117 -29t-46 -73q0 -45 46 -73.5
t117 -28.5t116 28.5z" />
    <glyph glyph-name="seven" unicode="7" horiz-adv-x="750" 
d="M22 560v140h704v-96l-491 -604h-214l451 560h-450z" />
    <glyph glyph-name="eight" unicode="8" horiz-adv-x="750" 
d="M199 11q-77 27 -120 74.5t-43 108.5q0 57 38.5 100t97.5 65q-43 22 -72.5 63t-29.5 93q0 59 39 104.5t108 71t157 25.5t157 -25.5t108 -71t39 -104.5q0 -52 -29.5 -93t-72.5 -63q58 -22 96.5 -65t37.5 -100q1 -61 -41.5 -108.5t-119.5 -74.5t-175 -27t-175 27z
M469.5 432.5q37.5 25.5 37.5 64.5q0 38 -37.5 62t-95.5 24q-59 0 -96 -24t-37 -62q0 -39 37 -64.5t96 -25.5q58 0 95.5 25.5zM489 151.5q45 26.5 45 68.5q0 41 -45 67.5t-115 26.5t-115.5 -26.5t-45.5 -67.5q0 -42 45 -68.5t116 -26.5q70 0 115 26.5z" />
    <glyph glyph-name="nine" unicode="9" horiz-adv-x="750" 
d="M555.5 688q77.5 -28 120 -78t42.5 -114q0 -59 -28.5 -111.5t-96.5 -122.5l-258 -262h-234l237 244q-90 5 -159.5 34t-108.5 80.5t-39 120.5q0 72 42 125.5t120 82.5t182 29q103 0 180.5 -28zM492.5 400q45.5 29 45.5 73q0 45 -45.5 73.5t-116.5 28.5t-116.5 -28.5
t-45.5 -73.5q0 -44 46 -73t116 -29q71 0 116.5 29z" />
    <glyph glyph-name="colon" unicode=":" horiz-adv-x="275" 
d="M238 371h-195v130h195v-130zM238 0h-195v130h195v-130z" />
    <glyph glyph-name="semicolon" unicode=";" horiz-adv-x="292" 
d="M254 371h-195v130h195v-130zM59 0v130h195v-130l-117 -140h-128l115 140h-65z" />
    <glyph glyph-name="less" unicode="&#x3c;" horiz-adv-x="472" 
d="M47 375l380 189v-142l-271 -132l271 -133v-142l-380 189v171z" />
    <glyph glyph-name="equal" unicode="=" horiz-adv-x="624" 
d="M44 338v110h536v-110h-536zM44 131v110h536v-110h-536z" />
    <glyph glyph-name="greater" unicode="&#x3e;" horiz-adv-x="472" 
d="M36 422v142l380 -189v-171l-380 -189v142l271 133z" />
    <glyph glyph-name="question" unicode="?" horiz-adv-x="743" 
d="M530 687q86 -29 135 -82.5t49 -122.5q0 -92 -77 -152t-212 -70v-62h-190v200h106q49 0 83 12.5t50.5 31.5t16.5 40q0 34 -43.5 56t-111.5 22q-124 0 -255 -50l-49 152q54 23 138 38.5t166 15.5q108 0 194 -29zM430 0h-195v130h195v-130z" />
    <glyph glyph-name="at" unicode="@" horiz-adv-x="1245" 
d="M931.5 669q133.5 -47 208.5 -130.5t75 -189.5q0 -60 -30.5 -103.5t-83.5 -66t-119 -22.5q-81 0 -135.5 17.5t-85.5 45.5q-33 -29 -83.5 -45t-111.5 -16q-83 0 -138 27t-59 75q-2 50 62 78t177 28h117v10q0 53 -103 53q-88 0 -170 -36l-61 74q46 22 105.5 35t125.5 13
q100 0 178.5 -34t77.5 -107v-87q0 -29 28.5 -48.5t75.5 -19.5q58 0 99.5 35.5t41.5 93.5q0 84 -63 150t-175.5 103t-255.5 37q-146 0 -261.5 -39t-180.5 -108.5t-65 -157.5q0 -79 65 -140.5t180.5 -96.5t261.5 -35q60 0 126.5 9t127.5 25l23 -80q-59 -15 -132 -23.5
t-145 -8.5q-173 0 -309.5 44.5t-213 124.5t-76.5 181q0 111 76.5 198t213 135.5t309.5 48.5q169 0 302.5 -47zM686 255.5q39 21.5 39 55.5v1h-96q-51 0 -81 -11t-30 -29q0 -17 22 -27.5t56 -10.5q51 0 90 21.5z" />
    <glyph glyph-name="A" unicode="A" horiz-adv-x="910" 
d="M904 0h-203l-56 117h-380l-56 -117h-203l336 700h227zM455 517l-124 -260h248z" />
    <glyph glyph-name="A" unicode="a" horiz-adv-x="910" 
d="M904 0h-203l-56 117h-380l-56 -117h-203l336 700h227zM455 517l-124 -260h248z" />
    <glyph glyph-name="B" unicode="B" horiz-adv-x="773" 
d="M702 299q41 -43 41 -103t-38.5 -104.5t-104.5 -68t-145 -23.5h-415v700h412q73 0 132.5 -24t94 -67t34.5 -97q0 -53 -31.5 -91.5t-78.5 -59.5q58 -19 99 -62zM230 560v-147h207q45 0 70.5 21t25.5 58q0 68 -96 68h-207zM440 140q49 0 76.5 20.5t27.5 56.5q0 35 -27 53
t-77 18h-210v-148h210z" />
    <glyph glyph-name="B" unicode="b" horiz-adv-x="773" 
d="M702 299q41 -43 41 -103t-38.5 -104.5t-104.5 -68t-145 -23.5h-415v700h412q73 0 132.5 -24t94 -67t34.5 -97q0 -53 -31.5 -91.5t-78.5 -59.5q58 -19 99 -62zM230 560v-147h207q45 0 70.5 21t25.5 58q0 68 -96 68h-207zM440 140q49 0 76.5 20.5t27.5 56.5q0 35 -27 53
t-77 18h-210v-148h210z" />
    <glyph glyph-name="C" unicode="C" horiz-adv-x="884" 
d="M89 542q59 83 160 128.5t222 45.5q134 0 234 -48.5t163 -141.5l-185 -62q-74 94 -212 94q-62 0 -116.5 -25.5t-87 -73t-32.5 -108.5q0 -62 33 -109.5t87 -73.5t116 -26q137 0 212 96l185 -63q-62 -93 -163 -142t-234 -49q-121 0 -222 46t-160 129.5t-59 191.5t59 191z
" />
    <glyph glyph-name="C" unicode="c" horiz-adv-x="884" 
d="M89 542q59 83 160 128.5t222 45.5q134 0 234 -48.5t163 -141.5l-185 -62q-74 94 -212 94q-62 0 -116.5 -25.5t-87 -73t-32.5 -108.5q0 -62 33 -109.5t87 -73.5t116 -26q137 0 212 96l185 -63q-62 -93 -163 -142t-234 -49q-121 0 -222 46t-160 129.5t-59 191.5t59 191z
" />
    <glyph glyph-name="D" unicode="D" horiz-adv-x="879" 
d="M40 0v700h397q121 0 215 -44.5t145.5 -124t51.5 -181.5t-51.5 -181.5t-145.5 -124t-215 -44.5h-397zM437 140q97 0 152 58t55 152t-55 152t-152 58h-207v-420h207z" />
    <glyph glyph-name="D" unicode="d" horiz-adv-x="879" 
d="M40 0v700h397q121 0 215 -44.5t145.5 -124t51.5 -181.5t-51.5 -181.5t-145.5 -124t-215 -44.5h-397zM437 140q97 0 152 58t55 152t-55 152t-152 58h-207v-420h207z" />
    <glyph glyph-name="E" unicode="E" horiz-adv-x="686" 
d="M647 0h-607v700h607v-140h-417v-140h373v-140h-373v-140h417v-140z" />
    <glyph glyph-name="E" unicode="e" horiz-adv-x="686" 
d="M647 0h-607v700h607v-140h-417v-140h373v-140h-373v-140h417v-140z" />
    <glyph glyph-name="F" unicode="F" horiz-adv-x="687" 
d="M230 0h-190v700h608v-140h-418v-140h374v-140h-374v-280z" />
    <glyph glyph-name="F" unicode="f" horiz-adv-x="687" 
d="M230 0h-190v700h608v-140h-418v-140h374v-140h-374v-280z" />
    <glyph glyph-name="G" unicode="G" horiz-adv-x="908" 
d="M389 408h489v-67q0 -108 -57 -189t-151 -124.5t-203 -43.5q-121 0 -220.5 46t-158 129.5t-58.5 191.5t60 191t162 128.5t223 45.5q122 0 217 -39.5t159 -107.5l-160 -91q-36 38 -91.5 60t-124.5 22q-63 0 -118.5 -25.5t-88.5 -73t-33 -110.5q0 -64 31.5 -111.5t84.5 -73
t116 -25.5q87 0 147.5 40.5t74.5 101.5h-300v125z" />
    <glyph glyph-name="G" unicode="g" horiz-adv-x="908" 
d="M389 408h489v-67q0 -108 -57 -189t-151 -124.5t-203 -43.5q-121 0 -220.5 46t-158 129.5t-58.5 191.5t60 191t162 128.5t223 45.5q122 0 217 -39.5t159 -107.5l-160 -91q-36 38 -91.5 60t-124.5 22q-63 0 -118.5 -25.5t-88.5 -73t-33 -110.5q0 -64 31.5 -111.5t84.5 -73
t116 -25.5q87 0 147.5 40.5t74.5 101.5h-300v125z" />
    <glyph glyph-name="H" unicode="H" horiz-adv-x="867" 
d="M637 400v300h190v-700h-190v260h-407v-260h-190v700h190v-300h407z" />
    <glyph glyph-name="H" unicode="h" horiz-adv-x="867" 
d="M637 400v300h190v-700h-190v260h-407v-260h-190v700h190v-300h407z" />
    <glyph glyph-name="I" unicode="I" horiz-adv-x="391" 
d="M101 0v700h190v-700h-190z" />
    <glyph glyph-name="J" unicode="J" horiz-adv-x="704" 
d="M197 207q37 -76 142 -76q63 0 99 28.5t36 75.5v465h190v-466q0 -73 -41 -130t-116 -88.5t-173 -31.5q-135 0 -223 48.5t-122 129.5z" />
    <glyph glyph-name="J" unicode="j" horiz-adv-x="704" 
d="M197 207q37 -76 142 -76q63 0 99 28.5t36 75.5v465h190v-466q0 -73 -41 -130t-116 -88.5t-173 -31.5q-135 0 -223 48.5t-122 129.5z" />
    <glyph glyph-name="K" unicode="K" horiz-adv-x="856" 
d="M862 700l-290 -343l300 -357h-241l-177 215l-187 -215h-227v700h190v-490l417 490h215z" />
    <glyph glyph-name="K" unicode="k" horiz-adv-x="856" 
d="M862 700l-290 -343l300 -357h-241l-177 215l-187 -215h-227v700h190v-490l417 490h215z" />
    <glyph glyph-name="L" unicode="L" horiz-adv-x="683" 
d="M630 0h-590v700h190v-560h400v-140z" />
    <glyph glyph-name="L" unicode="l" horiz-adv-x="683" 
d="M630 0h-590v700h190v-560h400v-140z" />
    <glyph glyph-name="M" unicode="M" horiz-adv-x="1146" 
d="M572 150l271 550h263v-700h-190v479l-232 -479h-221l-233 478v-478h-190v700h264z" />
    <glyph glyph-name="M" unicode="m" horiz-adv-x="1146" 
d="M572 150l271 550h263v-700h-190v479l-232 -479h-221l-233 478v-478h-190v700h264z" />
    <glyph glyph-name="N" unicode="N" horiz-adv-x="901" 
d="M671 243v457h190v-700h-179l-452 462v-462h-190v700h179z" />
    <glyph glyph-name="N" unicode="n" horiz-adv-x="901" 
d="M671 243v457h190v-700h-179l-452 462v-462h-190v700h179z" />
    <glyph glyph-name="O" unicode="O" horiz-adv-x="952" 
d="M245.5 31q-101.5 47 -158.5 130t-57 189t57 189t158.5 130t230.5 47q130 0 231.5 -47t158 -130t56.5 -189t-56.5 -189t-158 -130t-231.5 -47q-129 0 -230.5 47zM597.5 167.5q55.5 26.5 87.5 74t32 108.5t-32 109t-87.5 74.5t-121.5 26.5t-121.5 -26.5t-87.5 -74.5
t-32 -109t32 -108.5t87.5 -74t121.5 -26.5t121.5 26.5z" />
    <glyph glyph-name="O" unicode="o" horiz-adv-x="952" 
d="M245.5 31q-101.5 47 -158.5 130t-57 189t57 189t158.5 130t230.5 47q130 0 231.5 -47t158 -130t56.5 -189t-56.5 -189t-158 -130t-231.5 -47q-129 0 -230.5 47zM597.5 167.5q55.5 26.5 87.5 74t32 108.5t-32 109t-87.5 74.5t-121.5 26.5t-121.5 -26.5t-87.5 -74.5
t-32 -109t32 -108.5t87.5 -74t121.5 -26.5t121.5 26.5z" />
    <glyph glyph-name="P" unicode="P" horiz-adv-x="800" 
d="M40 0v700h395q96 0 173.5 -32t122 -89t44.5 -131t-44.5 -132t-122 -90t-173.5 -32h-205v-194h-190zM435 334q60 0 97.5 31.5t37.5 82.5t-37.5 81.5t-97.5 30.5h-205v-226h205z" />
    <glyph glyph-name="P" unicode="p" horiz-adv-x="800" 
d="M40 0v700h395q96 0 173.5 -32t122 -89t44.5 -131t-44.5 -132t-122 -90t-173.5 -32h-205v-194h-190zM435 334q60 0 97.5 31.5t37.5 82.5t-37.5 81.5t-97.5 30.5h-205v-226h205z" />
    <glyph glyph-name="Q" unicode="Q" horiz-adv-x="952" 
d="M865 160q-57 -84 -158 -130l75 -168l-143 -56l-82 183q-43 -5 -81 -5q-129 0 -230.5 47t-158.5 130t-57 189t57 189t158.5 130t230.5 47q130 0 231.5 -47t158 -130t56.5 -189t-57 -190zM635 190q39 29 60.5 69.5t21.5 90.5q0 61 -32 109t-87.5 74.5t-121.5 26.5
t-121.5 -26.5t-87.5 -74.5t-32 -109t32 -108.5t87.5 -74t121.5 -26.5h13l-78 174l143 56z" />
    <glyph glyph-name="Q" unicode="q" horiz-adv-x="952" 
d="M865 160q-57 -84 -158 -130l75 -168l-143 -56l-82 183q-43 -5 -81 -5q-129 0 -230.5 47t-158.5 130t-57 189t57 189t158.5 130t230.5 47q130 0 231.5 -47t158 -130t56.5 -189t-57 -190zM635 190q39 29 60.5 69.5t21.5 90.5q0 61 -32 109t-87.5 74.5t-121.5 26.5
t-121.5 -26.5t-87.5 -74.5t-32 -109t32 -108.5t87.5 -74t121.5 -26.5h13l-78 174l143 56z" />
    <glyph glyph-name="R" unicode="R" horiz-adv-x="800" 
d="M738.5 327q-36.5 -54 -101.5 -88l131 -239h-209l-104 194h-20h-205v-194h-190v700h395q96 0 173.5 -32t122 -89t44.5 -131q0 -67 -36.5 -121zM230 560v-226h205q60 0 97.5 31.5t37.5 82.5t-37.5 81.5t-97.5 30.5h-205z" />
    <glyph glyph-name="R" unicode="r" horiz-adv-x="800" 
d="M738.5 327q-36.5 -54 -101.5 -88l131 -239h-209l-104 194h-20h-205v-194h-190v700h395q96 0 173.5 -32t122 -89t44.5 -131q0 -67 -36.5 -121zM230 560v-226h205q60 0 97.5 31.5t37.5 82.5t-37.5 81.5t-97.5 30.5h-205z" />
    <glyph glyph-name="S" unicode="S" horiz-adv-x="763" 
d="M196.5 2q-87.5 18 -157.5 48l48 154q76 -30 150 -46.5t136 -16.5q71 0 113 19t42 52q0 26 -21.5 40t-62.5 20l-176 26q-99 15 -161 67.5t-62 131.5q0 66 52.5 116t138.5 76.5t183 26.5q80 0 163.5 -15.5t139.5 -37.5l-50 -155q-137 52 -253 52q-165 0 -165 -63
q0 -25 23.5 -41.5t64.5 -23.5l161 -24q108 -16 168 -65.5t60 -130.5q0 -69 -51 -120.5t-133.5 -79.5t-173.5 -28q-89 0 -176.5 18z" />
    <glyph glyph-name="S" unicode="s" horiz-adv-x="763" 
d="M196.5 2q-87.5 18 -157.5 48l48 154q76 -30 150 -46.5t136 -16.5q71 0 113 19t42 52q0 26 -21.5 40t-62.5 20l-176 26q-99 15 -161 67.5t-62 131.5q0 66 52.5 116t138.5 76.5t183 26.5q80 0 163.5 -15.5t139.5 -37.5l-50 -155q-137 52 -253 52q-165 0 -165 -63
q0 -25 23.5 -41.5t64.5 -23.5l161 -24q108 -16 168 -65.5t60 -130.5q0 -69 -51 -120.5t-133.5 -79.5t-173.5 -28q-89 0 -176.5 18z" />
    <glyph glyph-name="T" unicode="T" horiz-adv-x="756" 
d="M474 0h-190v560h-273v140h735v-140h-272v-560z" />
    <glyph glyph-name="T" unicode="t" horiz-adv-x="756" 
d="M474 0h-190v560h-273v140h735v-140h-272v-560z" />
    <glyph glyph-name="U" unicode="U" horiz-adv-x="849" 
d="M40 700h190v-402q0 -72 54 -114.5t140 -42.5q87 0 141.5 42.5t54.5 114.5l-1 402h190v-402q0 -90 -52 -162t-140.5 -112t-192.5 -40t-192 40t-140 112t-52 162v402z" />
    <glyph glyph-name="U" unicode="u" horiz-adv-x="849" 
d="M40 700h190v-402q0 -72 54 -114.5t140 -42.5q87 0 141.5 42.5t54.5 114.5l-1 402h190v-402q0 -90 -52 -162t-140.5 -112t-192.5 -40t-192 40t-140 112t-52 162v402z" />
    <glyph glyph-name="V" unicode="V" horiz-adv-x="910" 
d="M455 158l243 542h206l-316 -700h-265l-317 700h206z" />
    <glyph glyph-name="V" unicode="v" horiz-adv-x="910" 
d="M455 158l243 542h206l-316 -700h-265l-317 700h206z" />
    <glyph glyph-name="W" unicode="W" horiz-adv-x="1216" 
d="M850 280l176 420h203l-289 -700h-163l-173 470l-173 -470h-163l-281 700h203l168 -418l155 418h182z" />
    <glyph glyph-name="W" unicode="w" horiz-adv-x="1216" 
d="M850 280l176 420h203l-289 -700h-163l-173 470l-173 -470h-163l-281 700h203l168 -418l155 418h182z" />
    <glyph glyph-name="X" unicode="X" horiz-adv-x="798" 
d="M290 350l-282 -350h219l172 210l172 -210h219l-281 350l281 350h-219l-172 -210l-172 210h-219z" />
    <glyph glyph-name="X" unicode="x" horiz-adv-x="798" 
d="M290 350l-282 -350h219l172 210l172 -210h219l-281 350l281 350h-219l-172 -210l-172 210h-219z" />
    <glyph glyph-name="Y" unicode="Y" horiz-adv-x="819" 
d="M327 0h-212l192 279l-273 421h216l167 -258l181 258h212z" />
    <glyph glyph-name="Y" unicode="y" horiz-adv-x="819" 
d="M327 0h-212l192 279l-273 421h216l167 -258l181 258h212z" />
    <glyph glyph-name="Z" unicode="Z" horiz-adv-x="731" 
d="M40 700h651v-165l-441 -395h441v-140h-651v162l443 398h-443v140z" />
    <glyph glyph-name="Z" unicode="z" horiz-adv-x="731" 
d="M40 700h651v-165l-441 -395h441v-140h-651v162l443 398h-443v140z" />
    <glyph glyph-name="bracketleft" unicode="[" horiz-adv-x="421" 
d="M391 767v-117l-207 -1v-702l207 1v-117l-207 -1h-134v936z" />
    <glyph glyph-name="backslash" unicode="\" horiz-adv-x="422" 
d="M404 -100h-149l-262 900h149z" />
    <glyph glyph-name="bracketright" unicode="]" horiz-adv-x="421" 
d="M30 767l341 -1v-936l-341 1v117l207 -1v702l-207 1v117z" />
    <glyph glyph-name="asciicircum" unicode="^" horiz-adv-x="562" 
d="M382 700l133 -356h-143l-91 242l-91 -242h-142l132 356h202z" />
    <glyph glyph-name="underscore" unicode="_" horiz-adv-x="560" 
d="M30 -168v140h500v-140h-500z" />
    <glyph glyph-name="grave" unicode="`" horiz-adv-x="351" 
d="M144 780l-100 120h169l65 -120h-134z" />
    <glyph glyph-name="i" unicode="i" horiz-adv-x="391" 
d="M101 0v700h190v-700h-190z" />
    <glyph glyph-name="braceleft" unicode="{" horiz-adv-x="430" 
d="M262 440q0 -44 -20 -70.5t-54 -41.5q34 -15 54 -41.5t20 -70.5v-124q0 -39 12.5 -57.5t39.5 -18.5h42v-140h-42q-62 0 -103.5 24.5t-61.5 64t-20 83.5v133q0 35 -12 50t-41 15h-26v165h26q29 0 41 15t12 50v132q0 44 20 83.5t61.5 64t103.5 24.5h42v-140h-42
q-27 0 -39.5 -18t-12.5 -57v-125z" />
    <glyph glyph-name="bar" unicode="|" horiz-adv-x="334" 
d="M89 -111v811h156v-811h-156z" />
    <glyph glyph-name="braceright" unicode="}" horiz-adv-x="390" 
d="M356 411v-165h-26q-29 0 -41 -15t-12 -50v-133q0 -44 -20 -83.5t-61.5 -64t-103.5 -24.5h-42v140h42q27 0 39.5 18.5t12.5 57.5v124q0 44 20 70.5t54 41.5q-34 15 -54 41.5t-20 70.5v125q0 39 -12 57t-40 18h-42v140h42q62 0 103.5 -24.5t61.5 -64t20 -83.5v-132
q0 -35 12 -50t41 -15h26z" />
    <glyph glyph-name="asciitilde" unicode="~" horiz-adv-x="602" 
d="M71 309q57 -28 108 -28q41 0 93 19q71 26 140 26q80 0 153 -35l-50 -118q-65 34 -117 34q-40 0 -94 -20q-67 -25 -140 -25q-78 0 -143 29z" />
    <glyph glyph-name="exclamdown" unicode="&#xa1;" horiz-adv-x="297" 
d="M53 371v130h195v-130h-195zM63 0l16 229h138l17 -229v-200h-171v200z" />
    <glyph glyph-name="cent" unicode="&#xa2;" horiz-adv-x="691" 
d="M523 279l152 -53q-33 -56 -89.5 -90t-128.5 -46v-90h-169v92q-118 20 -188 90t-70 168t70 168t188 90v92h169v-90q72 -12 128.5 -46t89.5 -90l-152 -53q-53 62 -145 62q-72 0 -118.5 -37.5t-46.5 -95.5t46.5 -95.5t118.5 -37.5q91 0 145 62z" />
    <glyph glyph-name="sterling" unicode="&#xa3;" horiz-adv-x="781" 
d="M306 270v-130h410v-140h-677v140h78v130h-78v83h78v126q0 71 45.5 125t119.5 83t156 29q77 0 145 -23.5t117 -63.5t71 -87l-179 -38q-21 39 -57.5 58.5t-93.5 19.5q-63 0 -99 -26t-36 -77v-126h233v-83h-233z" />
    <glyph glyph-name="currency" unicode="&#xa4;" horiz-adv-x="600" 
d="M509 220l71 -71l-88 -88l-72 72q-53 -32 -121 -32q-69 0 -126 34l-74 -74l-88 88l73 73q-35 60 -35 129q0 63 32 121l-70 70l88 88l69 -69q59 36 131 36q68 0 125 -35l68 68l88 -88l-68 -68q33 -57 33 -123q0 -73 -36 -131zM382.5 264q34.5 35 34.5 86q0 50 -34.5 84.5
t-84.5 34.5t-85.5 -35t-35.5 -84q0 -51 35.5 -86t85.5 -35t84.5 35z" />
    <glyph glyph-name="yen" unicode="&#xa5;" horiz-adv-x="786" 
d="M784 700l-270 -378v-45h192v-72h-192v-46h192v-71h-192v-88h-189v88h-191v71h191v46h-191v72h191v42l-307 381h214l192 -235l166 235h194z" />
    <glyph glyph-name="brokenbar" unicode="&#xa6;" horiz-adv-x="334" 
d="M245 377h-156v323h156v-323zM245 -111h-156v344h156v-344z" />
    <glyph glyph-name="section" unicode="&#xa7;" horiz-adv-x="532" 
d="M142 -3q-58 13 -104 34l31 114q49 -22 99 -33.5t92 -11.5q41 0 66 12.5t25 34.5q0 16 -14 27t-46 18l-111 26q-62 13 -101.5 49t-39.5 87q0 61 81 94q-41 20 -61 48.5t-20 63.5q0 46 34 81.5t90.5 55t121.5 19.5q54 0 113 -12.5t96 -29.5l-32 -111q-44 19 -90.5 27.5
t-86.5 8.5t-65.5 -11.5t-25.5 -30.5q0 -14 13 -25t36 -15l80 -16q82 -17 129.5 -56t47.5 -92q0 -66 -78 -94q40 -21 59 -50.5t19 -62.5q0 -46 -31.5 -83t-86 -58t-122.5 -21q-60 0 -118 13zM280 306q10 -2 16 -2q22 0 38 13.5t16 31.5q0 16 -10 26.5t-29 15.5l-55 12
q-10 2 -14 2q-20 0 -35 -12t-15 -30q0 -33 39 -43z" />
    <glyph glyph-name="dieresis" unicode="&#xa8;" horiz-adv-x="635" 
d="M578 770h-195v130h195v-130zM258 770h-195v130h195v-130z" />
    <glyph glyph-name="copyright" unicode="&#xa9;" horiz-adv-x="904" 
d="M658 666.5q95 -49.5 150.5 -133.5t55.5 -183t-55.5 -183t-150.5 -133.5t-206 -49.5q-112 0 -206.5 49.5t-150 133.5t-55.5 183t55.5 183t150 133.5t206.5 49.5q111 0 206 -49.5zM612.5 102.5q73.5 38.5 117 104.5t43.5 143t-43.5 143t-117 104.5t-160.5 38.5t-161 -38.5
t-117.5 -104.5t-43.5 -143t43.5 -143t117.5 -104.5t161 -38.5t160.5 38.5zM376.5 420q-33.5 -26 -33.5 -70t33.5 -70t86.5 -26q71 0 104 45l124 -39q-33 -59 -92.5 -86t-135.5 -27q-78 0 -138.5 26t-94 72t-33.5 105t33.5 105t94 72t138.5 26q76 0 135.5 -27t92.5 -86
l-124 -39q-33 45 -104 45q-53 0 -86.5 -26z" />
    <glyph glyph-name="guillemotleft" unicode="&#xab;" horiz-adv-x="684" 
d="M233 500h151l-163 -214l163 -214h-151l-163 214zM463 500h151l-163 -214l163 -214h-151l-163 214z" />
    <glyph glyph-name="logicalnot" unicode="&#xac;" horiz-adv-x="420" 
d="M40 206v80h340v-216h-80v136h-260z" />
    <glyph glyph-name="registered" unicode="&#xae;" horiz-adv-x="810" 
d="M587.5 677.5q83.5 -38.5 132.5 -104.5t49 -145t-49 -145t-132.5 -104.5t-181.5 -38.5q-99 0 -182.5 38.5t-132.5 104.5t-49 145t49 145t132.5 104.5t182.5 38.5q98 0 181.5 -38.5zM545.5 236.5q64.5 29.5 102.5 80.5t38 111t-38 111t-102.5 81t-139.5 30q-76 0 -140 -30
t-102 -81t-38 -111t38 -111t102 -80.5t140 -29.5q75 0 139.5 29.5zM527.5 426q-15.5 -22 -43.5 -34l69 -101h-87l-61 89h-38v-89h-86v277h139q55 0 89 -26.5t34 -66.5q0 -27 -15.5 -49zM367 511v-74h53q22 0 35 10.5t13 27.5q0 16 -13 26t-35 10h-53z" />
    <glyph glyph-name="macron" unicode="&#xaf;" horiz-adv-x="549" 
d="M60 800v98h429v-98h-429z" />
    <glyph glyph-name="degree" unicode="&#xb0;" horiz-adv-x="486" 
d="M146.5 430.5q-44.5 20.5 -70.5 56t-26 76.5t26 76.5t70.5 56t96.5 20.5t96.5 -20.5t70.5 -56t26 -76.5t-26 -76.5t-70.5 -56t-96.5 -20.5t-96.5 20.5zM299.5 519q23.5 18 23.5 44t-23.5 44t-56.5 18t-56 -18t-23 -44t23 -44t56 -18t56.5 18z" />
    <glyph glyph-name="plusminus" unicode="&#xb1;" horiz-adv-x="430" 
d="M315 505h143v-140h-143v-146h-140v146h-142v140h142v147h140v-147zM20 11v110h380v-110h-380z" />
    <glyph glyph-name="acute" unicode="&#xb4;" horiz-adv-x="342" 
d="M120 900h169l-95 -120h-134z" />
    <glyph glyph-name="uni00B5" unicode="&#xb5;" horiz-adv-x="653" 
d="M415 500h190v-500h-160l-12 53q-31 -33 -73 -51t-87 -18q-17 0 -35 3v-192h-190v705h190v-305q0 -38 22.5 -60t61.5 -22q43 0 68 26t25 76v285z" />
    <glyph glyph-name="periodcentered" unicode="&#xb7;" horiz-adv-x="358" 
d="M279 200h-195v130h195v-130z" />
    <glyph glyph-name="cedilla" unicode="&#xb8;" horiz-adv-x="431" 
d="M211 -56q160 0 160 -68q0 -40 -46.5 -66t-112.5 -26q-49 0 -82.5 7t-69.5 20l24 65q67 -23 128 -23q34 0 49 5.5t15 17.5t-15 18t-50 6h-50v100h50v-56z" />
    <glyph glyph-name="ordmasculine" unicode="&#xba;" horiz-adv-x="542" 
d="M146.5 345.5q-54.5 25.5 -85.5 70.5t-31 102t31 102t85.5 70.5t124.5 25.5t124.5 -25.5t85.5 -70.5t31 -102t-31 -102t-85.5 -70.5t-124.5 -25.5t-124.5 25.5zM353.5 452q32.5 26 32.5 66t-32.5 66.5t-82.5 26.5q-48 0 -81.5 -26.5t-33.5 -66.5q0 -39 33.5 -65.5
t81.5 -26.5q50 0 82.5 26z" />
    <glyph glyph-name="guillemotright" unicode="&#xbb;" horiz-adv-x="681" 
d="M70 500h151l163 -214l-163 -214h-151l163 214zM298 500h150l163 -214l-163 -214h-150l163 214z" />
    <glyph glyph-name="questiondown" unicode="&#xbf;" horiz-adv-x="720" 
d="M332 482h195v-130h-195v130zM730 -180q-54 -23 -138 -38.5t-166 -15.5q-108 0 -194 29t-135 82.5t-49 122.5q0 61 34.5 109t100 77.5t154.5 36.5v61h190v-199h-106q-49 0 -83 -12.5t-50.5 -32t-16.5 -40.5q0 -34 43.5 -56t111.5 -22q124 0 255 50z" />
    <glyph glyph-name="Agrave" unicode="&#xc0;" horiz-adv-x="910" 
d="M904 0h-203l-56 117h-380l-56 -117h-203l336 700h227zM455 517l-124 -260h248zM413 780l-100 120h169l65 -120h-134z" />
    <glyph glyph-name="Agrave" unicode="&#xe0;" horiz-adv-x="910" 
d="M904 0h-203l-56 117h-380l-56 -117h-203l336 700h227zM455 517l-124 -260h248zM413 780l-100 120h169l65 -120h-134z" />
    <glyph glyph-name="Aacute" unicode="&#xc1;" horiz-adv-x="910" 
d="M904 0h-203l-56 117h-380l-56 -117h-203l336 700h227zM455 517l-124 -260h248zM425 900h169l-95 -120h-134z" />
    <glyph glyph-name="Aacute" unicode="&#xe1;" horiz-adv-x="910" 
d="M904 0h-203l-56 117h-380l-56 -117h-203l336 700h227zM455 517l-124 -260h248zM425 900h169l-95 -120h-134z" />
    <glyph glyph-name="Acircumflex" unicode="&#xc2;" horiz-adv-x="910" 
d="M904 0h-203l-56 117h-380l-56 -117h-203l336 700h227zM455 517l-124 -260h248zM543 900l105 -120h-129l-64 82l-64 -82h-129l106 120h175z" />
    <glyph glyph-name="Acircumflex" unicode="&#xe2;" horiz-adv-x="910" 
d="M904 0h-203l-56 117h-380l-56 -117h-203l336 700h227zM455 517l-124 -260h248zM543 900l105 -120h-129l-64 82l-64 -82h-129l106 120h175z" />
    <glyph glyph-name="Atilde" unicode="&#xc3;" horiz-adv-x="910" 
d="M904 0h-203l-56 117h-380l-56 -117h-203l336 700h227zM455 517l-124 -260h248zM284 930q36 -26 78 -26q38 0 79 23q46 28 96 28q57 0 115 -38l-29 -90q-39 29 -80 29q-38 0 -80 -24q-48 -27 -97 -27q-55 0 -110 35z" />
    <glyph glyph-name="Atilde" unicode="&#xe3;" horiz-adv-x="910" 
d="M904 0h-203l-56 117h-380l-56 -117h-203l336 700h227zM455 517l-124 -260h248zM284 930q36 -26 78 -26q38 0 79 23q46 28 96 28q57 0 115 -38l-29 -90q-39 29 -80 29q-38 0 -80 -24q-48 -27 -97 -27q-55 0 -110 35z" />
    <glyph glyph-name="Adieresis" unicode="&#xc4;" horiz-adv-x="910" 
d="M904 0h-203l-56 117h-380l-56 -117h-203l336 700h227zM455 517l-124 -260h248zM712 770h-195v130h195v-130zM392 770h-195v130h195v-130z" />
    <glyph glyph-name="Adieresis" unicode="&#xe4;" horiz-adv-x="910" 
d="M904 0h-203l-56 117h-380l-56 -117h-203l336 700h227zM455 517l-124 -260h248zM712 770h-195v130h195v-130zM392 770h-195v130h195v-130z" />
    <glyph glyph-name="Aring" unicode="&#xc5;" horiz-adv-x="910" 
d="M904 0h-203l-56 117h-380l-56 -117h-203l336 700h227zM455 517l-124 -260h248zM360 773q-40 25 -40 60q0 34 40 58.5t96 24.5t95.5 -24.5t39.5 -58.5q0 -35 -39.5 -60t-95.5 -25t-96 25zM491 811q14 9 14 22t-14.5 21.5t-34.5 8.5q-21 0 -35.5 -8.5t-14.5 -21.5t14.5 -22
t35.5 -9t35 9z" />
    <glyph glyph-name="Aring" unicode="&#xe5;" horiz-adv-x="910" 
d="M904 0h-203l-56 117h-380l-56 -117h-203l336 700h227zM455 517l-124 -260h248zM360 773q-40 25 -40 60q0 34 40 58.5t96 24.5t95.5 -24.5t39.5 -58.5q0 -35 -39.5 -60t-95.5 -25t-96 25zM491 811q14 9 14 22t-14.5 21.5t-34.5 8.5q-21 0 -35.5 -8.5t-14.5 -21.5t14.5 -22
t35.5 -9t35 9z" />
    <glyph glyph-name="AE" unicode="&#xc6;" horiz-adv-x="1155" 
d="M1116 700v-140h-417v-140h373v-140h-373v-140h417v-140h-607v121h-241l-70 -121h-192l437 700h673zM509 538l-160 -277h160v277z" />
    <glyph glyph-name="AE" unicode="&#xe6;" horiz-adv-x="1155" 
d="M1116 700v-140h-417v-140h373v-140h-373v-140h417v-140h-607v121h-241l-70 -121h-192l437 700h673zM509 538l-160 -277h160v277z" />
    <glyph glyph-name="Ccedilla" unicode="&#xc7;" horiz-adv-x="884" 
d="M683 238l185 -63q-62 -93 -163 -142t-234 -49q-16 0 -44 2v-42q160 0 160 -68q0 -40 -46.5 -66t-112.5 -26q-49 0 -82.5 7t-69.5 20l24 65q67 -23 128 -23q34 0 49 5.5t15 17.5t-15 18t-50 6h-50v92q-99 16 -178 65t-124 124.5t-45 169.5q0 108 59 191t160 128.5
t222 45.5q134 0 234 -48.5t163 -141.5l-185 -62q-74 94 -212 94q-62 0 -116.5 -25.5t-87 -73t-32.5 -108.5q0 -62 33 -109.5t87 -73.5t116 -26q137 0 212 96z" />
    <glyph glyph-name="Ccedilla" unicode="&#xe7;" horiz-adv-x="884" 
d="M683 238l185 -63q-62 -93 -163 -142t-234 -49q-16 0 -44 2v-42q160 0 160 -68q0 -40 -46.5 -66t-112.5 -26q-49 0 -82.5 7t-69.5 20l24 65q67 -23 128 -23q34 0 49 5.5t15 17.5t-15 18t-50 6h-50v92q-99 16 -178 65t-124 124.5t-45 169.5q0 108 59 191t160 128.5
t222 45.5q134 0 234 -48.5t163 -141.5l-185 -62q-74 94 -212 94q-62 0 -116.5 -25.5t-87 -73t-32.5 -108.5q0 -62 33 -109.5t87 -73.5t116 -26q137 0 212 96z" />
    <glyph glyph-name="Egrave" unicode="&#xc8;" horiz-adv-x="686" 
d="M647 0h-607v700h607v-140h-417v-140h373v-140h-373v-140h417v-140zM302 780l-100 120h169l65 -120h-134z" />
    <glyph glyph-name="Egrave" unicode="&#xe8;" horiz-adv-x="686" 
d="M647 0h-607v700h607v-140h-417v-140h373v-140h-373v-140h417v-140zM302 780l-100 120h169l65 -120h-134z" />
    <glyph glyph-name="Eacute" unicode="&#xc9;" horiz-adv-x="686" 
d="M647 0h-607v700h607v-140h-417v-140h373v-140h-373v-140h417v-140zM314 900h169l-95 -120h-134z" />
    <glyph glyph-name="Eacute" unicode="&#xe9;" horiz-adv-x="686" 
d="M647 0h-607v700h607v-140h-417v-140h373v-140h-373v-140h417v-140zM314 900h169l-95 -120h-134z" />
    <glyph glyph-name="Ecircumflex" unicode="&#xca;" horiz-adv-x="686" 
d="M647 0h-607v700h607v-140h-417v-140h373v-140h-373v-140h417v-140zM432 900l105 -120h-129l-64 82l-64 -82h-129l106 120h175z" />
    <glyph glyph-name="Ecircumflex" unicode="&#xea;" horiz-adv-x="686" 
d="M647 0h-607v700h607v-140h-417v-140h373v-140h-373v-140h417v-140zM432 900l105 -120h-129l-64 82l-64 -82h-129l106 120h175z" />
    <glyph glyph-name="Edieresis" unicode="&#xcb;" horiz-adv-x="686" 
d="M647 0h-607v700h607v-140h-417v-140h373v-140h-373v-140h417v-140zM601 770h-195v130h195v-130zM281 770h-195v130h195v-130z" />
    <glyph glyph-name="Edieresis" unicode="&#xeb;" horiz-adv-x="686" 
d="M647 0h-607v700h607v-140h-417v-140h373v-140h-373v-140h417v-140zM601 770h-195v130h195v-130zM281 770h-195v130h195v-130z" />
    <glyph glyph-name="Igrave" unicode="&#xcc;" horiz-adv-x="391" 
d="M101 0v700h190v-700h-190zM153 780l-100 120h169l65 -120h-134z" />
    <glyph glyph-name="Igrave" unicode="&#xec;" horiz-adv-x="391" 
d="M101 0v700h190v-700h-190zM153 780l-100 120h169l65 -120h-134z" />
    <glyph glyph-name="Iacute" unicode="&#xcd;" horiz-adv-x="391" 
d="M101 0v700h190v-700h-190zM165 900h169l-95 -120h-134z" />
    <glyph glyph-name="Iacute" unicode="&#xed;" horiz-adv-x="391" 
d="M101 0v700h190v-700h-190zM165 900h169l-95 -120h-134z" />
    <glyph glyph-name="Icircumflex" unicode="&#xce;" horiz-adv-x="391" 
d="M101 0v700h190v-700h-190zM283 900l105 -120h-129l-64 82l-64 -82h-129l106 120h175z" />
    <glyph glyph-name="Icircumflex" unicode="&#xee;" horiz-adv-x="391" 
d="M101 0v700h190v-700h-190zM283 900l105 -120h-129l-64 82l-64 -82h-129l106 120h175z" />
    <glyph glyph-name="Idieresis" unicode="&#xcf;" horiz-adv-x="391" 
d="M101 0v700h190v-700h-190zM452 770h-195v130h195v-130zM132 770h-195v130h195v-130z" />
    <glyph glyph-name="Idieresis" unicode="&#xef;" horiz-adv-x="391" 
d="M101 0v700h190v-700h-190zM452 770h-195v130h195v-130zM132 770h-195v130h195v-130z" />
    <glyph glyph-name="Eth" unicode="&#xd0;" horiz-adv-x="935" 
d="M493 700q121 0 215 -44.5t145.5 -124t51.5 -181.5t-51.5 -181.5t-145.5 -124t-215 -44.5h-397v295h-76v110h76v295h397zM493 140q97 0 152 58t55 152t-55 152t-152 58h-207v-155h143v-110h-143v-155h207z" />
    <glyph glyph-name="Eth" unicode="&#xf0;" horiz-adv-x="935" 
d="M493 700q121 0 215 -44.5t145.5 -124t51.5 -181.5t-51.5 -181.5t-145.5 -124t-215 -44.5h-397v295h-76v110h76v295h397zM493 140q97 0 152 58t55 152t-55 152t-152 58h-207v-155h143v-110h-143v-155h207z" />
    <glyph glyph-name="Ntilde" unicode="&#xd1;" horiz-adv-x="901" 
d="M671 243v457h190v-700h-179l-452 462v-462h-190v700h179zM284 930q36 -26 78 -26q38 0 79 23q46 28 96 28q57 0 115 -38l-29 -90q-39 29 -80 29q-38 0 -80 -24q-48 -27 -97 -27q-55 0 -110 35z" />
    <glyph glyph-name="Ntilde" unicode="&#xf1;" horiz-adv-x="901" 
d="M671 243v457h190v-700h-179l-452 462v-462h-190v700h179zM284 930q36 -26 78 -26q38 0 79 23q46 28 96 28q57 0 115 -38l-29 -90q-39 29 -80 29q-38 0 -80 -24q-48 -27 -97 -27q-55 0 -110 35z" />
    <glyph glyph-name="Ograve" unicode="&#xd2;" horiz-adv-x="952" 
d="M245.5 31q-101.5 47 -158.5 130t-57 189t57 189t158.5 130t230.5 47q130 0 231.5 -47t158 -130t56.5 -189t-56.5 -189t-158 -130t-231.5 -47q-129 0 -230.5 47zM597.5 167.5q55.5 26.5 87.5 74t32 108.5t-32 109t-87.5 74.5t-121.5 26.5t-121.5 -26.5t-87.5 -74.5
t-32 -109t32 -108.5t87.5 -74t121.5 -26.5t121.5 26.5zM434 780l-100 120h169l65 -120h-134z" />
    <glyph glyph-name="Ograve" unicode="&#xf2;" horiz-adv-x="952" 
d="M245.5 31q-101.5 47 -158.5 130t-57 189t57 189t158.5 130t230.5 47q130 0 231.5 -47t158 -130t56.5 -189t-56.5 -189t-158 -130t-231.5 -47q-129 0 -230.5 47zM597.5 167.5q55.5 26.5 87.5 74t32 108.5t-32 109t-87.5 74.5t-121.5 26.5t-121.5 -26.5t-87.5 -74.5
t-32 -109t32 -108.5t87.5 -74t121.5 -26.5t121.5 26.5zM434 780l-100 120h169l65 -120h-134z" />
    <glyph glyph-name="Oacute" unicode="&#xd3;" horiz-adv-x="952" 
d="M245.5 31q-101.5 47 -158.5 130t-57 189t57 189t158.5 130t230.5 47q130 0 231.5 -47t158 -130t56.5 -189t-56.5 -189t-158 -130t-231.5 -47q-129 0 -230.5 47zM597.5 167.5q55.5 26.5 87.5 74t32 108.5t-32 109t-87.5 74.5t-121.5 26.5t-121.5 -26.5t-87.5 -74.5
t-32 -109t32 -108.5t87.5 -74t121.5 -26.5t121.5 26.5zM446 900h169l-95 -120h-134z" />
    <glyph glyph-name="Oacute" unicode="&#xf3;" horiz-adv-x="952" 
d="M245.5 31q-101.5 47 -158.5 130t-57 189t57 189t158.5 130t230.5 47q130 0 231.5 -47t158 -130t56.5 -189t-56.5 -189t-158 -130t-231.5 -47q-129 0 -230.5 47zM597.5 167.5q55.5 26.5 87.5 74t32 108.5t-32 109t-87.5 74.5t-121.5 26.5t-121.5 -26.5t-87.5 -74.5
t-32 -109t32 -108.5t87.5 -74t121.5 -26.5t121.5 26.5zM446 900h169l-95 -120h-134z" />
    <glyph glyph-name="Ocircumflex" unicode="&#xd4;" horiz-adv-x="952" 
d="M245.5 31q-101.5 47 -158.5 130t-57 189t57 189t158.5 130t230.5 47q130 0 231.5 -47t158 -130t56.5 -189t-56.5 -189t-158 -130t-231.5 -47q-129 0 -230.5 47zM597.5 167.5q55.5 26.5 87.5 74t32 108.5t-32 109t-87.5 74.5t-121.5 26.5t-121.5 -26.5t-87.5 -74.5
t-32 -109t32 -108.5t87.5 -74t121.5 -26.5t121.5 26.5zM564 900l105 -120h-129l-64 82l-64 -82h-129l106 120h175z" />
    <glyph glyph-name="Ocircumflex" unicode="&#xf4;" horiz-adv-x="952" 
d="M245.5 31q-101.5 47 -158.5 130t-57 189t57 189t158.5 130t230.5 47q130 0 231.5 -47t158 -130t56.5 -189t-56.5 -189t-158 -130t-231.5 -47q-129 0 -230.5 47zM597.5 167.5q55.5 26.5 87.5 74t32 108.5t-32 109t-87.5 74.5t-121.5 26.5t-121.5 -26.5t-87.5 -74.5
t-32 -109t32 -108.5t87.5 -74t121.5 -26.5t121.5 26.5zM564 900l105 -120h-129l-64 82l-64 -82h-129l106 120h175z" />
    <glyph glyph-name="Otilde" unicode="&#xd5;" horiz-adv-x="952" 
d="M245.5 31q-101.5 47 -158.5 130t-57 189t57 189t158.5 130t230.5 47q130 0 231.5 -47t158 -130t56.5 -189t-56.5 -189t-158 -130t-231.5 -47q-129 0 -230.5 47zM597.5 167.5q55.5 26.5 87.5 74t32 108.5t-32 109t-87.5 74.5t-121.5 26.5t-121.5 -26.5t-87.5 -74.5
t-32 -109t32 -108.5t87.5 -74t121.5 -26.5t121.5 26.5zM305 930q36 -26 78 -26q38 0 79 23q46 28 96 28q57 0 115 -38l-29 -90q-39 29 -80 29q-38 0 -80 -24q-48 -27 -97 -27q-55 0 -110 35z" />
    <glyph glyph-name="Otilde" unicode="&#xf5;" horiz-adv-x="952" 
d="M245.5 31q-101.5 47 -158.5 130t-57 189t57 189t158.5 130t230.5 47q130 0 231.5 -47t158 -130t56.5 -189t-56.5 -189t-158 -130t-231.5 -47q-129 0 -230.5 47zM597.5 167.5q55.5 26.5 87.5 74t32 108.5t-32 109t-87.5 74.5t-121.5 26.5t-121.5 -26.5t-87.5 -74.5
t-32 -109t32 -108.5t87.5 -74t121.5 -26.5t121.5 26.5zM305 930q36 -26 78 -26q38 0 79 23q46 28 96 28q57 0 115 -38l-29 -90q-39 29 -80 29q-38 0 -80 -24q-48 -27 -97 -27q-55 0 -110 35z" />
    <glyph glyph-name="Odieresis" unicode="&#xd6;" horiz-adv-x="952" 
d="M245.5 31q-101.5 47 -158.5 130t-57 189t57 189t158.5 130t230.5 47q130 0 231.5 -47t158 -130t56.5 -189t-56.5 -189t-158 -130t-231.5 -47q-129 0 -230.5 47zM597.5 167.5q55.5 26.5 87.5 74t32 108.5t-32 109t-87.5 74.5t-121.5 26.5t-121.5 -26.5t-87.5 -74.5
t-32 -109t32 -108.5t87.5 -74t121.5 -26.5t121.5 26.5zM733 770h-195v130h195v-130zM413 770h-195v130h195v-130z" />
    <glyph glyph-name="Odieresis" unicode="&#xf6;" horiz-adv-x="952" 
d="M245.5 31q-101.5 47 -158.5 130t-57 189t57 189t158.5 130t230.5 47q130 0 231.5 -47t158 -130t56.5 -189t-56.5 -189t-158 -130t-231.5 -47q-129 0 -230.5 47zM597.5 167.5q55.5 26.5 87.5 74t32 108.5t-32 109t-87.5 74.5t-121.5 26.5t-121.5 -26.5t-87.5 -74.5
t-32 -109t32 -108.5t87.5 -74t121.5 -26.5t121.5 26.5zM733 770h-195v130h195v-130zM413 770h-195v130h195v-130z" />
    <glyph glyph-name="multiply" unicode="&#xd7;" horiz-adv-x="420" 
d="M305 420l79 -79l-94 -94l94 -95l-79 -79l-94 95l-95 -95l-79 79l95 95l-95 94l79 79l95 -94z" />
    <glyph glyph-name="Oslash" unicode="&#xd8;" horiz-adv-x="980" 
d="M950 650l-92 -76q41 -45 62.5 -102t21.5 -122q0 -106 -57 -189t-158.5 -130t-230.5 -47q-157 0 -273 69l-109 -90l-83 84l100 82q-39 45 -60 101.5t-21 119.5q0 106 57 189t158.5 130t230.5 47q155 0 269 -67l102 84zM281 252l341 280q-58 28 -126 28q-67 0 -122 -26.5
t-87 -74t-32 -109.5q0 -55 26 -98zM709 452l-342 -281q58 -30 129 -30q66 0 121.5 26.5t87.5 74t32 108.5q0 57 -28 102z" />
    <glyph glyph-name="Oslash" unicode="&#xf8;" horiz-adv-x="980" 
d="M950 650l-92 -76q41 -45 62.5 -102t21.5 -122q0 -106 -57 -189t-158.5 -130t-230.5 -47q-157 0 -273 69l-109 -90l-83 84l100 82q-39 45 -60 101.5t-21 119.5q0 106 57 189t158.5 130t230.5 47q155 0 269 -67l102 84zM281 252l341 280q-58 28 -126 28q-67 0 -122 -26.5
t-87 -74t-32 -109.5q0 -55 26 -98zM709 452l-342 -281q58 -30 129 -30q66 0 121.5 26.5t87.5 74t32 108.5q0 57 -28 102z" />
    <glyph glyph-name="Ugrave" unicode="&#xd9;" horiz-adv-x="849" 
d="M40 700h190v-402q0 -72 54 -114.5t140 -42.5q87 0 141.5 42.5t54.5 114.5l-1 402h190v-402q0 -90 -52 -162t-140.5 -112t-192.5 -40t-192 40t-140 112t-52 162v402zM382 780l-100 120h169l65 -120h-134z" />
    <glyph glyph-name="Ugrave" unicode="&#xf9;" horiz-adv-x="849" 
d="M40 700h190v-402q0 -72 54 -114.5t140 -42.5q87 0 141.5 42.5t54.5 114.5l-1 402h190v-402q0 -90 -52 -162t-140.5 -112t-192.5 -40t-192 40t-140 112t-52 162v402zM382 780l-100 120h169l65 -120h-134z" />
    <glyph glyph-name="Uacute" unicode="&#xda;" horiz-adv-x="849" 
d="M40 700h190v-402q0 -72 54 -114.5t140 -42.5q87 0 141.5 42.5t54.5 114.5l-1 402h190v-402q0 -90 -52 -162t-140.5 -112t-192.5 -40t-192 40t-140 112t-52 162v402zM394 900h169l-95 -120h-134z" />
    <glyph glyph-name="Uacute" unicode="&#xfa;" horiz-adv-x="849" 
d="M40 700h190v-402q0 -72 54 -114.5t140 -42.5q87 0 141.5 42.5t54.5 114.5l-1 402h190v-402q0 -90 -52 -162t-140.5 -112t-192.5 -40t-192 40t-140 112t-52 162v402zM394 900h169l-95 -120h-134z" />
    <glyph glyph-name="Ucircumflex" unicode="&#xdb;" horiz-adv-x="849" 
d="M40 700h190v-402q0 -72 54 -114.5t140 -42.5q87 0 141.5 42.5t54.5 114.5l-1 402h190v-402q0 -90 -52 -162t-140.5 -112t-192.5 -40t-192 40t-140 112t-52 162v402zM512 900l105 -120h-129l-64 82l-64 -82h-129l106 120h175z" />
    <glyph glyph-name="Ucircumflex" unicode="&#xfb;" horiz-adv-x="849" 
d="M40 700h190v-402q0 -72 54 -114.5t140 -42.5q87 0 141.5 42.5t54.5 114.5l-1 402h190v-402q0 -90 -52 -162t-140.5 -112t-192.5 -40t-192 40t-140 112t-52 162v402zM512 900l105 -120h-129l-64 82l-64 -82h-129l106 120h175z" />
    <glyph glyph-name="Udieresis" unicode="&#xdc;" horiz-adv-x="849" 
d="M40 700h190v-402q0 -72 54 -114.5t140 -42.5q87 0 141.5 42.5t54.5 114.5l-1 402h190v-402q0 -90 -52 -162t-140.5 -112t-192.5 -40t-192 40t-140 112t-52 162v402zM681 770h-195v130h195v-130zM361 770h-195v130h195v-130z" />
    <glyph glyph-name="Udieresis" unicode="&#xfc;" horiz-adv-x="849" 
d="M40 700h190v-402q0 -72 54 -114.5t140 -42.5q87 0 141.5 42.5t54.5 114.5l-1 402h190v-402q0 -90 -52 -162t-140.5 -112t-192.5 -40t-192 40t-140 112t-52 162v402zM681 770h-195v130h195v-130zM361 770h-195v130h195v-130z" />
    <glyph glyph-name="Yacute" unicode="&#xdd;" horiz-adv-x="819" 
d="M327 0h-212l192 279l-273 421h216l167 -258l181 258h212zM374 900h169l-95 -120h-134z" />
    <glyph glyph-name="Yacute" unicode="&#xfd;" horiz-adv-x="819" 
d="M327 0h-212l192 279l-273 421h216l167 -258l181 258h212zM374 900h169l-95 -120h-134z" />
    <glyph glyph-name="Thorn" unicode="&#xde;" horiz-adv-x="778" 
d="M416 605q96 0 173 -32.5t120.5 -91t43.5 -131.5q0 -75 -43.5 -134t-120.5 -92t-173 -33h-186v-91h-190v700h190v-95h186zM416 231q64 0 107 33.5t43 85.5q0 50 -43 82.5t-107 32.5h-186v-234h186z" />
    <glyph glyph-name="Thorn" unicode="&#xfe;" horiz-adv-x="778" 
d="M416 605q96 0 173 -32.5t120.5 -91t43.5 -131.5q0 -75 -43.5 -134t-120.5 -92t-173 -33h-186v-91h-190v700h190v-95h186zM416 231q64 0 107 33.5t43 85.5q0 50 -43 82.5t-107 32.5h-186v-234h186z" />
    <glyph glyph-name="uni1E9E" unicode="&#xdf;" horiz-adv-x="978" 
d="M698 402q121 -15 184.5 -58.5t63.5 -124.5q0 -75 -54.5 -128.5t-136 -80t-161.5 -26.5q-82 0 -165 21.5t-140 55.5l90 135q98 -55 215 -55q64 0 105.5 21t41.5 57t-54.5 54t-151.5 18h-92v116l230 153h-443v-560h-190v700h890v-140z" />
    <glyph glyph-name="uni1E9E" unicode="&#x1e9e;" horiz-adv-x="978" 
d="M698 402q121 -15 184.5 -58.5t63.5 -124.5q0 -75 -54.5 -128.5t-136 -80t-161.5 -26.5q-82 0 -165 21.5t-140 55.5l90 135q98 -55 215 -55q64 0 105.5 21t41.5 57t-54.5 54t-151.5 18h-92v116l230 153h-443v-560h-190v700h890v-140z" />
    <glyph glyph-name="divide" unicode="&#xf7;" horiz-adv-x="420" 
d="M280 410h-136v91h136v-91zM20 191v110h380v-110h-380zM280 0h-136v91h136v-91z" />
    <glyph glyph-name="Ydieresis" unicode="&#xff;" horiz-adv-x="819" 
d="M327 0h-212l192 279l-273 421h216l167 -258l181 258h212zM661 770h-195v130h195v-130zM341 770h-195v130h195v-130z" />
    <glyph glyph-name="Ydieresis" unicode="&#x178;" horiz-adv-x="819" 
d="M327 0h-212l192 279l-273 421h216l167 -258l181 258h212zM661 770h-195v130h195v-130zM341 770h-195v130h195v-130z" />
    <glyph glyph-name="Amacron" unicode="&#x100;" horiz-adv-x="910" 
d="M904 0h-203l-56 117h-380l-56 -117h-203l336 700h227zM455 517l-124 -260h248zM240 800v98h429v-98h-429z" />
    <glyph glyph-name="Amacron" unicode="&#x101;" horiz-adv-x="910" 
d="M904 0h-203l-56 117h-380l-56 -117h-203l336 700h227zM455 517l-124 -260h248zM240 800v98h429v-98h-429z" />
    <glyph glyph-name="Abreve" unicode="&#x102;" horiz-adv-x="910" 
d="M904 0h-203l-56 117h-380l-56 -117h-203l336 700h227zM455 517l-124 -260h248zM388 900q0 -26 18 -40t49 -14q32 0 50.5 14t18.5 40h97q0 -62 -47 -99.5t-119 -37.5t-118.5 37.5t-46.5 99.5h98z" />
    <glyph glyph-name="Abreve" unicode="&#x103;" horiz-adv-x="910" 
d="M904 0h-203l-56 117h-380l-56 -117h-203l336 700h227zM455 517l-124 -260h248zM388 900q0 -26 18 -40t49 -14q32 0 50.5 14t18.5 40h97q0 -62 -47 -99.5t-119 -37.5t-118.5 37.5t-46.5 99.5h98z" />
    <glyph glyph-name="Aogonek" unicode="&#x104;" horiz-adv-x="910" 
d="M837.5 -114q36.5 -22 109.5 -22v-80q-89 0 -152.5 18t-96 48.5t-32.5 65.5q0 22 15.5 44.5t42.5 39.5h-23l-56 117h-380l-56 -117h-203l336 700h227l335 -700q-45 0 -74 -19.5t-29 -43.5q0 -29 36.5 -51zM455 517l-124 -260h248z" />
    <glyph glyph-name="Aogonek" unicode="&#x105;" horiz-adv-x="910" 
d="M837.5 -114q36.5 -22 109.5 -22v-80q-89 0 -152.5 18t-96 48.5t-32.5 65.5q0 22 15.5 44.5t42.5 39.5h-23l-56 117h-380l-56 -117h-203l336 700h227l335 -700q-45 0 -74 -19.5t-29 -43.5q0 -29 36.5 -51zM455 517l-124 -260h248z" />
    <glyph glyph-name="Cacute" unicode="&#x106;" horiz-adv-x="884" 
d="M89 542q59 83 160 128.5t222 45.5q134 0 234 -48.5t163 -141.5l-185 -62q-74 94 -212 94q-62 0 -116.5 -25.5t-87 -73t-32.5 -108.5q0 -62 33 -109.5t87 -73.5t116 -26q137 0 212 96l185 -63q-62 -93 -163 -142t-234 -49q-121 0 -222 46t-160 129.5t-59 191.5t59 191z
M441 900h169l-95 -120h-134z" />
    <glyph glyph-name="Cacute" unicode="&#x107;" horiz-adv-x="884" 
d="M89 542q59 83 160 128.5t222 45.5q134 0 234 -48.5t163 -141.5l-185 -62q-74 94 -212 94q-62 0 -116.5 -25.5t-87 -73t-32.5 -108.5q0 -62 33 -109.5t87 -73.5t116 -26q137 0 212 96l185 -63q-62 -93 -163 -142t-234 -49q-121 0 -222 46t-160 129.5t-59 191.5t59 191z
M441 900h169l-95 -120h-134z" />
    <glyph glyph-name="Ccircumflex" unicode="&#x108;" horiz-adv-x="884" 
d="M89 542q59 83 160 128.5t222 45.5q134 0 234 -48.5t163 -141.5l-185 -62q-74 94 -212 94q-62 0 -116.5 -25.5t-87 -73t-32.5 -108.5q0 -62 33 -109.5t87 -73.5t116 -26q137 0 212 96l185 -63q-62 -93 -163 -142t-234 -49q-121 0 -222 46t-160 129.5t-59 191.5t59 191z
M559 900l105 -120h-129l-64 82l-64 -82h-129l106 120h175z" />
    <glyph glyph-name="Ccircumflex" unicode="&#x109;" horiz-adv-x="884" 
d="M89 542q59 83 160 128.5t222 45.5q134 0 234 -48.5t163 -141.5l-185 -62q-74 94 -212 94q-62 0 -116.5 -25.5t-87 -73t-32.5 -108.5q0 -62 33 -109.5t87 -73.5t116 -26q137 0 212 96l185 -63q-62 -93 -163 -142t-234 -49q-121 0 -222 46t-160 129.5t-59 191.5t59 191z
M559 900l105 -120h-129l-64 82l-64 -82h-129l106 120h175z" />
    <glyph glyph-name="Cdotaccent" unicode="&#x10a;" horiz-adv-x="884" 
d="M89 542q59 83 160 128.5t222 45.5q134 0 234 -48.5t163 -141.5l-185 -62q-74 94 -212 94q-62 0 -116.5 -25.5t-87 -73t-32.5 -108.5q0 -62 33 -109.5t87 -73.5t116 -26q137 0 212 96l185 -63q-62 -93 -163 -142t-234 -49q-121 0 -222 46t-160 129.5t-59 191.5t59 191z
M572 771h-195v130h195v-130z" />
    <glyph glyph-name="Cdotaccent" unicode="&#x10b;" horiz-adv-x="884" 
d="M89 542q59 83 160 128.5t222 45.5q134 0 234 -48.5t163 -141.5l-185 -62q-74 94 -212 94q-62 0 -116.5 -25.5t-87 -73t-32.5 -108.5q0 -62 33 -109.5t87 -73.5t116 -26q137 0 212 96l185 -63q-62 -93 -163 -142t-234 -49q-121 0 -222 46t-160 129.5t-59 191.5t59 191z
M572 771h-195v130h195v-130z" />
    <glyph glyph-name="Ccaron" unicode="&#x10c;" horiz-adv-x="884" 
d="M89 542q59 83 160 128.5t222 45.5q134 0 234 -48.5t163 -141.5l-185 -62q-74 94 -212 94q-62 0 -116.5 -25.5t-87 -73t-32.5 -108.5q0 -62 33 -109.5t87 -73.5t116 -26q137 0 212 96l185 -63q-62 -93 -163 -142t-234 -49q-121 0 -222 46t-160 129.5t-59 191.5t59 191z
M472 819l63 81h130l-106 -120h-175l-105 120h129z" />
    <glyph glyph-name="Ccaron" unicode="&#x10d;" horiz-adv-x="884" 
d="M89 542q59 83 160 128.5t222 45.5q134 0 234 -48.5t163 -141.5l-185 -62q-74 94 -212 94q-62 0 -116.5 -25.5t-87 -73t-32.5 -108.5q0 -62 33 -109.5t87 -73.5t116 -26q137 0 212 96l185 -63q-62 -93 -163 -142t-234 -49q-121 0 -222 46t-160 129.5t-59 191.5t59 191z
M472 819l63 81h130l-106 -120h-175l-105 120h129z" />
    <glyph glyph-name="Dcaron" unicode="&#x10e;" horiz-adv-x="879" 
d="M40 0v700h397q121 0 215 -44.5t145.5 -124t51.5 -181.5t-51.5 -181.5t-145.5 -124t-215 -44.5h-397zM437 140q97 0 152 58t55 152t-55 152t-152 58h-207v-420h207zM377 819l63 81h130l-106 -120h-175l-105 120h129z" />
    <glyph glyph-name="Dcaron" unicode="&#x10f;" horiz-adv-x="879" 
d="M40 0v700h397q121 0 215 -44.5t145.5 -124t51.5 -181.5t-51.5 -181.5t-145.5 -124t-215 -44.5h-397zM437 140q97 0 152 58t55 152t-55 152t-152 58h-207v-420h207zM377 819l63 81h130l-106 -120h-175l-105 120h129z" />
    <glyph glyph-name="Dcroat" unicode="&#x110;" horiz-adv-x="935" 
d="M493 700q121 0 215 -44.5t145.5 -124t51.5 -181.5t-51.5 -181.5t-145.5 -124t-215 -44.5h-397v295h-76v110h76v295h397zM493 140q97 0 152 58t55 152t-55 152t-152 58h-207v-155h143v-110h-143v-155h207z" />
    <glyph glyph-name="Dcroat" unicode="&#x111;" horiz-adv-x="935" 
d="M493 700q121 0 215 -44.5t145.5 -124t51.5 -181.5t-51.5 -181.5t-145.5 -124t-215 -44.5h-397v295h-76v110h76v295h397zM493 140q97 0 152 58t55 152t-55 152t-152 58h-207v-155h143v-110h-143v-155h207z" />
    <glyph glyph-name="Emacron" unicode="&#x112;" horiz-adv-x="686" 
d="M647 0h-607v700h607v-140h-417v-140h373v-140h-373v-140h417v-140zM129 800v98h429v-98h-429z" />
    <glyph glyph-name="Emacron" unicode="&#x113;" horiz-adv-x="686" 
d="M647 0h-607v700h607v-140h-417v-140h373v-140h-373v-140h417v-140zM129 800v98h429v-98h-429z" />
    <glyph glyph-name="Ebreve" unicode="&#x114;" horiz-adv-x="686" 
d="M647 0h-607v700h607v-140h-417v-140h373v-140h-373v-140h417v-140zM277 900q0 -26 18 -40t49 -14q32 0 50.5 14t18.5 40h97q0 -62 -47 -99.5t-119 -37.5t-118.5 37.5t-46.5 99.5h98z" />
    <glyph glyph-name="Ebreve" unicode="&#x115;" horiz-adv-x="686" 
d="M647 0h-607v700h607v-140h-417v-140h373v-140h-373v-140h417v-140zM277 900q0 -26 18 -40t49 -14q32 0 50.5 14t18.5 40h97q0 -62 -47 -99.5t-119 -37.5t-118.5 37.5t-46.5 99.5h98z" />
    <glyph glyph-name="Edotaccent" unicode="&#x116;" horiz-adv-x="686" 
d="M647 0h-607v700h607v-140h-417v-140h373v-140h-373v-140h417v-140zM445 771h-195v130h195v-130z" />
    <glyph glyph-name="Edotaccent" unicode="&#x117;" horiz-adv-x="686" 
d="M647 0h-607v700h607v-140h-417v-140h373v-140h-373v-140h417v-140zM445 771h-195v130h195v-130z" />
    <glyph glyph-name="Eogonek" unicode="&#x118;" horiz-adv-x="686" 
d="M580.5 -114q36.5 -22 109.5 -22v-80q-89 0 -152.5 18t-96 48.5t-32.5 65.5q0 22 15.5 44.5t42.5 39.5h-427v700h607v-140h-417v-140h373v-140h-373v-140h417v-140q-45 0 -74 -19.5t-29 -43.5q0 -29 36.5 -51z" />
    <glyph glyph-name="Eogonek" unicode="&#x119;" horiz-adv-x="686" 
d="M580.5 -114q36.5 -22 109.5 -22v-80q-89 0 -152.5 18t-96 48.5t-32.5 65.5q0 22 15.5 44.5t42.5 39.5h-427v700h607v-140h-417v-140h373v-140h-373v-140h417v-140q-45 0 -74 -19.5t-29 -43.5q0 -29 36.5 -51z" />
    <glyph glyph-name="Ecaron" unicode="&#x11a;" horiz-adv-x="686" 
d="M647 0h-607v700h607v-140h-417v-140h373v-140h-373v-140h417v-140zM345 819l63 81h130l-106 -120h-175l-105 120h129z" />
    <glyph glyph-name="Ecaron" unicode="&#x11b;" horiz-adv-x="686" 
d="M647 0h-607v700h607v-140h-417v-140h373v-140h-373v-140h417v-140zM345 819l63 81h130l-106 -120h-175l-105 120h129z" />
    <glyph glyph-name="Gcircumflex" unicode="&#x11c;" horiz-adv-x="908" 
d="M389 408h489v-67q0 -108 -57 -189t-151 -124.5t-203 -43.5q-121 0 -220.5 46t-158 129.5t-58.5 191.5t60 191t162 128.5t223 45.5q122 0 217 -39.5t159 -107.5l-160 -91q-36 38 -91.5 60t-124.5 22q-63 0 -118.5 -25.5t-88.5 -73t-33 -110.5q0 -64 31.5 -111.5t84.5 -73
t116 -25.5q87 0 147.5 40.5t74.5 101.5h-300v125zM563 900l105 -120h-129l-64 82l-64 -82h-129l106 120h175z" />
    <glyph glyph-name="Gcircumflex" unicode="&#x11d;" horiz-adv-x="908" 
d="M389 408h489v-67q0 -108 -57 -189t-151 -124.5t-203 -43.5q-121 0 -220.5 46t-158 129.5t-58.5 191.5t60 191t162 128.5t223 45.5q122 0 217 -39.5t159 -107.5l-160 -91q-36 38 -91.5 60t-124.5 22q-63 0 -118.5 -25.5t-88.5 -73t-33 -110.5q0 -64 31.5 -111.5t84.5 -73
t116 -25.5q87 0 147.5 40.5t74.5 101.5h-300v125zM563 900l105 -120h-129l-64 82l-64 -82h-129l106 120h175z" />
    <glyph glyph-name="Gbreve" unicode="&#x11e;" horiz-adv-x="908" 
d="M389 408h489v-67q0 -108 -57 -189t-151 -124.5t-203 -43.5q-121 0 -220.5 46t-158 129.5t-58.5 191.5t60 191t162 128.5t223 45.5q122 0 217 -39.5t159 -107.5l-160 -91q-36 38 -91.5 60t-124.5 22q-63 0 -118.5 -25.5t-88.5 -73t-33 -110.5q0 -64 31.5 -111.5t84.5 -73
t116 -25.5q87 0 147.5 40.5t74.5 101.5h-300v125zM408 900q0 -26 18 -40t49 -14q32 0 50.5 14t18.5 40h97q0 -62 -47 -99.5t-119 -37.5t-118.5 37.5t-46.5 99.5h98z" />
    <glyph glyph-name="Gbreve" unicode="&#x11f;" horiz-adv-x="908" 
d="M389 408h489v-67q0 -108 -57 -189t-151 -124.5t-203 -43.5q-121 0 -220.5 46t-158 129.5t-58.5 191.5t60 191t162 128.5t223 45.5q122 0 217 -39.5t159 -107.5l-160 -91q-36 38 -91.5 60t-124.5 22q-63 0 -118.5 -25.5t-88.5 -73t-33 -110.5q0 -64 31.5 -111.5t84.5 -73
t116 -25.5q87 0 147.5 40.5t74.5 101.5h-300v125zM408 900q0 -26 18 -40t49 -14q32 0 50.5 14t18.5 40h97q0 -62 -47 -99.5t-119 -37.5t-118.5 37.5t-46.5 99.5h98z" />
    <glyph glyph-name="Gdotaccent" unicode="&#x120;" horiz-adv-x="908" 
d="M389 408h489v-67q0 -108 -57 -189t-151 -124.5t-203 -43.5q-121 0 -220.5 46t-158 129.5t-58.5 191.5t60 191t162 128.5t223 45.5q122 0 217 -39.5t159 -107.5l-160 -91q-36 38 -91.5 60t-124.5 22q-63 0 -118.5 -25.5t-88.5 -73t-33 -110.5q0 -64 31.5 -111.5t84.5 -73
t116 -25.5q87 0 147.5 40.5t74.5 101.5h-300v125zM575 771h-195v130h195v-130z" />
    <glyph glyph-name="Gdotaccent" unicode="&#x121;" horiz-adv-x="908" 
d="M389 408h489v-67q0 -108 -57 -189t-151 -124.5t-203 -43.5q-121 0 -220.5 46t-158 129.5t-58.5 191.5t60 191t162 128.5t223 45.5q122 0 217 -39.5t159 -107.5l-160 -91q-36 38 -91.5 60t-124.5 22q-63 0 -118.5 -25.5t-88.5 -73t-33 -110.5q0 -64 31.5 -111.5t84.5 -73
t116 -25.5q87 0 147.5 40.5t74.5 101.5h-300v125zM575 771h-195v130h195v-130z" />
    <glyph glyph-name="uni0122" unicode="&#x122;" horiz-adv-x="908" 
d="M389 408h489v-67q0 -108 -57 -189t-151 -124.5t-203 -43.5q-121 0 -220.5 46t-158 129.5t-58.5 191.5t60 191t162 128.5t223 45.5q122 0 217 -39.5t159 -107.5l-160 -91q-36 38 -91.5 60t-124.5 22q-63 0 -118.5 -25.5t-88.5 -73t-33 -110.5q0 -64 31.5 -111.5t84.5 -73
t116 -25.5q87 0 147.5 40.5t74.5 101.5h-300v125zM376 -200v130h195v-130l-117 -140h-128l115 140h-65z" />
    <glyph glyph-name="uni0122" unicode="&#x123;" horiz-adv-x="908" 
d="M389 408h489v-67q0 -108 -57 -189t-151 -124.5t-203 -43.5q-121 0 -220.5 46t-158 129.5t-58.5 191.5t60 191t162 128.5t223 45.5q122 0 217 -39.5t159 -107.5l-160 -91q-36 38 -91.5 60t-124.5 22q-63 0 -118.5 -25.5t-88.5 -73t-33 -110.5q0 -64 31.5 -111.5t84.5 -73
t116 -25.5q87 0 147.5 40.5t74.5 101.5h-300v125zM376 -200v130h195v-130l-117 -140h-128l115 140h-65z" />
    <glyph glyph-name="Hcircumflex" unicode="&#x124;" horiz-adv-x="867" 
d="M637 400v300h190v-700h-190v260h-407v-260h-190v700h190v-300h407zM522 900l105 -120h-129l-64 82l-64 -82h-129l106 120h175z" />
    <glyph glyph-name="Hcircumflex" unicode="&#x125;" horiz-adv-x="867" 
d="M637 400v300h190v-700h-190v260h-407v-260h-190v700h190v-300h407zM522 900l105 -120h-129l-64 82l-64 -82h-129l106 120h175z" />
    <glyph glyph-name="Hbar" unicode="&#x126;" horiz-adv-x="966" 
d="M877 609h69v-90h-69v-519h-190v260h-407v-260h-190v519h-70v90h70v91h190v-91h407v91h190v-91zM280 400h407v119h-407v-119z" />
    <glyph glyph-name="Hbar" unicode="&#x127;" horiz-adv-x="966" 
d="M877 609h69v-90h-69v-519h-190v260h-407v-260h-190v519h-70v90h70v91h190v-91h407v91h190v-91zM280 400h407v119h-407v-119z" />
    <glyph glyph-name="Itilde" unicode="&#x128;" horiz-adv-x="391" 
d="M101 0v700h190v-700h-190zM24 930q36 -26 78 -26q38 0 79 23q46 28 96 28q57 0 115 -38l-29 -90q-39 29 -80 29q-38 0 -80 -24q-48 -27 -97 -27q-55 0 -110 35z" />
    <glyph glyph-name="Itilde" unicode="&#x129;" horiz-adv-x="391" 
d="M101 0v700h190v-700h-190zM24 930q36 -26 78 -26q38 0 79 23q46 28 96 28q57 0 115 -38l-29 -90q-39 29 -80 29q-38 0 -80 -24q-48 -27 -97 -27q-55 0 -110 35z" />
    <glyph glyph-name="Imacron" unicode="&#x12a;" horiz-adv-x="391" 
d="M101 0v700h190v-700h-190zM-20 800v98h429v-98h-429z" />
    <glyph glyph-name="Imacron" unicode="&#x12b;" horiz-adv-x="391" 
d="M101 0v700h190v-700h-190zM-20 800v98h429v-98h-429z" />
    <glyph glyph-name="Ibreve" unicode="&#x12c;" horiz-adv-x="391" 
d="M101 0v700h190v-700h-190zM128 900q0 -26 18 -40t49 -14q32 0 50.5 14t18.5 40h97q0 -62 -47 -99.5t-119 -37.5t-118.5 37.5t-46.5 99.5h98z" />
    <glyph glyph-name="Ibreve" unicode="&#x12d;" horiz-adv-x="391" 
d="M101 0v700h190v-700h-190zM128 900q0 -26 18 -40t49 -14q32 0 50.5 14t18.5 40h97q0 -62 -47 -99.5t-119 -37.5t-118.5 37.5t-46.5 99.5h98z" />
    <glyph glyph-name="Iogonek" unicode="&#x12e;" horiz-adv-x="391" 
d="M226.5 -114q36.5 -22 109.5 -22v-80q-89 0 -152.5 18t-96 48.5t-32.5 65.5q0 22 15.5 44.5t42.5 39.5h-12v700h190v-698l2 -2q-45 0 -74 -19.5t-29 -43.5q0 -29 36.5 -51z" />
    <glyph glyph-name="Iogonek" unicode="&#x12f;" horiz-adv-x="391" 
d="M226.5 -114q36.5 -22 109.5 -22v-80q-89 0 -152.5 18t-96 48.5t-32.5 65.5q0 22 15.5 44.5t42.5 39.5h-12v700h190v-698l2 -2q-45 0 -74 -19.5t-29 -43.5q0 -29 36.5 -51z" />
    <glyph glyph-name="Idotaccent" unicode="&#x130;" horiz-adv-x="391" 
d="M101 0v700h190v-700h-190zM296 771h-195v130h195v-130z" />
    <glyph glyph-name="dotlessi" unicode="&#x131;" horiz-adv-x="391" 
d="M101 0v700h190v-700h-190z" />
    <glyph glyph-name="IJ" unicode="&#x132;" horiz-adv-x="1082" 
d="M101 0v700h190v-700h-190zM575 207q37 -76 142 -76q63 0 99 28.5t36 75.5v465h190v-466q0 -73 -41 -130t-116 -88.5t-173 -31.5q-135 0 -223 48.5t-122 129.5z" />
    <glyph glyph-name="IJ" unicode="&#x133;" horiz-adv-x="1082" 
d="M101 0v700h190v-700h-190zM575 207q37 -76 142 -76q63 0 99 28.5t36 75.5v465h190v-466q0 -73 -41 -130t-116 -88.5t-173 -31.5q-135 0 -223 48.5t-122 129.5z" />
    <glyph glyph-name="Jcircumflex" unicode="&#x134;" horiz-adv-x="704" 
d="M197 207q37 -76 142 -76q63 0 99 28.5t36 75.5v465h190v-466q0 -73 -41 -130t-116 -88.5t-173 -31.5q-135 0 -223 48.5t-122 129.5zM665 900l105 -120h-129l-64 82l-64 -82h-129l106 120h175z" />
    <glyph glyph-name="Jcircumflex" unicode="&#x135;" horiz-adv-x="704" 
d="M197 207q37 -76 142 -76q63 0 99 28.5t36 75.5v465h190v-466q0 -73 -41 -130t-116 -88.5t-173 -31.5q-135 0 -223 48.5t-122 129.5zM665 900l105 -120h-129l-64 82l-64 -82h-129l106 120h175z" />
    <glyph glyph-name="uni0136" unicode="&#x136;" horiz-adv-x="856" 
d="M862 700l-290 -343l300 -357h-241l-177 215l-187 -215h-227v700h190v-490l417 490h215zM324 -200v130h195v-130l-117 -140h-128l115 140h-65z" />
    <glyph glyph-name="uni0136" unicode="&#x137;" horiz-adv-x="856" 
d="M862 700l-290 -343l300 -357h-241l-177 215l-187 -215h-227v700h190v-490l417 490h215zM324 -200v130h195v-130l-117 -140h-128l115 140h-65z" />
    <glyph glyph-name="kgreenlandic" unicode="&#x138;" horiz-adv-x="611" 
d="M616 500l-207 -245l214 -255h-172l-127 154l-133 -154h-162v500h135v-349l298 349h154z" />
    <glyph glyph-name="Lacute" unicode="&#x139;" horiz-adv-x="683" 
d="M630 0h-590v700h190v-560h400v-140zM300 900h169l-95 -120h-134z" />
    <glyph glyph-name="Lacute" unicode="&#x13a;" horiz-adv-x="683" 
d="M630 0h-590v700h190v-560h400v-140zM300 900h169l-95 -120h-134z" />
    <glyph glyph-name="uni013B" unicode="&#x13b;" horiz-adv-x="683" 
d="M630 0h-590v700h190v-560h400v-140zM237 -200v130h195v-130l-117 -140h-128l115 140h-65z" />
    <glyph glyph-name="uni013B" unicode="&#x13c;" horiz-adv-x="683" 
d="M630 0h-590v700h190v-560h400v-140zM237 -200v130h195v-130l-117 -140h-128l115 140h-65z" />
    <glyph glyph-name="Lcaron" unicode="&#x13d;" horiz-adv-x="683" 
d="M630 0h-590v700h190v-560h400v-140zM414 571v130h195v-130l-117 -140h-128l115 140h-65z" />
    <glyph glyph-name="Lcaron" unicode="&#x13e;" horiz-adv-x="683" 
d="M630 0h-590v700h190v-560h400v-140zM414 571v130h195v-130l-117 -140h-128l115 140h-65z" />
    <glyph glyph-name="Ldot" unicode="&#x13f;" horiz-adv-x="683" 
d="M630 0h-590v700h190v-560h400v-140zM557 379h-195v130h195v-130z" />
    <glyph glyph-name="Ldot" unicode="&#x140;" horiz-adv-x="683" 
d="M630 0h-590v700h190v-560h400v-140zM557 379h-195v130h195v-130z" />
    <glyph glyph-name="Lslash" unicode="&#x141;" horiz-adv-x="806" 
d="M353 317v-177h400v-140h-590v164l-64 -52l-80 93l144 116v379h190v-225l111 90l80 -93z" />
    <glyph glyph-name="Lslash" unicode="&#x142;" horiz-adv-x="806" 
d="M353 317v-177h400v-140h-590v164l-64 -52l-80 93l144 116v379h190v-225l111 90l80 -93z" />
    <glyph glyph-name="Nacute" unicode="&#x143;" horiz-adv-x="901" 
d="M671 243v457h190v-700h-179l-452 462v-462h-190v700h179zM425 900h169l-95 -120h-134z" />
    <glyph glyph-name="Nacute" unicode="&#x144;" horiz-adv-x="901" 
d="M671 243v457h190v-700h-179l-452 462v-462h-190v700h179zM425 900h169l-95 -120h-134z" />
    <glyph glyph-name="uni0145" unicode="&#x145;" horiz-adv-x="901" 
d="M671 243v457h190v-700h-179l-452 462v-462h-190v700h179zM362 -200v130h195v-130l-117 -140h-128l115 140h-65z" />
    <glyph glyph-name="uni0145" unicode="&#x146;" horiz-adv-x="901" 
d="M671 243v457h190v-700h-179l-452 462v-462h-190v700h179zM362 -200v130h195v-130l-117 -140h-128l115 140h-65z" />
    <glyph glyph-name="Ncaron" unicode="&#x147;" horiz-adv-x="901" 
d="M671 243v457h190v-700h-179l-452 462v-462h-190v700h179zM456 819l63 81h130l-106 -120h-175l-105 120h129z" />
    <glyph glyph-name="Ncaron" unicode="&#x148;" horiz-adv-x="901" 
d="M671 243v457h190v-700h-179l-452 462v-462h-190v700h179zM456 819l63 81h130l-106 -120h-175l-105 120h129z" />
    <glyph glyph-name="Eng" unicode="&#x14a;" horiz-adv-x="901" 
d="M671 700h190v-743q0 -87 -57.5 -130t-186.5 -43v98q48 0 72.5 15.5t24.5 39.5q0 16 -7 29.5t-25 33.5l-452 462v-462h-190v700h179l452 -457v457z" />
    <glyph glyph-name="Eng" unicode="&#x14b;" horiz-adv-x="901" 
d="M671 700h190v-743q0 -87 -57.5 -130t-186.5 -43v98q48 0 72.5 15.5t24.5 39.5q0 16 -7 29.5t-25 33.5l-452 462v-462h-190v700h179l452 -457v457z" />
    <glyph glyph-name="Omacron" unicode="&#x14c;" horiz-adv-x="952" 
d="M245.5 31q-101.5 47 -158.5 130t-57 189t57 189t158.5 130t230.5 47q130 0 231.5 -47t158 -130t56.5 -189t-56.5 -189t-158 -130t-231.5 -47q-129 0 -230.5 47zM597.5 167.5q55.5 26.5 87.5 74t32 108.5t-32 109t-87.5 74.5t-121.5 26.5t-121.5 -26.5t-87.5 -74.5
t-32 -109t32 -108.5t87.5 -74t121.5 -26.5t121.5 26.5zM261 800v98h429v-98h-429z" />
    <glyph glyph-name="Omacron" unicode="&#x14d;" horiz-adv-x="952" 
d="M245.5 31q-101.5 47 -158.5 130t-57 189t57 189t158.5 130t230.5 47q130 0 231.5 -47t158 -130t56.5 -189t-56.5 -189t-158 -130t-231.5 -47q-129 0 -230.5 47zM597.5 167.5q55.5 26.5 87.5 74t32 108.5t-32 109t-87.5 74.5t-121.5 26.5t-121.5 -26.5t-87.5 -74.5
t-32 -109t32 -108.5t87.5 -74t121.5 -26.5t121.5 26.5zM261 800v98h429v-98h-429z" />
    <glyph glyph-name="Obreve" unicode="&#x14e;" horiz-adv-x="952" 
d="M245.5 31q-101.5 47 -158.5 130t-57 189t57 189t158.5 130t230.5 47q130 0 231.5 -47t158 -130t56.5 -189t-56.5 -189t-158 -130t-231.5 -47q-129 0 -230.5 47zM597.5 167.5q55.5 26.5 87.5 74t32 108.5t-32 109t-87.5 74.5t-121.5 26.5t-121.5 -26.5t-87.5 -74.5
t-32 -109t32 -108.5t87.5 -74t121.5 -26.5t121.5 26.5zM409 900q0 -26 18 -40t49 -14q32 0 50.5 14t18.5 40h97q0 -62 -47 -99.5t-119 -37.5t-118.5 37.5t-46.5 99.5h98z" />
    <glyph glyph-name="Obreve" unicode="&#x14f;" horiz-adv-x="952" 
d="M245.5 31q-101.5 47 -158.5 130t-57 189t57 189t158.5 130t230.5 47q130 0 231.5 -47t158 -130t56.5 -189t-56.5 -189t-158 -130t-231.5 -47q-129 0 -230.5 47zM597.5 167.5q55.5 26.5 87.5 74t32 108.5t-32 109t-87.5 74.5t-121.5 26.5t-121.5 -26.5t-87.5 -74.5
t-32 -109t32 -108.5t87.5 -74t121.5 -26.5t121.5 26.5zM409 900q0 -26 18 -40t49 -14q32 0 50.5 14t18.5 40h97q0 -62 -47 -99.5t-119 -37.5t-118.5 37.5t-46.5 99.5h98z" />
    <glyph glyph-name="Ohungarumlaut" unicode="&#x150;" horiz-adv-x="952" 
d="M245.5 31q-101.5 47 -158.5 130t-57 189t57 189t158.5 130t230.5 47q130 0 231.5 -47t158 -130t56.5 -189t-56.5 -189t-158 -130t-231.5 -47q-129 0 -230.5 47zM597.5 167.5q55.5 26.5 87.5 74t32 108.5t-32 109t-87.5 74.5t-121.5 26.5t-121.5 -26.5t-87.5 -74.5
t-32 -109t32 -108.5t87.5 -74t121.5 -26.5t121.5 26.5zM319 900h169l-95 -120h-134zM555 900h169l-95 -120h-134z" />
    <glyph glyph-name="Ohungarumlaut" unicode="&#x151;" horiz-adv-x="952" 
d="M245.5 31q-101.5 47 -158.5 130t-57 189t57 189t158.5 130t230.5 47q130 0 231.5 -47t158 -130t56.5 -189t-56.5 -189t-158 -130t-231.5 -47q-129 0 -230.5 47zM597.5 167.5q55.5 26.5 87.5 74t32 108.5t-32 109t-87.5 74.5t-121.5 26.5t-121.5 -26.5t-87.5 -74.5
t-32 -109t32 -108.5t87.5 -74t121.5 -26.5t121.5 26.5zM319 900h169l-95 -120h-134zM555 900h169l-95 -120h-134z" />
    <glyph glyph-name="OE" unicode="&#x152;" horiz-adv-x="1390" 
d="M1351 560h-417v-140h373v-140h-373v-140h417v-140h-607v50q-115 -66 -268 -66q-129 0 -230.5 47t-158.5 130t-57 189t57 189t158.5 130t230.5 47q153 0 268 -66v50h607v-140zM597.5 167.5q55.5 26.5 87.5 74t32 108.5t-32 109t-87.5 74.5t-121.5 26.5t-121.5 -26.5
t-87.5 -74.5t-32 -109t32 -108.5t87.5 -74t121.5 -26.5t121.5 26.5z" />
    <glyph glyph-name="OE" unicode="&#x153;" horiz-adv-x="1390" 
d="M1351 560h-417v-140h373v-140h-373v-140h417v-140h-607v50q-115 -66 -268 -66q-129 0 -230.5 47t-158.5 130t-57 189t57 189t158.5 130t230.5 47q153 0 268 -66v50h607v-140zM597.5 167.5q55.5 26.5 87.5 74t32 108.5t-32 109t-87.5 74.5t-121.5 26.5t-121.5 -26.5
t-87.5 -74.5t-32 -109t32 -108.5t87.5 -74t121.5 -26.5t121.5 26.5z" />
    <glyph glyph-name="Racute" unicode="&#x154;" horiz-adv-x="800" 
d="M738.5 327q-36.5 -54 -101.5 -88l131 -239h-209l-104 194h-20h-205v-194h-190v700h395q96 0 173.5 -32t122 -89t44.5 -131q0 -67 -36.5 -121zM230 560v-226h205q60 0 97.5 31.5t37.5 82.5t-37.5 81.5t-97.5 30.5h-205zM365 900h169l-95 -120h-134z" />
    <glyph glyph-name="Racute" unicode="&#x155;" horiz-adv-x="800" 
d="M738.5 327q-36.5 -54 -101.5 -88l131 -239h-209l-104 194h-20h-205v-194h-190v700h395q96 0 173.5 -32t122 -89t44.5 -131q0 -67 -36.5 -121zM230 560v-226h205q60 0 97.5 31.5t37.5 82.5t-37.5 81.5t-97.5 30.5h-205zM365 900h169l-95 -120h-134z" />
    <glyph glyph-name="uni0156" unicode="&#x156;" horiz-adv-x="800" 
d="M738.5 327q-36.5 -54 -101.5 -88l131 -239h-209l-104 194h-20h-205v-194h-190v700h395q96 0 173.5 -32t122 -89t44.5 -131q0 -67 -36.5 -121zM230 560v-226h205q60 0 97.5 31.5t37.5 82.5t-37.5 81.5t-97.5 30.5h-205zM332 -200v130h195v-130l-117 -140h-128l115 140h-65
z" />
    <glyph glyph-name="uni0156" unicode="&#x157;" horiz-adv-x="800" 
d="M738.5 327q-36.5 -54 -101.5 -88l131 -239h-209l-104 194h-20h-205v-194h-190v700h395q96 0 173.5 -32t122 -89t44.5 -131q0 -67 -36.5 -121zM230 560v-226h205q60 0 97.5 31.5t37.5 82.5t-37.5 81.5t-97.5 30.5h-205zM332 -200v130h195v-130l-117 -140h-128l115 140h-65
z" />
    <glyph glyph-name="Rcaron" unicode="&#x158;" horiz-adv-x="800" 
d="M738.5 327q-36.5 -54 -101.5 -88l131 -239h-209l-104 194h-20h-205v-194h-190v700h395q96 0 173.5 -32t122 -89t44.5 -131q0 -67 -36.5 -121zM230 560v-226h205q60 0 97.5 31.5t37.5 82.5t-37.5 81.5t-97.5 30.5h-205zM396 819l63 81h130l-106 -120h-175l-105 120h129z
" />
    <glyph glyph-name="Rcaron" unicode="&#x159;" horiz-adv-x="800" 
d="M738.5 327q-36.5 -54 -101.5 -88l131 -239h-209l-104 194h-20h-205v-194h-190v700h395q96 0 173.5 -32t122 -89t44.5 -131q0 -67 -36.5 -121zM230 560v-226h205q60 0 97.5 31.5t37.5 82.5t-37.5 81.5t-97.5 30.5h-205zM396 819l63 81h130l-106 -120h-175l-105 120h129z
" />
    <glyph glyph-name="Sacute" unicode="&#x15a;" horiz-adv-x="763" 
d="M196.5 2q-87.5 18 -157.5 48l48 154q76 -30 150 -46.5t136 -16.5q71 0 113 19t42 52q0 26 -21.5 40t-62.5 20l-176 26q-99 15 -161 67.5t-62 131.5q0 66 52.5 116t138.5 76.5t183 26.5q80 0 163.5 -15.5t139.5 -37.5l-50 -155q-137 52 -253 52q-165 0 -165 -63
q0 -25 23.5 -41.5t64.5 -23.5l161 -24q108 -16 168 -65.5t60 -130.5q0 -69 -51 -120.5t-133.5 -79.5t-173.5 -28q-89 0 -176.5 18zM388 900h169l-95 -120h-134z" />
    <glyph glyph-name="Sacute" unicode="&#x15b;" horiz-adv-x="763" 
d="M196.5 2q-87.5 18 -157.5 48l48 154q76 -30 150 -46.5t136 -16.5q71 0 113 19t42 52q0 26 -21.5 40t-62.5 20l-176 26q-99 15 -161 67.5t-62 131.5q0 66 52.5 116t138.5 76.5t183 26.5q80 0 163.5 -15.5t139.5 -37.5l-50 -155q-137 52 -253 52q-165 0 -165 -63
q0 -25 23.5 -41.5t64.5 -23.5l161 -24q108 -16 168 -65.5t60 -130.5q0 -69 -51 -120.5t-133.5 -79.5t-173.5 -28q-89 0 -176.5 18zM388 900h169l-95 -120h-134z" />
    <glyph glyph-name="Scircumflex" unicode="&#x15c;" horiz-adv-x="763" 
d="M196.5 2q-87.5 18 -157.5 48l48 154q76 -30 150 -46.5t136 -16.5q71 0 113 19t42 52q0 26 -21.5 40t-62.5 20l-176 26q-99 15 -161 67.5t-62 131.5q0 66 52.5 116t138.5 76.5t183 26.5q80 0 163.5 -15.5t139.5 -37.5l-50 -155q-137 52 -253 52q-165 0 -165 -63
q0 -25 23.5 -41.5t64.5 -23.5l161 -24q108 -16 168 -65.5t60 -130.5q0 -69 -51 -120.5t-133.5 -79.5t-173.5 -28q-89 0 -176.5 18zM507 900l105 -120h-129l-64 82l-64 -82h-129l106 120h175z" />
    <glyph glyph-name="Scircumflex" unicode="&#x15d;" horiz-adv-x="763" 
d="M196.5 2q-87.5 18 -157.5 48l48 154q76 -30 150 -46.5t136 -16.5q71 0 113 19t42 52q0 26 -21.5 40t-62.5 20l-176 26q-99 15 -161 67.5t-62 131.5q0 66 52.5 116t138.5 76.5t183 26.5q80 0 163.5 -15.5t139.5 -37.5l-50 -155q-137 52 -253 52q-165 0 -165 -63
q0 -25 23.5 -41.5t64.5 -23.5l161 -24q108 -16 168 -65.5t60 -130.5q0 -69 -51 -120.5t-133.5 -79.5t-173.5 -28q-89 0 -176.5 18zM507 900l105 -120h-129l-64 82l-64 -82h-129l106 120h175z" />
    <glyph glyph-name="Scedilla" unicode="&#x15e;" horiz-adv-x="763" 
d="M328 -15v-41q160 0 160 -68q0 -40 -46.5 -66t-112.5 -26q-49 0 -82.5 7t-69.5 20l24 65q67 -23 128 -23q34 0 49 5.5t15 17.5t-15 18t-50 6h-50v89q-130 15 -239 61l48 154q76 -30 150 -46.5t136 -16.5q71 0 113 19t42 52q0 26 -21.5 40t-62.5 20l-176 26
q-99 15 -161 67.5t-62 131.5q0 66 52.5 116t138.5 76.5t183 26.5q80 0 163.5 -15.5t139.5 -37.5l-50 -155q-137 52 -253 52q-165 0 -165 -63q0 -25 23.5 -41.5t64.5 -23.5l161 -24q108 -16 168 -65.5t60 -130.5q0 -69 -51 -120.5t-133.5 -79.5t-173.5 -28q-30 0 -45 1z" />
    <glyph glyph-name="Scedilla" unicode="&#x15f;" horiz-adv-x="763" 
d="M328 -15v-41q160 0 160 -68q0 -40 -46.5 -66t-112.5 -26q-49 0 -82.5 7t-69.5 20l24 65q67 -23 128 -23q34 0 49 5.5t15 17.5t-15 18t-50 6h-50v89q-130 15 -239 61l48 154q76 -30 150 -46.5t136 -16.5q71 0 113 19t42 52q0 26 -21.5 40t-62.5 20l-176 26
q-99 15 -161 67.5t-62 131.5q0 66 52.5 116t138.5 76.5t183 26.5q80 0 163.5 -15.5t139.5 -37.5l-50 -155q-137 52 -253 52q-165 0 -165 -63q0 -25 23.5 -41.5t64.5 -23.5l161 -24q108 -16 168 -65.5t60 -130.5q0 -69 -51 -120.5t-133.5 -79.5t-173.5 -28q-30 0 -45 1z" />
    <glyph glyph-name="Scaron" unicode="&#x160;" horiz-adv-x="763" 
d="M196.5 2q-87.5 18 -157.5 48l48 154q76 -30 150 -46.5t136 -16.5q71 0 113 19t42 52q0 26 -21.5 40t-62.5 20l-176 26q-99 15 -161 67.5t-62 131.5q0 66 52.5 116t138.5 76.5t183 26.5q80 0 163.5 -15.5t139.5 -37.5l-50 -155q-137 52 -253 52q-165 0 -165 -63
q0 -25 23.5 -41.5t64.5 -23.5l161 -24q108 -16 168 -65.5t60 -130.5q0 -69 -51 -120.5t-133.5 -79.5t-173.5 -28q-89 0 -176.5 18zM419 819l63 81h130l-106 -120h-175l-105 120h129z" />
    <glyph glyph-name="Scaron" unicode="&#x161;" horiz-adv-x="763" 
d="M196.5 2q-87.5 18 -157.5 48l48 154q76 -30 150 -46.5t136 -16.5q71 0 113 19t42 52q0 26 -21.5 40t-62.5 20l-176 26q-99 15 -161 67.5t-62 131.5q0 66 52.5 116t138.5 76.5t183 26.5q80 0 163.5 -15.5t139.5 -37.5l-50 -155q-137 52 -253 52q-165 0 -165 -63
q0 -25 23.5 -41.5t64.5 -23.5l161 -24q108 -16 168 -65.5t60 -130.5q0 -69 -51 -120.5t-133.5 -79.5t-173.5 -28q-89 0 -176.5 18zM419 819l63 81h130l-106 -120h-175l-105 120h129z" />
    <glyph glyph-name="uni0162" unicode="&#x162;" horiz-adv-x="756" 
d="M474 0h-190v560h-273v140h735v-140h-272v-560zM334 -56q160 0 160 -68q0 -40 -46.5 -66t-112.5 -26q-49 0 -82.5 7t-69.5 20l24 65q67 -23 128 -23q34 0 49 5.5t15 17.5t-15 18t-50 6h-50v100h50v-56z" />
    <glyph glyph-name="uni0162" unicode="&#x163;" horiz-adv-x="756" 
d="M474 0h-190v560h-273v140h735v-140h-272v-560zM334 -56q160 0 160 -68q0 -40 -46.5 -66t-112.5 -26q-49 0 -82.5 7t-69.5 20l24 65q67 -23 128 -23q34 0 49 5.5t15 17.5t-15 18t-50 6h-50v100h50v-56z" />
    <glyph glyph-name="Tcaron" unicode="&#x164;" horiz-adv-x="756" 
d="M474 0h-190v560h-273v140h735v-140h-272v-560zM379 819l63 81h130l-106 -120h-175l-105 120h129z" />
    <glyph glyph-name="Tcaron" unicode="&#x165;" horiz-adv-x="756" 
d="M474 0h-190v560h-273v140h735v-140h-272v-560zM379 819l63 81h130l-106 -120h-175l-105 120h129z" />
    <glyph glyph-name="Tbar" unicode="&#x166;" horiz-adv-x="751" 
d="M746 700v-140h-272v-178h99v-111h-99v-271h-190v271h-100v111h100v178h-273v140h735z" />
    <glyph glyph-name="Tbar" unicode="&#x167;" horiz-adv-x="751" 
d="M746 700v-140h-272v-178h99v-111h-99v-271h-190v271h-100v111h100v178h-273v140h735z" />
    <glyph glyph-name="Utilde" unicode="&#x168;" horiz-adv-x="849" 
d="M40 700h190v-402q0 -72 54 -114.5t140 -42.5q87 0 141.5 42.5t54.5 114.5l-1 402h190v-402q0 -90 -52 -162t-140.5 -112t-192.5 -40t-192 40t-140 112t-52 162v402zM253 930q36 -26 78 -26q38 0 79 23q46 28 96 28q57 0 115 -38l-29 -90q-39 29 -80 29q-38 0 -80 -24
q-48 -27 -97 -27q-55 0 -110 35z" />
    <glyph glyph-name="Utilde" unicode="&#x169;" horiz-adv-x="849" 
d="M40 700h190v-402q0 -72 54 -114.5t140 -42.5q87 0 141.5 42.5t54.5 114.5l-1 402h190v-402q0 -90 -52 -162t-140.5 -112t-192.5 -40t-192 40t-140 112t-52 162v402zM253 930q36 -26 78 -26q38 0 79 23q46 28 96 28q57 0 115 -38l-29 -90q-39 29 -80 29q-38 0 -80 -24
q-48 -27 -97 -27q-55 0 -110 35z" />
    <glyph glyph-name="Umacron" unicode="&#x16a;" horiz-adv-x="849" 
d="M40 700h190v-402q0 -72 54 -114.5t140 -42.5q87 0 141.5 42.5t54.5 114.5l-1 402h190v-402q0 -90 -52 -162t-140.5 -112t-192.5 -40t-192 40t-140 112t-52 162v402zM209 800v98h429v-98h-429z" />
    <glyph glyph-name="Umacron" unicode="&#x16b;" horiz-adv-x="849" 
d="M40 700h190v-402q0 -72 54 -114.5t140 -42.5q87 0 141.5 42.5t54.5 114.5l-1 402h190v-402q0 -90 -52 -162t-140.5 -112t-192.5 -40t-192 40t-140 112t-52 162v402zM209 800v98h429v-98h-429z" />
    <glyph glyph-name="Ubreve" unicode="&#x16c;" horiz-adv-x="849" 
d="M40 700h190v-402q0 -72 54 -114.5t140 -42.5q87 0 141.5 42.5t54.5 114.5l-1 402h190v-402q0 -90 -52 -162t-140.5 -112t-192.5 -40t-192 40t-140 112t-52 162v402zM357 900q0 -26 18 -40t49 -14q32 0 50.5 14t18.5 40h97q0 -62 -47 -99.5t-119 -37.5t-118.5 37.5
t-46.5 99.5h98z" />
    <glyph glyph-name="Ubreve" unicode="&#x16d;" horiz-adv-x="849" 
d="M40 700h190v-402q0 -72 54 -114.5t140 -42.5q87 0 141.5 42.5t54.5 114.5l-1 402h190v-402q0 -90 -52 -162t-140.5 -112t-192.5 -40t-192 40t-140 112t-52 162v402zM357 900q0 -26 18 -40t49 -14q32 0 50.5 14t18.5 40h97q0 -62 -47 -99.5t-119 -37.5t-118.5 37.5
t-46.5 99.5h98z" />
    <glyph glyph-name="Uring" unicode="&#x16e;" horiz-adv-x="849" 
d="M40 700h190v-402q0 -72 54 -114.5t140 -42.5q87 0 141.5 42.5t54.5 114.5l-1 402h190v-402q0 -90 -52 -162t-140.5 -112t-192.5 -40t-192 40t-140 112t-52 162v402zM329 773q-40 25 -40 60q0 34 40 58.5t96 24.5t95.5 -24.5t39.5 -58.5q0 -35 -39.5 -60t-95.5 -25t-96 25
zM460 811q14 9 14 22t-14.5 21.5t-34.5 8.5q-21 0 -35.5 -8.5t-14.5 -21.5t14.5 -22t35.5 -9t35 9z" />
    <glyph glyph-name="Uring" unicode="&#x16f;" horiz-adv-x="849" 
d="M40 700h190v-402q0 -72 54 -114.5t140 -42.5q87 0 141.5 42.5t54.5 114.5l-1 402h190v-402q0 -90 -52 -162t-140.5 -112t-192.5 -40t-192 40t-140 112t-52 162v402zM329 773q-40 25 -40 60q0 34 40 58.5t96 24.5t95.5 -24.5t39.5 -58.5q0 -35 -39.5 -60t-95.5 -25t-96 25
zM460 811q14 9 14 22t-14.5 21.5t-34.5 8.5q-21 0 -35.5 -8.5t-14.5 -21.5t14.5 -22t35.5 -9t35 9z" />
    <glyph glyph-name="Uhungarumlaut" unicode="&#x170;" horiz-adv-x="849" 
d="M40 700h190v-402q0 -72 54 -114.5t140 -42.5q87 0 141.5 42.5t54.5 114.5l-1 402h190v-402q0 -90 -52 -162t-140.5 -112t-192.5 -40t-192 40t-140 112t-52 162v402zM267 900h169l-95 -120h-134zM503 900h169l-95 -120h-134z" />
    <glyph glyph-name="Uhungarumlaut" unicode="&#x171;" horiz-adv-x="849" 
d="M40 700h190v-402q0 -72 54 -114.5t140 -42.5q87 0 141.5 42.5t54.5 114.5l-1 402h190v-402q0 -90 -52 -162t-140.5 -112t-192.5 -40t-192 40t-140 112t-52 162v402zM267 900h169l-95 -120h-134zM503 900h169l-95 -120h-134z" />
    <glyph glyph-name="Uogonek" unicode="&#x172;" horiz-adv-x="849" 
d="M619 700h190v-402q0 -90 -52 -162t-140.5 -112t-192.5 -40q-45 0 -74 -19.5t-29 -43.5q0 -29 36.5 -51t109.5 -22v-80q-89 0 -152.5 18t-96 48.5t-32.5 65.5q0 30 27 59t73 45q-110 33 -178 111.5t-68 182.5v402h190v-402q0 -72 54 -114.5t140 -42.5q87 0 141.5 42.5
t54.5 114.5z" />
    <glyph glyph-name="Uogonek" unicode="&#x173;" horiz-adv-x="849" 
d="M619 700h190v-402q0 -90 -52 -162t-140.5 -112t-192.5 -40q-45 0 -74 -19.5t-29 -43.5q0 -29 36.5 -51t109.5 -22v-80q-89 0 -152.5 18t-96 48.5t-32.5 65.5q0 30 27 59t73 45q-110 33 -178 111.5t-68 182.5v402h190v-402q0 -72 54 -114.5t140 -42.5q87 0 141.5 42.5
t54.5 114.5z" />
    <glyph glyph-name="Wcircumflex" unicode="&#x174;" horiz-adv-x="1216" 
d="M850 280l176 420h203l-289 -700h-163l-173 470l-173 -470h-163l-281 700h203l168 -418l155 418h182zM707 900l105 -120h-129l-64 82l-64 -82h-129l106 120h175z" />
    <glyph glyph-name="Wcircumflex" unicode="&#x175;" horiz-adv-x="1216" 
d="M850 280l176 420h203l-289 -700h-163l-173 470l-173 -470h-163l-281 700h203l168 -418l155 418h182zM707 900l105 -120h-129l-64 82l-64 -82h-129l106 120h175z" />
    <glyph glyph-name="Ycircumflex" unicode="&#x176;" horiz-adv-x="819" 
d="M327 0h-212l192 279l-273 421h216l167 -258l181 258h212zM492 900l105 -120h-129l-64 82l-64 -82h-129l106 120h175z" />
    <glyph glyph-name="Ycircumflex" unicode="&#x177;" horiz-adv-x="819" 
d="M327 0h-212l192 279l-273 421h216l167 -258l181 258h212zM492 900l105 -120h-129l-64 82l-64 -82h-129l106 120h175z" />
    <glyph glyph-name="Zacute" unicode="&#x179;" horiz-adv-x="731" 
d="M40 700h651v-165l-441 -395h441v-140h-651v162l443 398h-443v140zM336 900h169l-95 -120h-134z" />
    <glyph glyph-name="Zacute" unicode="&#x17a;" horiz-adv-x="731" 
d="M40 700h651v-165l-441 -395h441v-140h-651v162l443 398h-443v140zM336 900h169l-95 -120h-134z" />
    <glyph glyph-name="Zdotaccent" unicode="&#x17b;" horiz-adv-x="731" 
d="M40 700h651v-165l-441 -395h441v-140h-651v162l443 398h-443v140zM467 771h-195v130h195v-130z" />
    <glyph glyph-name="Zdotaccent" unicode="&#x17c;" horiz-adv-x="731" 
d="M40 700h651v-165l-441 -395h441v-140h-651v162l443 398h-443v140zM467 771h-195v130h195v-130z" />
    <glyph glyph-name="Zcaron" unicode="&#x17d;" horiz-adv-x="731" 
d="M40 700h651v-165l-441 -395h441v-140h-651v162l443 398h-443v140zM367 819l63 81h130l-106 -120h-175l-105 120h129z" />
    <glyph glyph-name="Zcaron" unicode="&#x17e;" horiz-adv-x="731" 
d="M40 700h651v-165l-441 -395h441v-140h-651v162l443 398h-443v140zM367 819l63 81h130l-106 -120h-175l-105 120h129z" />
    <glyph glyph-name="longs" unicode="&#x17f;" horiz-adv-x="666" 
d="M470 493q-39 76 -143 76q-63 0 -98.5 -28.5t-35.5 -74.5v-466h-190v467q0 73 41 129.5t115.5 88t172.5 31.5q135 0 223 -48t122 -129z" />
    <glyph glyph-name="Ohorn" unicode="&#x1a0;" horiz-adv-x="952" 
d="M874.5 525q47.5 -78 47.5 -175q0 -106 -56.5 -189t-158 -130t-231.5 -47q-129 0 -230.5 47t-158.5 130t-57 189t57 189t158.5 130t230.5 47q73 0 137 -15q98 9 98 101l107 -7q0 -98 -77 -143q86 -49 133.5 -127zM597.5 167.5q55.5 26.5 87.5 74t32 108.5t-32 109
t-87.5 74.5t-121.5 26.5t-121.5 -26.5t-87.5 -74.5t-32 -109t32 -108.5t87.5 -74t121.5 -26.5t121.5 26.5z" />
    <glyph glyph-name="Ohorn" unicode="&#x1a1;" horiz-adv-x="952" 
d="M874.5 525q47.5 -78 47.5 -175q0 -106 -56.5 -189t-158 -130t-231.5 -47q-129 0 -230.5 47t-158.5 130t-57 189t57 189t158.5 130t230.5 47q73 0 137 -15q98 9 98 101l107 -7q0 -98 -77 -143q86 -49 133.5 -127zM597.5 167.5q55.5 26.5 87.5 74t32 108.5t-32 109
t-87.5 74.5t-121.5 26.5t-121.5 -26.5t-87.5 -74.5t-32 -109t32 -108.5t87.5 -74t121.5 -26.5t121.5 26.5z" />
    <glyph glyph-name="Uhorn" unicode="&#x1af;" horiz-adv-x="849" 
d="M40 700h190v-402q0 -72 54 -114.5t140 -42.5q87 0 141.5 42.5t54.5 114.5l-1 402h190v-402q0 -90 -52 -162t-140.5 -112t-192.5 -40t-192 40t-140 112t-52 162v402zM1037 795q0 -86 -58.5 -131t-169.5 -45v81q121 0 121 102z" />
    <glyph glyph-name="Uhorn" unicode="&#x1b0;" horiz-adv-x="849" 
d="M40 700h190v-402q0 -72 54 -114.5t140 -42.5q87 0 141.5 42.5t54.5 114.5l-1 402h190v-402q0 -90 -52 -162t-140.5 -112t-192.5 -40t-192 40t-140 112t-52 162v402zM1037 795q0 -86 -58.5 -131t-169.5 -45v81q121 0 121 102z" />
    <glyph glyph-name="uni01CD" unicode="&#x1cd;" horiz-adv-x="910" 
d="M904 0h-203l-56 117h-380l-56 -117h-203l336 700h227zM455 517l-124 -260h248zM455 819l63 81h130l-106 -120h-175l-105 120h129z" />
    <glyph glyph-name="uni01CD" unicode="&#x1ce;" horiz-adv-x="910" 
d="M904 0h-203l-56 117h-380l-56 -117h-203l336 700h227zM455 517l-124 -260h248zM455 819l63 81h130l-106 -120h-175l-105 120h129z" />
    <glyph glyph-name="uni01CF" unicode="&#x1cf;" horiz-adv-x="391" 
d="M101 0v700h190v-700h-190zM195 819l63 81h130l-106 -120h-175l-105 120h129z" />
    <glyph glyph-name="uni01CF" unicode="&#x1d0;" horiz-adv-x="391" 
d="M101 0v700h190v-700h-190zM195 819l63 81h130l-106 -120h-175l-105 120h129z" />
    <glyph glyph-name="uni01D1" unicode="&#x1d1;" horiz-adv-x="952" 
d="M245.5 31q-101.5 47 -158.5 130t-57 189t57 189t158.5 130t230.5 47q130 0 231.5 -47t158 -130t56.5 -189t-56.5 -189t-158 -130t-231.5 -47q-129 0 -230.5 47zM597.5 167.5q55.5 26.5 87.5 74t32 108.5t-32 109t-87.5 74.5t-121.5 26.5t-121.5 -26.5t-87.5 -74.5
t-32 -109t32 -108.5t87.5 -74t121.5 -26.5t121.5 26.5zM477 819l63 81h130l-106 -120h-175l-105 120h129z" />
    <glyph glyph-name="uni01D1" unicode="&#x1d2;" horiz-adv-x="952" 
d="M245.5 31q-101.5 47 -158.5 130t-57 189t57 189t158.5 130t230.5 47q130 0 231.5 -47t158 -130t56.5 -189t-56.5 -189t-158 -130t-231.5 -47q-129 0 -230.5 47zM597.5 167.5q55.5 26.5 87.5 74t32 108.5t-32 109t-87.5 74.5t-121.5 26.5t-121.5 -26.5t-87.5 -74.5
t-32 -109t32 -108.5t87.5 -74t121.5 -26.5t121.5 26.5zM477 819l63 81h130l-106 -120h-175l-105 120h129z" />
    <glyph glyph-name="uni01D3" unicode="&#x1d3;" horiz-adv-x="849" 
d="M40 700h190v-402q0 -72 54 -114.5t140 -42.5q87 0 141.5 42.5t54.5 114.5l-1 402h190v-402q0 -90 -52 -162t-140.5 -112t-192.5 -40t-192 40t-140 112t-52 162v402zM425 819l63 81h130l-106 -120h-175l-105 120h129z" />
    <glyph glyph-name="uni01D3" unicode="&#x1d4;" horiz-adv-x="849" 
d="M40 700h190v-402q0 -72 54 -114.5t140 -42.5q87 0 141.5 42.5t54.5 114.5l-1 402h190v-402q0 -90 -52 -162t-140.5 -112t-192.5 -40t-192 40t-140 112t-52 162v402zM425 819l63 81h130l-106 -120h-175l-105 120h129z" />
    <glyph glyph-name="uni01D5" unicode="&#x1d5;" horiz-adv-x="849" 
d="M40 700h190v-402q0 -72 54 -114.5t140 -42.5q87 0 141.5 42.5t54.5 114.5l-1 402h190v-402q0 -90 -52 -162t-140.5 -112t-192.5 -40t-192 40t-140 112t-52 162v402zM681 770h-195v130h195v-130zM361 770h-195v130h195v-130zM209 996v98h429v-98h-429z" />
    <glyph glyph-name="uni01D5" unicode="&#x1d6;" horiz-adv-x="849" 
d="M40 700h190v-402q0 -72 54 -114.5t140 -42.5q87 0 141.5 42.5t54.5 114.5l-1 402h190v-402q0 -90 -52 -162t-140.5 -112t-192.5 -40t-192 40t-140 112t-52 162v402zM681 770h-195v130h195v-130zM361 770h-195v130h195v-130zM209 996v98h429v-98h-429z" />
    <glyph glyph-name="uni01D7" unicode="&#x1d7;" horiz-adv-x="849" 
d="M40 700h190v-402q0 -72 54 -114.5t140 -42.5q87 0 141.5 42.5t54.5 114.5l-1 402h190v-402q0 -90 -52 -162t-140.5 -112t-192.5 -40t-192 40t-140 112t-52 162v402zM681 770h-195v130h195v-130zM361 770h-195v130h195v-130zM394 1096h169l-95 -120h-134z" />
    <glyph glyph-name="uni01D7" unicode="&#x1d8;" horiz-adv-x="849" 
d="M40 700h190v-402q0 -72 54 -114.5t140 -42.5q87 0 141.5 42.5t54.5 114.5l-1 402h190v-402q0 -90 -52 -162t-140.5 -112t-192.5 -40t-192 40t-140 112t-52 162v402zM681 770h-195v130h195v-130zM361 770h-195v130h195v-130zM394 1096h169l-95 -120h-134z" />
    <glyph glyph-name="uni01D9" unicode="&#x1d9;" horiz-adv-x="849" 
d="M40 700h190v-402q0 -72 54 -114.5t140 -42.5q87 0 141.5 42.5t54.5 114.5l-1 402h190v-402q0 -90 -52 -162t-140.5 -112t-192.5 -40t-192 40t-140 112t-52 162v402zM681 770h-195v130h195v-130zM361 770h-195v130h195v-130zM425 1015l63 81h130l-106 -120h-175l-105 120
h129z" />
    <glyph glyph-name="uni01D9" unicode="&#x1da;" horiz-adv-x="849" 
d="M40 700h190v-402q0 -72 54 -114.5t140 -42.5q87 0 141.5 42.5t54.5 114.5l-1 402h190v-402q0 -90 -52 -162t-140.5 -112t-192.5 -40t-192 40t-140 112t-52 162v402zM681 770h-195v130h195v-130zM361 770h-195v130h195v-130zM425 1015l63 81h130l-106 -120h-175l-105 120
h129z" />
    <glyph glyph-name="uni01DB" unicode="&#x1db;" horiz-adv-x="849" 
d="M40 700h190v-402q0 -72 54 -114.5t140 -42.5q87 0 141.5 42.5t54.5 114.5l-1 402h190v-402q0 -90 -52 -162t-140.5 -112t-192.5 -40t-192 40t-140 112t-52 162v402zM681 770h-195v130h195v-130zM361 770h-195v130h195v-130zM382 976l-100 120h169l65 -120h-134z" />
    <glyph glyph-name="uni01DB" unicode="&#x1dc;" horiz-adv-x="849" 
d="M40 700h190v-402q0 -72 54 -114.5t140 -42.5q87 0 141.5 42.5t54.5 114.5l-1 402h190v-402q0 -90 -52 -162t-140.5 -112t-192.5 -40t-192 40t-140 112t-52 162v402zM681 770h-195v130h195v-130zM361 770h-195v130h195v-130zM382 976l-100 120h169l65 -120h-134z" />
    <glyph glyph-name="AEacute" unicode="&#x1fc;" horiz-adv-x="1155" 
d="M1116 700v-140h-417v-140h373v-140h-373v-140h417v-140h-607v121h-241l-70 -121h-192l437 700h673zM509 538l-160 -277h160v277zM783 900h169l-95 -120h-134z" />
    <glyph glyph-name="AEacute" unicode="&#x1fd;" horiz-adv-x="1155" 
d="M1116 700v-140h-417v-140h373v-140h-373v-140h417v-140h-607v121h-241l-70 -121h-192l437 700h673zM509 538l-160 -277h160v277zM783 900h169l-95 -120h-134z" />
    <glyph glyph-name="Oslashacute" unicode="&#x1fe;" horiz-adv-x="980" 
d="M950 650l-92 -76q41 -45 62.5 -102t21.5 -122q0 -106 -57 -189t-158.5 -130t-230.5 -47q-157 0 -273 69l-109 -90l-83 84l100 82q-39 45 -60 101.5t-21 119.5q0 106 57 189t158.5 130t230.5 47q155 0 269 -67l102 84zM281 252l341 280q-58 28 -126 28q-67 0 -122 -26.5
t-87 -74t-32 -109.5q0 -55 26 -98zM709 452l-342 -281q58 -30 129 -30q66 0 121.5 26.5t87.5 74t32 108.5q0 57 -28 102zM465 900h169l-95 -120h-134z" />
    <glyph glyph-name="Oslashacute" unicode="&#x1ff;" horiz-adv-x="980" 
d="M950 650l-92 -76q41 -45 62.5 -102t21.5 -122q0 -106 -57 -189t-158.5 -130t-230.5 -47q-157 0 -273 69l-109 -90l-83 84l100 82q-39 45 -60 101.5t-21 119.5q0 106 57 189t158.5 130t230.5 47q155 0 269 -67l102 84zM281 252l341 280q-58 28 -126 28q-67 0 -122 -26.5
t-87 -74t-32 -109.5q0 -55 26 -98zM709 452l-342 -281q58 -30 129 -30q66 0 121.5 26.5t87.5 74t32 108.5q0 57 -28 102zM465 900h169l-95 -120h-134z" />
    <glyph glyph-name="uni0218" unicode="&#x218;" horiz-adv-x="763" 
d="M196.5 2q-87.5 18 -157.5 48l48 154q76 -30 150 -46.5t136 -16.5q71 0 113 19t42 52q0 26 -21.5 40t-62.5 20l-176 26q-99 15 -161 67.5t-62 131.5q0 66 52.5 116t138.5 76.5t183 26.5q80 0 163.5 -15.5t139.5 -37.5l-50 -155q-137 52 -253 52q-165 0 -165 -63
q0 -25 23.5 -41.5t64.5 -23.5l161 -24q108 -16 168 -65.5t60 -130.5q0 -69 -51 -120.5t-133.5 -79.5t-173.5 -28q-89 0 -176.5 18zM280 -200v130h195v-130l-117 -140h-128l115 140h-65z" />
    <glyph glyph-name="uni0218" unicode="&#x219;" horiz-adv-x="763" 
d="M196.5 2q-87.5 18 -157.5 48l48 154q76 -30 150 -46.5t136 -16.5q71 0 113 19t42 52q0 26 -21.5 40t-62.5 20l-176 26q-99 15 -161 67.5t-62 131.5q0 66 52.5 116t138.5 76.5t183 26.5q80 0 163.5 -15.5t139.5 -37.5l-50 -155q-137 52 -253 52q-165 0 -165 -63
q0 -25 23.5 -41.5t64.5 -23.5l161 -24q108 -16 168 -65.5t60 -130.5q0 -69 -51 -120.5t-133.5 -79.5t-173.5 -28q-89 0 -176.5 18zM280 -200v130h195v-130l-117 -140h-128l115 140h-65z" />
    <glyph glyph-name="uni021A" unicode="&#x21a;" horiz-adv-x="756" 
d="M474 0h-190v560h-273v140h735v-140h-272v-560zM286 -200v130h195v-130l-117 -140h-128l115 140h-65z" />
    <glyph glyph-name="uni021A" unicode="&#x21b;" horiz-adv-x="756" 
d="M474 0h-190v560h-273v140h735v-140h-272v-560zM286 -200v130h195v-130l-117 -140h-128l115 140h-65z" />
    <glyph glyph-name="circumflex" unicode="&#x2c6;" horiz-adv-x="506" 
d="M341 900l105 -120h-129l-64 82l-64 -82h-129l106 120h175z" />
    <glyph glyph-name="caron" unicode="&#x2c7;" horiz-adv-x="506" 
d="M251 819l63 81h130l-106 -120h-175l-105 120h129z" />
    <glyph glyph-name="breve" unicode="&#x2d8;" horiz-adv-x="451" 
d="M158 900q0 -26 18 -40t49 -14q32 0 50.5 14t18.5 40h97q0 -62 -47 -99.5t-119 -37.5t-118.5 37.5t-46.5 99.5h98z" />
    <glyph glyph-name="dotaccent" unicode="&#x2d9;" horiz-adv-x="315" 
d="M258 771h-195v130h195v-130z" />
    <glyph glyph-name="ring" unicode="&#x2da;" horiz-adv-x="391" 
d="M100 773q-40 25 -40 60q0 34 40 58.5t96 24.5t95.5 -24.5t39.5 -58.5q0 -35 -39.5 -60t-95.5 -25t-96 25zM231 811q14 9 14 22t-14.5 21.5t-34.5 8.5q-21 0 -35.5 -8.5t-14.5 -21.5t14.5 -22t35.5 -9t35 9z" />
    <glyph glyph-name="ogonek" unicode="&#x2db;" horiz-adv-x="401" 
d="M298 0q-45 0 -74 -19.5t-29 -43.5q0 -29 36.5 -51t109.5 -22v-80q-89 0 -152.5 18t-96 48.5t-32.5 65.5q0 29 24.5 56.5t68.5 45t101 17.5z" />
    <glyph glyph-name="tilde" unicode="&#x2dc;" horiz-adv-x="516" 
d="M88 930q36 -26 78 -26q38 0 79 23q46 28 96 28q57 0 115 -38l-29 -90q-39 29 -80 29q-38 0 -80 -24q-48 -27 -97 -27q-55 0 -110 35z" />
    <glyph glyph-name="hungarumlaut" unicode="&#x2dd;" horiz-adv-x="584" 
d="M120 900h169l-95 -120h-134zM356 900h169l-95 -120h-134z" />
    <glyph glyph-name="gravecomb" unicode="&#x300;" 
d="M-207 780l-100 120h169l65 -120h-134z" />
    <glyph glyph-name="acutecomb" unicode="&#x301;" 
d="M-222 900h169l-95 -120h-134z" />
    <glyph glyph-name="uni0302" unicode="&#x302;" 
d="M-165 900l105 -120h-129l-64 82l-64 -82h-129l106 120h175z" />
    <glyph glyph-name="tildecomb" unicode="&#x303;" 
d="M-428 930q36 -26 78 -26q38 0 79 23q46 28 96 28q57 0 115 -38l-29 -90q-39 29 -80 29q-38 0 -80 -24q-48 -27 -97 -27q-55 0 -110 35z" />
    <glyph glyph-name="uni0304" unicode="&#x304;" 
d="M-489 800v98h429v-98h-429z" />
    <glyph glyph-name="uni0306" unicode="&#x306;" 
d="M-293 900q0 -26 18 -40t49 -14q32 0 50.5 14t18.5 40h97q0 -62 -47 -99.5t-119 -37.5t-118.5 37.5t-46.5 99.5h98z" />
    <glyph glyph-name="uni0307" unicode="&#x307;" 
d="M-57 771h-195v130h195v-130z" />
    <glyph glyph-name="uni0308" unicode="&#x308;" 
d="M-57 770h-195v130h195v-130zM-377 770h-195v130h195v-130z" />
    <glyph glyph-name="hookabovecomb" unicode="&#x309;" 
d="M-307 915q103 0 175 -23t72 -67q0 -22 -20 -48h-142q17 22 17 34q0 17 -26.5 23.5t-75.5 6.5v74z" />
    <glyph glyph-name="uni030A" unicode="&#x30a;" 
d="M-291 773q-40 25 -40 60q0 34 40 58.5t96 24.5t95.5 -24.5t39.5 -58.5q0 -35 -39.5 -60t-95.5 -25t-96 25zM-160 811q14 9 14 22t-14.5 21.5t-34.5 8.5q-21 0 -35.5 -8.5t-14.5 -21.5t14.5 -22t35.5 -9t35 9z" />
    <glyph glyph-name="uni030B" unicode="&#x30b;" 
d="M-464 900h169l-95 -120h-134zM-228 900h169l-95 -120h-134z" />
    <glyph glyph-name="uni030C" unicode="&#x30c;" 
d="M-255 819l63 81h130l-106 -120h-175l-105 120h129z" />
    <glyph glyph-name="uni0312" unicode="&#x312;" 
d="M-193 928h128l-114 -140h65v-130h-195v130z" />
    <glyph glyph-name="uni031B" unicode="&#x31b;" 
d="M-60 611q0 -86 -58.5 -131t-169.5 -45v81q121 0 121 102z" />
    <glyph glyph-name="dotbelowcomb" unicode="&#x323;" 
d="M-57 -230h-195v130h195v-130z" />
    <glyph glyph-name="uni0326" unicode="&#x326;" 
d="M-252 -200v130h195v-130l-117 -140h-128l115 140h-65z" />
    <glyph glyph-name="uni0327" unicode="&#x327;" 
d="M-220 -56q160 0 160 -68q0 -40 -46.5 -66t-112.5 -26q-49 0 -82.5 7t-69.5 20l24 65q67 -23 128 -23q34 0 49 5.5t15 17.5t-15 18t-50 6h-50v100h50v-56z" />
    <glyph glyph-name="uni0328" unicode="&#x328;" 
d="M-103 0q-45 0 -74 -19.5t-29 -43.5q0 -29 36.5 -51t109.5 -22v-80q-89 0 -152.5 18t-96 48.5t-32.5 65.5q0 29 24.5 56.5t68.5 45t101 17.5z" />
    <glyph glyph-name="Wgrave" unicode="&#x1e80;" horiz-adv-x="1216" 
d="M850 280l176 420h203l-289 -700h-163l-173 470l-173 -470h-163l-281 700h203l168 -418l155 418h182zM577 780l-100 120h169l65 -120h-134z" />
    <glyph glyph-name="Wgrave" unicode="&#x1e81;" horiz-adv-x="1216" 
d="M850 280l176 420h203l-289 -700h-163l-173 470l-173 -470h-163l-281 700h203l168 -418l155 418h182zM577 780l-100 120h169l65 -120h-134z" />
    <glyph glyph-name="Wacute" unicode="&#x1e82;" horiz-adv-x="1216" 
d="M850 280l176 420h203l-289 -700h-163l-173 470l-173 -470h-163l-281 700h203l168 -418l155 418h182zM589 900h169l-95 -120h-134z" />
    <glyph glyph-name="Wacute" unicode="&#x1e83;" horiz-adv-x="1216" 
d="M850 280l176 420h203l-289 -700h-163l-173 470l-173 -470h-163l-281 700h203l168 -418l155 418h182zM589 900h169l-95 -120h-134z" />
    <glyph glyph-name="Wdieresis" unicode="&#x1e84;" horiz-adv-x="1216" 
d="M850 280l176 420h203l-289 -700h-163l-173 470l-173 -470h-163l-281 700h203l168 -418l155 418h182zM876 770h-195v130h195v-130zM556 770h-195v130h195v-130z" />
    <glyph glyph-name="Wdieresis" unicode="&#x1e85;" horiz-adv-x="1216" 
d="M850 280l176 420h203l-289 -700h-163l-173 470l-173 -470h-163l-281 700h203l168 -418l155 418h182zM876 770h-195v130h195v-130zM556 770h-195v130h195v-130z" />
    <glyph glyph-name="uni1EA0" unicode="&#x1ea0;" horiz-adv-x="910" 
d="M904 0h-203l-56 117h-380l-56 -117h-203l336 700h227zM455 517l-124 -260h248zM568 -230h-195v130h195v-130z" />
    <glyph glyph-name="uni1EA0" unicode="&#x1ea1;" horiz-adv-x="910" 
d="M904 0h-203l-56 117h-380l-56 -117h-203l336 700h227zM455 517l-124 -260h248zM568 -230h-195v130h195v-130z" />
    <glyph glyph-name="uni1EA2" unicode="&#x1ea2;" horiz-adv-x="910" 
d="M904 0h-203l-56 117h-380l-56 -117h-203l336 700h227zM455 517l-124 -260h248zM331 915q103 0 175 -23t72 -67q0 -22 -20 -48h-142q17 22 17 34q0 17 -26.5 23.5t-75.5 6.5v74z" />
    <glyph glyph-name="uni1EA2" unicode="&#x1ea3;" horiz-adv-x="910" 
d="M904 0h-203l-56 117h-380l-56 -117h-203l336 700h227zM455 517l-124 -260h248zM331 915q103 0 175 -23t72 -67q0 -22 -20 -48h-142q17 22 17 34q0 17 -26.5 23.5t-75.5 6.5v74z" />
    <glyph glyph-name="uni1EA4" unicode="&#x1ea4;" horiz-adv-x="910" 
d="M904 0h-203l-56 117h-380l-56 -117h-203l336 700h227zM455 517l-124 -260h248zM543 900l105 -120h-129l-64 82l-64 -82h-129l106 120h175zM425 1100h169l-95 -120h-134z" />
    <glyph glyph-name="uni1EA4" unicode="&#x1ea5;" horiz-adv-x="910" 
d="M904 0h-203l-56 117h-380l-56 -117h-203l336 700h227zM455 517l-124 -260h248zM543 900l105 -120h-129l-64 82l-64 -82h-129l106 120h175zM425 1100h169l-95 -120h-134z" />
    <glyph glyph-name="uni1EA6" unicode="&#x1ea6;" horiz-adv-x="910" 
d="M904 0h-203l-56 117h-380l-56 -117h-203l336 700h227zM455 517l-124 -260h248zM543 900l105 -120h-129l-64 82l-64 -82h-129l106 120h175zM413 980l-100 120h169l65 -120h-134z" />
    <glyph glyph-name="uni1EA6" unicode="&#x1ea7;" horiz-adv-x="910" 
d="M904 0h-203l-56 117h-380l-56 -117h-203l336 700h227zM455 517l-124 -260h248zM543 900l105 -120h-129l-64 82l-64 -82h-129l106 120h175zM413 980l-100 120h169l65 -120h-134z" />
    <glyph glyph-name="uni1EA8" unicode="&#x1ea8;" horiz-adv-x="910" 
d="M904 0h-203l-56 117h-380l-56 -117h-203l336 700h227zM455 517l-124 -260h248zM543 900l105 -120h-129l-64 82l-64 -82h-129l106 120h175zM331 1115q103 0 175 -23t72 -67q0 -22 -20 -48h-142q17 22 17 34q0 17 -26.5 23.5t-75.5 6.5v74z" />
    <glyph glyph-name="uni1EA8" unicode="&#x1ea9;" horiz-adv-x="910" 
d="M904 0h-203l-56 117h-380l-56 -117h-203l336 700h227zM455 517l-124 -260h248zM543 900l105 -120h-129l-64 82l-64 -82h-129l106 120h175zM331 1115q103 0 175 -23t72 -67q0 -22 -20 -48h-142q17 22 17 34q0 17 -26.5 23.5t-75.5 6.5v74z" />
    <glyph glyph-name="uni1EAA" unicode="&#x1eaa;" horiz-adv-x="910" 
d="M904 0h-203l-56 117h-380l-56 -117h-203l336 700h227zM455 517l-124 -260h248zM543 900l105 -120h-129l-64 82l-64 -82h-129l106 120h175zM284 1130q36 -26 78 -26q38 0 79 23q46 28 96 28q57 0 115 -38l-29 -90q-39 29 -80 29q-38 0 -80 -24q-48 -27 -97 -27
q-55 0 -110 35z" />
    <glyph glyph-name="uni1EAA" unicode="&#x1eab;" horiz-adv-x="910" 
d="M904 0h-203l-56 117h-380l-56 -117h-203l336 700h227zM455 517l-124 -260h248zM543 900l105 -120h-129l-64 82l-64 -82h-129l106 120h175zM284 1130q36 -26 78 -26q38 0 79 23q46 28 96 28q57 0 115 -38l-29 -90q-39 29 -80 29q-38 0 -80 -24q-48 -27 -97 -27
q-55 0 -110 35z" />
    <glyph glyph-name="uni1EAC" unicode="&#x1eac;" horiz-adv-x="910" 
d="M904 0h-203l-56 117h-380l-56 -117h-203l336 700h227zM455 517l-124 -260h248zM568 -230h-195v130h195v-130zM543 900l105 -120h-129l-64 82l-64 -82h-129l106 120h175z" />
    <glyph glyph-name="uni1EAC" unicode="&#x1ead;" horiz-adv-x="910" 
d="M904 0h-203l-56 117h-380l-56 -117h-203l336 700h227zM455 517l-124 -260h248zM568 -230h-195v130h195v-130zM543 900l105 -120h-129l-64 82l-64 -82h-129l106 120h175z" />
    <glyph glyph-name="uni1EAE" unicode="&#x1eae;" horiz-adv-x="910" 
d="M904 0h-203l-56 117h-380l-56 -117h-203l336 700h227zM455 517l-124 -260h248zM388 900q0 -26 18 -40t49 -14q32 0 50.5 14t18.5 40h97q0 -62 -47 -99.5t-119 -37.5t-118.5 37.5t-46.5 99.5h98zM425 1102h169l-95 -120h-134z" />
    <glyph glyph-name="uni1EAE" unicode="&#x1eaf;" horiz-adv-x="910" 
d="M904 0h-203l-56 117h-380l-56 -117h-203l336 700h227zM455 517l-124 -260h248zM388 900q0 -26 18 -40t49 -14q32 0 50.5 14t18.5 40h97q0 -62 -47 -99.5t-119 -37.5t-118.5 37.5t-46.5 99.5h98zM425 1102h169l-95 -120h-134z" />
    <glyph glyph-name="uni1EB0" unicode="&#x1eb0;" horiz-adv-x="910" 
d="M904 0h-203l-56 117h-380l-56 -117h-203l336 700h227zM455 517l-124 -260h248zM388 900q0 -26 18 -40t49 -14q32 0 50.5 14t18.5 40h97q0 -62 -47 -99.5t-119 -37.5t-118.5 37.5t-46.5 99.5h98zM413 982l-100 120h169l65 -120h-134z" />
    <glyph glyph-name="uni1EB0" unicode="&#x1eb1;" horiz-adv-x="910" 
d="M904 0h-203l-56 117h-380l-56 -117h-203l336 700h227zM455 517l-124 -260h248zM388 900q0 -26 18 -40t49 -14q32 0 50.5 14t18.5 40h97q0 -62 -47 -99.5t-119 -37.5t-118.5 37.5t-46.5 99.5h98zM413 982l-100 120h169l65 -120h-134z" />
    <glyph glyph-name="uni1EB2" unicode="&#x1eb2;" horiz-adv-x="910" 
d="M904 0h-203l-56 117h-380l-56 -117h-203l336 700h227zM455 517l-124 -260h248zM388 900q0 -26 18 -40t49 -14q32 0 50.5 14t18.5 40h97q0 -62 -47 -99.5t-119 -37.5t-118.5 37.5t-46.5 99.5h98zM331 1117q103 0 175 -23t72 -67q0 -22 -20 -48h-142q17 22 17 34
q0 17 -26.5 23.5t-75.5 6.5v74z" />
    <glyph glyph-name="uni1EB2" unicode="&#x1eb3;" horiz-adv-x="910" 
d="M904 0h-203l-56 117h-380l-56 -117h-203l336 700h227zM455 517l-124 -260h248zM388 900q0 -26 18 -40t49 -14q32 0 50.5 14t18.5 40h97q0 -62 -47 -99.5t-119 -37.5t-118.5 37.5t-46.5 99.5h98zM331 1117q103 0 175 -23t72 -67q0 -22 -20 -48h-142q17 22 17 34
q0 17 -26.5 23.5t-75.5 6.5v74z" />
    <glyph glyph-name="uni1EB4" unicode="&#x1eb4;" horiz-adv-x="910" 
d="M904 0h-203l-56 117h-380l-56 -117h-203l336 700h227zM455 517l-124 -260h248zM388 900q0 -26 18 -40t49 -14q32 0 50.5 14t18.5 40h97q0 -62 -47 -99.5t-119 -37.5t-118.5 37.5t-46.5 99.5h98zM284 1132q36 -26 78 -26q38 0 79 23q46 28 96 28q57 0 115 -38l-29 -90
q-39 29 -80 29q-38 0 -80 -24q-48 -27 -97 -27q-55 0 -110 35z" />
    <glyph glyph-name="uni1EB4" unicode="&#x1eb5;" horiz-adv-x="910" 
d="M904 0h-203l-56 117h-380l-56 -117h-203l336 700h227zM455 517l-124 -260h248zM388 900q0 -26 18 -40t49 -14q32 0 50.5 14t18.5 40h97q0 -62 -47 -99.5t-119 -37.5t-118.5 37.5t-46.5 99.5h98zM284 1132q36 -26 78 -26q38 0 79 23q46 28 96 28q57 0 115 -38l-29 -90
q-39 29 -80 29q-38 0 -80 -24q-48 -27 -97 -27q-55 0 -110 35z" />
    <glyph glyph-name="uni1EB6" unicode="&#x1eb6;" horiz-adv-x="910" 
d="M904 0h-203l-56 117h-380l-56 -117h-203l336 700h227zM455 517l-124 -260h248zM388 900q0 -26 18 -40t49 -14q32 0 50.5 14t18.5 40h97q0 -62 -47 -99.5t-119 -37.5t-118.5 37.5t-46.5 99.5h98zM568 -230h-195v130h195v-130z" />
    <glyph glyph-name="uni1EB6" unicode="&#x1eb7;" horiz-adv-x="910" 
d="M904 0h-203l-56 117h-380l-56 -117h-203l336 700h227zM455 517l-124 -260h248zM388 900q0 -26 18 -40t49 -14q32 0 50.5 14t18.5 40h97q0 -62 -47 -99.5t-119 -37.5t-118.5 37.5t-46.5 99.5h98zM568 -230h-195v130h195v-130z" />
    <glyph glyph-name="uni1EB8" unicode="&#x1eb8;" horiz-adv-x="686" 
d="M647 0h-607v700h607v-140h-417v-140h373v-140h-373v-140h417v-140zM445 -230h-195v130h195v-130z" />
    <glyph glyph-name="uni1EB8" unicode="&#x1eb9;" horiz-adv-x="686" 
d="M647 0h-607v700h607v-140h-417v-140h373v-140h-373v-140h417v-140zM445 -230h-195v130h195v-130z" />
    <glyph glyph-name="uni1EBA" unicode="&#x1eba;" horiz-adv-x="686" 
d="M647 0h-607v700h607v-140h-417v-140h373v-140h-373v-140h417v-140zM220 915q103 0 175 -23t72 -67q0 -22 -20 -48h-142q17 22 17 34q0 17 -26.5 23.5t-75.5 6.5v74z" />
    <glyph glyph-name="uni1EBA" unicode="&#x1ebb;" horiz-adv-x="686" 
d="M647 0h-607v700h607v-140h-417v-140h373v-140h-373v-140h417v-140zM220 915q103 0 175 -23t72 -67q0 -22 -20 -48h-142q17 22 17 34q0 17 -26.5 23.5t-75.5 6.5v74z" />
    <glyph glyph-name="uni1EBC" unicode="&#x1ebc;" horiz-adv-x="686" 
d="M647 0h-607v700h607v-140h-417v-140h373v-140h-373v-140h417v-140zM173 930q36 -26 78 -26q38 0 79 23q46 28 96 28q57 0 115 -38l-29 -90q-39 29 -80 29q-38 0 -80 -24q-48 -27 -97 -27q-55 0 -110 35z" />
    <glyph glyph-name="uni1EBC" unicode="&#x1ebd;" horiz-adv-x="686" 
d="M647 0h-607v700h607v-140h-417v-140h373v-140h-373v-140h417v-140zM173 930q36 -26 78 -26q38 0 79 23q46 28 96 28q57 0 115 -38l-29 -90q-39 29 -80 29q-38 0 -80 -24q-48 -27 -97 -27q-55 0 -110 35z" />
    <glyph glyph-name="uni1EBE" unicode="&#x1ebe;" horiz-adv-x="686" 
d="M647 0h-607v700h607v-140h-417v-140h373v-140h-373v-140h417v-140zM432 900l105 -120h-129l-64 82l-64 -82h-129l106 120h175zM314 1100h169l-95 -120h-134z" />
    <glyph glyph-name="uni1EBE" unicode="&#x1ebf;" horiz-adv-x="686" 
d="M647 0h-607v700h607v-140h-417v-140h373v-140h-373v-140h417v-140zM432 900l105 -120h-129l-64 82l-64 -82h-129l106 120h175zM314 1100h169l-95 -120h-134z" />
    <glyph glyph-name="uni1EC0" unicode="&#x1ec0;" horiz-adv-x="686" 
d="M647 0h-607v700h607v-140h-417v-140h373v-140h-373v-140h417v-140zM432 900l105 -120h-129l-64 82l-64 -82h-129l106 120h175zM302 980l-100 120h169l65 -120h-134z" />
    <glyph glyph-name="uni1EC0" unicode="&#x1ec1;" horiz-adv-x="686" 
d="M647 0h-607v700h607v-140h-417v-140h373v-140h-373v-140h417v-140zM432 900l105 -120h-129l-64 82l-64 -82h-129l106 120h175zM302 980l-100 120h169l65 -120h-134z" />
    <glyph glyph-name="uni1EC2" unicode="&#x1ec2;" horiz-adv-x="686" 
d="M647 0h-607v700h607v-140h-417v-140h373v-140h-373v-140h417v-140zM432 900l105 -120h-129l-64 82l-64 -82h-129l106 120h175zM220 1115q103 0 175 -23t72 -67q0 -22 -20 -48h-142q17 22 17 34q0 17 -26.5 23.5t-75.5 6.5v74z" />
    <glyph glyph-name="uni1EC2" unicode="&#x1ec3;" horiz-adv-x="686" 
d="M647 0h-607v700h607v-140h-417v-140h373v-140h-373v-140h417v-140zM432 900l105 -120h-129l-64 82l-64 -82h-129l106 120h175zM220 1115q103 0 175 -23t72 -67q0 -22 -20 -48h-142q17 22 17 34q0 17 -26.5 23.5t-75.5 6.5v74z" />
    <glyph glyph-name="uni1EC4" unicode="&#x1ec4;" horiz-adv-x="686" 
d="M647 0h-607v700h607v-140h-417v-140h373v-140h-373v-140h417v-140zM432 900l105 -120h-129l-64 82l-64 -82h-129l106 120h175zM173 1130q36 -26 78 -26q38 0 79 23q46 28 96 28q57 0 115 -38l-29 -90q-39 29 -80 29q-38 0 -80 -24q-48 -27 -97 -27q-55 0 -110 35z" />
    <glyph glyph-name="uni1EC4" unicode="&#x1ec5;" horiz-adv-x="686" 
d="M647 0h-607v700h607v-140h-417v-140h373v-140h-373v-140h417v-140zM432 900l105 -120h-129l-64 82l-64 -82h-129l106 120h175zM173 1130q36 -26 78 -26q38 0 79 23q46 28 96 28q57 0 115 -38l-29 -90q-39 29 -80 29q-38 0 -80 -24q-48 -27 -97 -27q-55 0 -110 35z" />
    <glyph glyph-name="uni1EC6" unicode="&#x1ec6;" horiz-adv-x="686" 
d="M647 0h-607v700h607v-140h-417v-140h373v-140h-373v-140h417v-140zM445 -230h-195v130h195v-130zM432 900l105 -120h-129l-64 82l-64 -82h-129l106 120h175z" />
    <glyph glyph-name="uni1EC6" unicode="&#x1ec7;" horiz-adv-x="686" 
d="M647 0h-607v700h607v-140h-417v-140h373v-140h-373v-140h417v-140zM445 -230h-195v130h195v-130zM432 900l105 -120h-129l-64 82l-64 -82h-129l106 120h175z" />
    <glyph glyph-name="uni1EC8" unicode="&#x1ec8;" horiz-adv-x="391" 
d="M101 0v700h190v-700h-190zM71 915q103 0 175 -23t72 -67q0 -22 -20 -48h-142q17 22 17 34q0 17 -26.5 23.5t-75.5 6.5v74z" />
    <glyph glyph-name="uni1EC8" unicode="&#x1ec9;" horiz-adv-x="391" 
d="M101 0v700h190v-700h-190zM71 915q103 0 175 -23t72 -67q0 -22 -20 -48h-142q17 22 17 34q0 17 -26.5 23.5t-75.5 6.5v74z" />
    <glyph glyph-name="uni1ECA" unicode="&#x1eca;" horiz-adv-x="391" 
d="M101 0v700h190v-700h-190zM296 -230h-195v130h195v-130z" />
    <glyph glyph-name="uni1ECA" unicode="&#x1ecb;" horiz-adv-x="391" 
d="M101 0v700h190v-700h-190zM296 -230h-195v130h195v-130z" />
    <glyph glyph-name="uni1ECC" unicode="&#x1ecc;" horiz-adv-x="952" 
d="M245.5 31q-101.5 47 -158.5 130t-57 189t57 189t158.5 130t230.5 47q130 0 231.5 -47t158 -130t56.5 -189t-56.5 -189t-158 -130t-231.5 -47q-129 0 -230.5 47zM597.5 167.5q55.5 26.5 87.5 74t32 108.5t-32 109t-87.5 74.5t-121.5 26.5t-121.5 -26.5t-87.5 -74.5
t-32 -109t32 -108.5t87.5 -74t121.5 -26.5t121.5 26.5zM577 -230h-195v130h195v-130z" />
    <glyph glyph-name="uni1ECC" unicode="&#x1ecd;" horiz-adv-x="952" 
d="M245.5 31q-101.5 47 -158.5 130t-57 189t57 189t158.5 130t230.5 47q130 0 231.5 -47t158 -130t56.5 -189t-56.5 -189t-158 -130t-231.5 -47q-129 0 -230.5 47zM597.5 167.5q55.5 26.5 87.5 74t32 108.5t-32 109t-87.5 74.5t-121.5 26.5t-121.5 -26.5t-87.5 -74.5
t-32 -109t32 -108.5t87.5 -74t121.5 -26.5t121.5 26.5zM577 -230h-195v130h195v-130z" />
    <glyph glyph-name="uni1ECE" unicode="&#x1ece;" horiz-adv-x="952" 
d="M245.5 31q-101.5 47 -158.5 130t-57 189t57 189t158.5 130t230.5 47q130 0 231.5 -47t158 -130t56.5 -189t-56.5 -189t-158 -130t-231.5 -47q-129 0 -230.5 47zM597.5 167.5q55.5 26.5 87.5 74t32 108.5t-32 109t-87.5 74.5t-121.5 26.5t-121.5 -26.5t-87.5 -74.5
t-32 -109t32 -108.5t87.5 -74t121.5 -26.5t121.5 26.5zM352 915q103 0 175 -23t72 -67q0 -22 -20 -48h-142q17 22 17 34q0 17 -26.5 23.5t-75.5 6.5v74z" />
    <glyph glyph-name="uni1ECE" unicode="&#x1ecf;" horiz-adv-x="952" 
d="M245.5 31q-101.5 47 -158.5 130t-57 189t57 189t158.5 130t230.5 47q130 0 231.5 -47t158 -130t56.5 -189t-56.5 -189t-158 -130t-231.5 -47q-129 0 -230.5 47zM597.5 167.5q55.5 26.5 87.5 74t32 108.5t-32 109t-87.5 74.5t-121.5 26.5t-121.5 -26.5t-87.5 -74.5
t-32 -109t32 -108.5t87.5 -74t121.5 -26.5t121.5 26.5zM352 915q103 0 175 -23t72 -67q0 -22 -20 -48h-142q17 22 17 34q0 17 -26.5 23.5t-75.5 6.5v74z" />
    <glyph glyph-name="uni1ED0" unicode="&#x1ed0;" horiz-adv-x="952" 
d="M245.5 31q-101.5 47 -158.5 130t-57 189t57 189t158.5 130t230.5 47q130 0 231.5 -47t158 -130t56.5 -189t-56.5 -189t-158 -130t-231.5 -47q-129 0 -230.5 47zM597.5 167.5q55.5 26.5 87.5 74t32 108.5t-32 109t-87.5 74.5t-121.5 26.5t-121.5 -26.5t-87.5 -74.5
t-32 -109t32 -108.5t87.5 -74t121.5 -26.5t121.5 26.5zM564 900l105 -120h-129l-64 82l-64 -82h-129l106 120h175zM446 1100h169l-95 -120h-134z" />
    <glyph glyph-name="uni1ED0" unicode="&#x1ed1;" horiz-adv-x="952" 
d="M245.5 31q-101.5 47 -158.5 130t-57 189t57 189t158.5 130t230.5 47q130 0 231.5 -47t158 -130t56.5 -189t-56.5 -189t-158 -130t-231.5 -47q-129 0 -230.5 47zM597.5 167.5q55.5 26.5 87.5 74t32 108.5t-32 109t-87.5 74.5t-121.5 26.5t-121.5 -26.5t-87.5 -74.5
t-32 -109t32 -108.5t87.5 -74t121.5 -26.5t121.5 26.5zM564 900l105 -120h-129l-64 82l-64 -82h-129l106 120h175zM446 1100h169l-95 -120h-134z" />
    <glyph glyph-name="uni1ED2" unicode="&#x1ed2;" horiz-adv-x="952" 
d="M245.5 31q-101.5 47 -158.5 130t-57 189t57 189t158.5 130t230.5 47q130 0 231.5 -47t158 -130t56.5 -189t-56.5 -189t-158 -130t-231.5 -47q-129 0 -230.5 47zM597.5 167.5q55.5 26.5 87.5 74t32 108.5t-32 109t-87.5 74.5t-121.5 26.5t-121.5 -26.5t-87.5 -74.5
t-32 -109t32 -108.5t87.5 -74t121.5 -26.5t121.5 26.5zM564 900l105 -120h-129l-64 82l-64 -82h-129l106 120h175zM434 980l-100 120h169l65 -120h-134z" />
    <glyph glyph-name="uni1ED2" unicode="&#x1ed3;" horiz-adv-x="952" 
d="M245.5 31q-101.5 47 -158.5 130t-57 189t57 189t158.5 130t230.5 47q130 0 231.5 -47t158 -130t56.5 -189t-56.5 -189t-158 -130t-231.5 -47q-129 0 -230.5 47zM597.5 167.5q55.5 26.5 87.5 74t32 108.5t-32 109t-87.5 74.5t-121.5 26.5t-121.5 -26.5t-87.5 -74.5
t-32 -109t32 -108.5t87.5 -74t121.5 -26.5t121.5 26.5zM564 900l105 -120h-129l-64 82l-64 -82h-129l106 120h175zM434 980l-100 120h169l65 -120h-134z" />
    <glyph glyph-name="uni1ED4" unicode="&#x1ed4;" horiz-adv-x="952" 
d="M245.5 31q-101.5 47 -158.5 130t-57 189t57 189t158.5 130t230.5 47q130 0 231.5 -47t158 -130t56.5 -189t-56.5 -189t-158 -130t-231.5 -47q-129 0 -230.5 47zM597.5 167.5q55.5 26.5 87.5 74t32 108.5t-32 109t-87.5 74.5t-121.5 26.5t-121.5 -26.5t-87.5 -74.5
t-32 -109t32 -108.5t87.5 -74t121.5 -26.5t121.5 26.5zM564 900l105 -120h-129l-64 82l-64 -82h-129l106 120h175zM352 1115q103 0 175 -23t72 -67q0 -22 -20 -48h-142q17 22 17 34q0 17 -26.5 23.5t-75.5 6.5v74z" />
    <glyph glyph-name="uni1ED4" unicode="&#x1ed5;" horiz-adv-x="952" 
d="M245.5 31q-101.5 47 -158.5 130t-57 189t57 189t158.5 130t230.5 47q130 0 231.5 -47t158 -130t56.5 -189t-56.5 -189t-158 -130t-231.5 -47q-129 0 -230.5 47zM597.5 167.5q55.5 26.5 87.5 74t32 108.5t-32 109t-87.5 74.5t-121.5 26.5t-121.5 -26.5t-87.5 -74.5
t-32 -109t32 -108.5t87.5 -74t121.5 -26.5t121.5 26.5zM564 900l105 -120h-129l-64 82l-64 -82h-129l106 120h175zM352 1115q103 0 175 -23t72 -67q0 -22 -20 -48h-142q17 22 17 34q0 17 -26.5 23.5t-75.5 6.5v74z" />
    <glyph glyph-name="uni1ED6" unicode="&#x1ed6;" horiz-adv-x="952" 
d="M245.5 31q-101.5 47 -158.5 130t-57 189t57 189t158.5 130t230.5 47q130 0 231.5 -47t158 -130t56.5 -189t-56.5 -189t-158 -130t-231.5 -47q-129 0 -230.5 47zM597.5 167.5q55.5 26.5 87.5 74t32 108.5t-32 109t-87.5 74.5t-121.5 26.5t-121.5 -26.5t-87.5 -74.5
t-32 -109t32 -108.5t87.5 -74t121.5 -26.5t121.5 26.5zM564 900l105 -120h-129l-64 82l-64 -82h-129l106 120h175zM305 1130q36 -26 78 -26q38 0 79 23q46 28 96 28q57 0 115 -38l-29 -90q-39 29 -80 29q-38 0 -80 -24q-48 -27 -97 -27q-55 0 -110 35z" />
    <glyph glyph-name="uni1ED6" unicode="&#x1ed7;" horiz-adv-x="952" 
d="M245.5 31q-101.5 47 -158.5 130t-57 189t57 189t158.5 130t230.5 47q130 0 231.5 -47t158 -130t56.5 -189t-56.5 -189t-158 -130t-231.5 -47q-129 0 -230.5 47zM597.5 167.5q55.5 26.5 87.5 74t32 108.5t-32 109t-87.5 74.5t-121.5 26.5t-121.5 -26.5t-87.5 -74.5
t-32 -109t32 -108.5t87.5 -74t121.5 -26.5t121.5 26.5zM564 900l105 -120h-129l-64 82l-64 -82h-129l106 120h175zM305 1130q36 -26 78 -26q38 0 79 23q46 28 96 28q57 0 115 -38l-29 -90q-39 29 -80 29q-38 0 -80 -24q-48 -27 -97 -27q-55 0 -110 35z" />
    <glyph glyph-name="uni1ED8" unicode="&#x1ed8;" horiz-adv-x="952" 
d="M245.5 31q-101.5 47 -158.5 130t-57 189t57 189t158.5 130t230.5 47q130 0 231.5 -47t158 -130t56.5 -189t-56.5 -189t-158 -130t-231.5 -47q-129 0 -230.5 47zM597.5 167.5q55.5 26.5 87.5 74t32 108.5t-32 109t-87.5 74.5t-121.5 26.5t-121.5 -26.5t-87.5 -74.5
t-32 -109t32 -108.5t87.5 -74t121.5 -26.5t121.5 26.5zM577 -230h-195v130h195v-130zM564 900l105 -120h-129l-64 82l-64 -82h-129l106 120h175z" />
    <glyph glyph-name="uni1ED8" unicode="&#x1ed9;" horiz-adv-x="952" 
d="M245.5 31q-101.5 47 -158.5 130t-57 189t57 189t158.5 130t230.5 47q130 0 231.5 -47t158 -130t56.5 -189t-56.5 -189t-158 -130t-231.5 -47q-129 0 -230.5 47zM597.5 167.5q55.5 26.5 87.5 74t32 108.5t-32 109t-87.5 74.5t-121.5 26.5t-121.5 -26.5t-87.5 -74.5
t-32 -109t32 -108.5t87.5 -74t121.5 -26.5t121.5 26.5zM577 -230h-195v130h195v-130zM564 900l105 -120h-129l-64 82l-64 -82h-129l106 120h175z" />
    <glyph glyph-name="uni1EDA" unicode="&#x1eda;" horiz-adv-x="952" 
d="M446 900h169l-95 -120h-134zM874.5 525q47.5 -78 47.5 -175q0 -106 -56.5 -189t-158 -130t-231.5 -47q-129 0 -230.5 47t-158.5 130t-57 189t57 189t158.5 130t230.5 47q73 0 137 -15q98 9 98 101l107 -7q0 -98 -77 -143q86 -49 133.5 -127zM597.5 167.5
q55.5 26.5 87.5 74t32 108.5t-32 109t-87.5 74.5t-121.5 26.5t-121.5 -26.5t-87.5 -74.5t-32 -109t32 -108.5t87.5 -74t121.5 -26.5t121.5 26.5z" />
    <glyph glyph-name="uni1EDA" unicode="&#x1edb;" horiz-adv-x="952" 
d="M446 900h169l-95 -120h-134zM874.5 525q47.5 -78 47.5 -175q0 -106 -56.5 -189t-158 -130t-231.5 -47q-129 0 -230.5 47t-158.5 130t-57 189t57 189t158.5 130t230.5 47q73 0 137 -15q98 9 98 101l107 -7q0 -98 -77 -143q86 -49 133.5 -127zM597.5 167.5
q55.5 26.5 87.5 74t32 108.5t-32 109t-87.5 74.5t-121.5 26.5t-121.5 -26.5t-87.5 -74.5t-32 -109t32 -108.5t87.5 -74t121.5 -26.5t121.5 26.5z" />
    <glyph glyph-name="uni1EDC" unicode="&#x1edc;" horiz-adv-x="952" 
d="M503 900l65 -120h-134l-100 120h169zM874.5 525q47.5 -78 47.5 -175q0 -106 -56.5 -189t-158 -130t-231.5 -47q-129 0 -230.5 47t-158.5 130t-57 189t57 189t158.5 130t230.5 47q73 0 137 -15q98 9 98 101l107 -7q0 -98 -77 -143q86 -49 133.5 -127zM597.5 167.5
q55.5 26.5 87.5 74t32 108.5t-32 109t-87.5 74.5t-121.5 26.5t-121.5 -26.5t-87.5 -74.5t-32 -109t32 -108.5t87.5 -74t121.5 -26.5t121.5 26.5z" />
    <glyph glyph-name="uni1EDC" unicode="&#x1edd;" horiz-adv-x="952" 
d="M503 900l65 -120h-134l-100 120h169zM874.5 525q47.5 -78 47.5 -175q0 -106 -56.5 -189t-158 -130t-231.5 -47q-129 0 -230.5 47t-158.5 130t-57 189t57 189t158.5 130t230.5 47q73 0 137 -15q98 9 98 101l107 -7q0 -98 -77 -143q86 -49 133.5 -127zM597.5 167.5
q55.5 26.5 87.5 74t32 108.5t-32 109t-87.5 74.5t-121.5 26.5t-121.5 -26.5t-87.5 -74.5t-32 -109t32 -108.5t87.5 -74t121.5 -26.5t121.5 26.5z" />
    <glyph glyph-name="uni1EDE" unicode="&#x1ede;" horiz-adv-x="952" 
d="M437 777q17 22 17 34q0 17 -26.5 23.5t-75.5 6.5v74q103 0 175 -23t72 -67q0 -22 -20 -48h-142zM874.5 525q47.5 -78 47.5 -175q0 -106 -56.5 -189t-158 -130t-231.5 -47q-129 0 -230.5 47t-158.5 130t-57 189t57 189t158.5 130t230.5 47q73 0 137 -15q98 9 98 101
l107 -7q0 -98 -77 -143q86 -49 133.5 -127zM597.5 167.5q55.5 26.5 87.5 74t32 108.5t-32 109t-87.5 74.5t-121.5 26.5t-121.5 -26.5t-87.5 -74.5t-32 -109t32 -108.5t87.5 -74t121.5 -26.5t121.5 26.5z" />
    <glyph glyph-name="uni1EDE" unicode="&#x1edf;" horiz-adv-x="952" 
d="M437 777q17 22 17 34q0 17 -26.5 23.5t-75.5 6.5v74q103 0 175 -23t72 -67q0 -22 -20 -48h-142zM874.5 525q47.5 -78 47.5 -175q0 -106 -56.5 -189t-158 -130t-231.5 -47q-129 0 -230.5 47t-158.5 130t-57 189t57 189t158.5 130t230.5 47q73 0 137 -15q98 9 98 101
l107 -7q0 -98 -77 -143q86 -49 133.5 -127zM597.5 167.5q55.5 26.5 87.5 74t32 108.5t-32 109t-87.5 74.5t-121.5 26.5t-121.5 -26.5t-87.5 -74.5t-32 -109t32 -108.5t87.5 -74t121.5 -26.5t121.5 26.5z" />
    <glyph glyph-name="uni1EE0" unicode="&#x1ee0;" horiz-adv-x="952" 
d="M387 805q-55 0 -110 35l28 90q38 -26 78 -26q39 0 79 23q48 28 97 28q58 0 114 -38l-29 -90q-38 29 -80 29q-38 0 -80 -24q-48 -27 -97 -27zM874.5 525q47.5 -78 47.5 -175q0 -106 -56.5 -189t-158 -130t-231.5 -47q-129 0 -230.5 47t-158.5 130t-57 189t57 189
t158.5 130t230.5 47q73 0 137 -15q98 9 98 101l107 -7q0 -98 -77 -143q86 -49 133.5 -127zM597.5 167.5q55.5 26.5 87.5 74t32 108.5t-32 109t-87.5 74.5t-121.5 26.5t-121.5 -26.5t-87.5 -74.5t-32 -109t32 -108.5t87.5 -74t121.5 -26.5t121.5 26.5z" />
    <glyph glyph-name="uni1EE0" unicode="&#x1ee1;" horiz-adv-x="952" 
d="M387 805q-55 0 -110 35l28 90q38 -26 78 -26q39 0 79 23q48 28 97 28q58 0 114 -38l-29 -90q-38 29 -80 29q-38 0 -80 -24q-48 -27 -97 -27zM874.5 525q47.5 -78 47.5 -175q0 -106 -56.5 -189t-158 -130t-231.5 -47q-129 0 -230.5 47t-158.5 130t-57 189t57 189
t158.5 130t230.5 47q73 0 137 -15q98 9 98 101l107 -7q0 -98 -77 -143q86 -49 133.5 -127zM597.5 167.5q55.5 26.5 87.5 74t32 108.5t-32 109t-87.5 74.5t-121.5 26.5t-121.5 -26.5t-87.5 -74.5t-32 -109t32 -108.5t87.5 -74t121.5 -26.5t121.5 26.5z" />
    <glyph glyph-name="uni1EE2" unicode="&#x1ee2;" horiz-adv-x="952" 
d="M874.5 525q47.5 -78 47.5 -175q0 -106 -56.5 -189t-158 -130t-231.5 -47q-129 0 -230.5 47t-158.5 130t-57 189t57 189t158.5 130t230.5 47q73 0 137 -15q98 9 98 101l107 -7q0 -98 -77 -143q86 -49 133.5 -127zM597.5 167.5q55.5 26.5 87.5 74t32 108.5t-32 109
t-87.5 74.5t-121.5 26.5t-121.5 -26.5t-87.5 -74.5t-32 -109t32 -108.5t87.5 -74t121.5 -26.5t121.5 26.5zM577 -230h-195v130h195v-130z" />
    <glyph glyph-name="uni1EE2" unicode="&#x1ee3;" horiz-adv-x="952" 
d="M874.5 525q47.5 -78 47.5 -175q0 -106 -56.5 -189t-158 -130t-231.5 -47q-129 0 -230.5 47t-158.5 130t-57 189t57 189t158.5 130t230.5 47q73 0 137 -15q98 9 98 101l107 -7q0 -98 -77 -143q86 -49 133.5 -127zM597.5 167.5q55.5 26.5 87.5 74t32 108.5t-32 109
t-87.5 74.5t-121.5 26.5t-121.5 -26.5t-87.5 -74.5t-32 -109t32 -108.5t87.5 -74t121.5 -26.5t121.5 26.5zM577 -230h-195v130h195v-130z" />
    <glyph glyph-name="uni1EE4" unicode="&#x1ee4;" horiz-adv-x="849" 
d="M40 700h190v-402q0 -72 54 -114.5t140 -42.5q87 0 141.5 42.5t54.5 114.5l-1 402h190v-402q0 -90 -52 -162t-140.5 -112t-192.5 -40t-192 40t-140 112t-52 162v402zM525 -230h-195v130h195v-130z" />
    <glyph glyph-name="uni1EE4" unicode="&#x1ee5;" horiz-adv-x="849" 
d="M40 700h190v-402q0 -72 54 -114.5t140 -42.5q87 0 141.5 42.5t54.5 114.5l-1 402h190v-402q0 -90 -52 -162t-140.5 -112t-192.5 -40t-192 40t-140 112t-52 162v402zM525 -230h-195v130h195v-130z" />
    <glyph glyph-name="uni1EE6" unicode="&#x1ee6;" horiz-adv-x="849" 
d="M40 700h190v-402q0 -72 54 -114.5t140 -42.5q87 0 141.5 42.5t54.5 114.5l-1 402h190v-402q0 -90 -52 -162t-140.5 -112t-192.5 -40t-192 40t-140 112t-52 162v402zM300 915q103 0 175 -23t72 -67q0 -22 -20 -48h-142q17 22 17 34q0 17 -26.5 23.5t-75.5 6.5v74z" />
    <glyph glyph-name="uni1EE6" unicode="&#x1ee7;" horiz-adv-x="849" 
d="M40 700h190v-402q0 -72 54 -114.5t140 -42.5q87 0 141.5 42.5t54.5 114.5l-1 402h190v-402q0 -90 -52 -162t-140.5 -112t-192.5 -40t-192 40t-140 112t-52 162v402zM300 915q103 0 175 -23t72 -67q0 -22 -20 -48h-142q17 22 17 34q0 17 -26.5 23.5t-75.5 6.5v74z" />
    <glyph glyph-name="uni1EE8" unicode="&#x1ee8;" horiz-adv-x="849" 
d="M40 700h190v-402q0 -72 54 -114.5t140 -42.5q87 0 141.5 42.5t54.5 114.5l-1 402h190v-402q0 -90 -52 -162t-140.5 -112t-192.5 -40t-192 40t-140 112t-52 162v402zM1037 795q0 -86 -58.5 -131t-169.5 -45v81q121 0 121 102zM394 900h169l-95 -120h-134z" />
    <glyph glyph-name="uni1EE8" unicode="&#x1ee9;" horiz-adv-x="849" 
d="M40 700h190v-402q0 -72 54 -114.5t140 -42.5q87 0 141.5 42.5t54.5 114.5l-1 402h190v-402q0 -90 -52 -162t-140.5 -112t-192.5 -40t-192 40t-140 112t-52 162v402zM1037 795q0 -86 -58.5 -131t-169.5 -45v81q121 0 121 102zM394 900h169l-95 -120h-134z" />
    <glyph glyph-name="uni1EEA" unicode="&#x1eea;" horiz-adv-x="849" 
d="M40 700h190v-402q0 -72 54 -114.5t140 -42.5q87 0 141.5 42.5t54.5 114.5l-1 402h190v-402q0 -90 -52 -162t-140.5 -112t-192.5 -40t-192 40t-140 112t-52 162v402zM1037 795q0 -86 -58.5 -131t-169.5 -45v81q121 0 121 102zM382 780l-100 120h169l65 -120h-134z" />
    <glyph glyph-name="uni1EEA" unicode="&#x1eeb;" horiz-adv-x="849" 
d="M40 700h190v-402q0 -72 54 -114.5t140 -42.5q87 0 141.5 42.5t54.5 114.5l-1 402h190v-402q0 -90 -52 -162t-140.5 -112t-192.5 -40t-192 40t-140 112t-52 162v402zM1037 795q0 -86 -58.5 -131t-169.5 -45v81q121 0 121 102zM382 780l-100 120h169l65 -120h-134z" />
    <glyph glyph-name="uni1EEC" unicode="&#x1eec;" horiz-adv-x="849" 
d="M40 700h190v-402q0 -72 54 -114.5t140 -42.5q87 0 141.5 42.5t54.5 114.5l-1 402h190v-402q0 -90 -52 -162t-140.5 -112t-192.5 -40t-192 40t-140 112t-52 162v402zM1037 795q0 -86 -58.5 -131t-169.5 -45v81q121 0 121 102zM300 915q103 0 175 -23t72 -67q0 -22 -20 -48
h-142q17 22 17 34q0 17 -26.5 23.5t-75.5 6.5v74z" />
    <glyph glyph-name="uni1EEC" unicode="&#x1eed;" horiz-adv-x="849" 
d="M40 700h190v-402q0 -72 54 -114.5t140 -42.5q87 0 141.5 42.5t54.5 114.5l-1 402h190v-402q0 -90 -52 -162t-140.5 -112t-192.5 -40t-192 40t-140 112t-52 162v402zM1037 795q0 -86 -58.5 -131t-169.5 -45v81q121 0 121 102zM300 915q103 0 175 -23t72 -67q0 -22 -20 -48
h-142q17 22 17 34q0 17 -26.5 23.5t-75.5 6.5v74z" />
    <glyph glyph-name="uni1EEE" unicode="&#x1eee;" horiz-adv-x="849" 
d="M40 700h190v-402q0 -72 54 -114.5t140 -42.5q87 0 141.5 42.5t54.5 114.5l-1 402h190v-402q0 -90 -52 -162t-140.5 -112t-192.5 -40t-192 40t-140 112t-52 162v402zM1037 795q0 -86 -58.5 -131t-169.5 -45v81q121 0 121 102zM253 930q36 -26 78 -26q38 0 79 23
q46 28 96 28q57 0 115 -38l-29 -90q-39 29 -80 29q-38 0 -80 -24q-48 -27 -97 -27q-55 0 -110 35z" />
    <glyph glyph-name="uni1EEE" unicode="&#x1eef;" horiz-adv-x="849" 
d="M40 700h190v-402q0 -72 54 -114.5t140 -42.5q87 0 141.5 42.5t54.5 114.5l-1 402h190v-402q0 -90 -52 -162t-140.5 -112t-192.5 -40t-192 40t-140 112t-52 162v402zM1037 795q0 -86 -58.5 -131t-169.5 -45v81q121 0 121 102zM253 930q36 -26 78 -26q38 0 79 23
q46 28 96 28q57 0 115 -38l-29 -90q-39 29 -80 29q-38 0 -80 -24q-48 -27 -97 -27q-55 0 -110 35z" />
    <glyph glyph-name="uni1EF0" unicode="&#x1ef0;" horiz-adv-x="849" 
d="M40 700h190v-402q0 -72 54 -114.5t140 -42.5q87 0 141.5 42.5t54.5 114.5l-1 402h190v-402q0 -90 -52 -162t-140.5 -112t-192.5 -40t-192 40t-140 112t-52 162v402zM1037 795q0 -86 -58.5 -131t-169.5 -45v81q121 0 121 102zM525 -230h-195v130h195v-130z" />
    <glyph glyph-name="uni1EF0" unicode="&#x1ef1;" horiz-adv-x="849" 
d="M40 700h190v-402q0 -72 54 -114.5t140 -42.5q87 0 141.5 42.5t54.5 114.5l-1 402h190v-402q0 -90 -52 -162t-140.5 -112t-192.5 -40t-192 40t-140 112t-52 162v402zM1037 795q0 -86 -58.5 -131t-169.5 -45v81q121 0 121 102zM525 -230h-195v130h195v-130z" />
    <glyph glyph-name="Ygrave" unicode="&#x1ef2;" horiz-adv-x="819" 
d="M327 0h-212l192 279l-273 421h216l167 -258l181 258h212zM362 780l-100 120h169l65 -120h-134z" />
    <glyph glyph-name="Ygrave" unicode="&#x1ef3;" horiz-adv-x="819" 
d="M327 0h-212l192 279l-273 421h216l167 -258l181 258h212zM362 780l-100 120h169l65 -120h-134z" />
    <glyph glyph-name="uni1EF4" unicode="&#x1ef4;" horiz-adv-x="819" 
d="M327 0h-212l192 279l-273 421h216l167 -258l181 258h212zM484 -230h-195v130h195v-130z" />
    <glyph glyph-name="uni1EF4" unicode="&#x1ef5;" horiz-adv-x="819" 
d="M327 0h-212l192 279l-273 421h216l167 -258l181 258h212zM484 -230h-195v130h195v-130z" />
    <glyph glyph-name="uni1EF6" unicode="&#x1ef6;" horiz-adv-x="819" 
d="M327 0h-212l192 279l-273 421h216l167 -258l181 258h212zM280 915q103 0 175 -23t72 -67q0 -22 -20 -48h-142q17 22 17 34q0 17 -26.5 23.5t-75.5 6.5v74z" />
    <glyph glyph-name="uni1EF6" unicode="&#x1ef7;" horiz-adv-x="819" 
d="M327 0h-212l192 279l-273 421h216l167 -258l181 258h212zM280 915q103 0 175 -23t72 -67q0 -22 -20 -48h-142q17 22 17 34q0 17 -26.5 23.5t-75.5 6.5v74z" />
    <glyph glyph-name="uni1EF8" unicode="&#x1ef8;" horiz-adv-x="819" 
d="M327 0h-212l192 279l-273 421h216l167 -258l181 258h212zM233 930q36 -26 78 -26q38 0 79 23q46 28 96 28q57 0 115 -38l-29 -90q-39 29 -80 29q-38 0 -80 -24q-48 -27 -97 -27q-55 0 -110 35z" />
    <glyph glyph-name="uni1EF8" unicode="&#x1ef9;" horiz-adv-x="819" 
d="M327 0h-212l192 279l-273 421h216l167 -258l181 258h212zM233 930q36 -26 78 -26q38 0 79 23q46 28 96 28q57 0 115 -38l-29 -90q-39 29 -80 29q-38 0 -80 -24q-48 -27 -97 -27q-55 0 -110 35z" />
    <glyph glyph-name="endash" unicode="&#x2013;" horiz-adv-x="466" 
d="M12 268v140h442v-140h-442z" />
    <glyph glyph-name="emdash" unicode="&#x2014;" horiz-adv-x="600" 
d="M-11 268v140h622v-140h-622z" />
    <glyph glyph-name="quoteleft" unicode="&#x2018;" horiz-adv-x="385" 
d="M184 840h128l-114 -140h65v-130h-195v130z" />
    <glyph glyph-name="quoteright" unicode="&#x2019;" horiz-adv-x="385" 
d="M122 571v130h195v-130l-117 -140h-128l115 140h-65z" />
    <glyph glyph-name="quotesinglbase" unicode="&#x201a;" horiz-adv-x="385" 
d="M122 -1v130h195v-130l-117 -140h-128l115 140h-65z" />
    <glyph glyph-name="quotedblleft" unicode="&#x201c;" horiz-adv-x="602" 
d="M184 840h128l-114 -140h65v-130h-195v130zM401 840h128l-114 -140h65v-130h-195v130z" />
    <glyph glyph-name="quotedblright" unicode="&#x201d;" horiz-adv-x="602" 
d="M340 571v130h195v-130l-117 -140h-128l115 140h-65zM122 571v130h195v-130l-117 -140h-128l115 140h-65z" />
    <glyph glyph-name="quotedblbase" unicode="&#x201e;" horiz-adv-x="602" 
d="M340 0v130h195v-130l-117 -140h-128l115 140h-65zM122 0v130h195v-130l-117 -140h-128l115 140h-65z" />
    <glyph glyph-name="dagger" unicode="&#x2020;" horiz-adv-x="437" 
d="M292 605h105v-108h-105v-223h-146v223h-106v108h106v109h146v-109z" />
    <glyph glyph-name="daggerdbl" unicode="&#x2021;" horiz-adv-x="437" 
d="M397 605v-106h-105v-112h105v-106h-105v-117h-146v117h-106v106h106v112h-106v106h106v109h146v-109h105z" />
    <glyph glyph-name="bullet" unicode="&#x2022;" horiz-adv-x="428" 
d="M354 250h-273v182h273v-182z" />
    <glyph glyph-name="ellipsis" unicode="&#x2026;" horiz-adv-x="895" 
d="M548 0h-195v130h195v-130zM834 0h-195v130h195v-130zM262 0h-195v130h195v-130z" />
    <glyph glyph-name="guilsinglleft" unicode="&#x2039;" horiz-adv-x="454" 
d="M233 500h151l-163 -214l163 -214h-151l-163 214z" />
    <glyph glyph-name="guilsinglright" unicode="&#x203a;" horiz-adv-x="454" 
d="M70 500h151l163 -214l-163 -214h-151l163 214z" />
    <glyph glyph-name="fraction" unicode="&#x2044;" horiz-adv-x="205" 
d="M-183 0l473 700h125l-473 -700h-125z" />
    <glyph glyph-name="lira" unicode="&#x20a4;" horiz-adv-x="781" 
d="M306 270v-130h410v-140h-677v140h78v130h-78v83h78v46h-78v75h78v5q0 71 45.5 125t119.5 83t156 29q77 0 145 -23.5t117 -63.5t71 -87l-179 -38q-21 39 -57.5 58.5t-93.5 19.5q-63 0 -99 -26t-36 -77v-5h233v-75h-233v-46h233v-83h-233z" />
    <glyph glyph-name="uni20A9" unicode="&#x20a9;" horiz-adv-x="1169" 
d="M1144 494v-54h-22l-11 -27h33v-60h-58l-146 -353h-163l-173 470l-173 -470h-163l-142 353h-110v60h86l-11 27h-75v60h51l-80 200h203l168 -418l155 418h182l155 -420l176 420h203z" />
    <glyph glyph-name="Euro" unicode="&#x20ac;" horiz-adv-x="1008" 
d="M696 156.5q62 33.5 91 96.5h181q-22 -79 -82 -140t-148 -95t-191 -34q-102 0 -188 34t-145 94.5t-84 137.5h-121l7 70h100q-1 10 -1 30q0 14 2 40h-93l8 70h102q26 74 85 132t143.5 91t184.5 33q103 0 191 -34t148 -95t82 -140h-181q-29 63 -91 97t-151 34
q-81 0 -141 -31.5t-92 -86.5h387l-7 -70h-406q-3 -19 -3 -40q0 -10 2 -30h399l-7 -70h-370q30 -59 92 -93t146 -34q89 0 151 33.5z" />
    <glyph glyph-name="uni20B8" unicode="&#x20b8;" horiz-adv-x="756" 
d="M746 560h-735v140h735v-140zM474 0h-190v370h-273v140h735v-140h-272v-370z" />
    <glyph glyph-name="uni20BA" unicode="&#x20ba;" horiz-adv-x="758" 
d="M715 344q0 -107 -57 -184.5t-156.5 -118.5t-225.5 -41h-155v199l-93 -42v100l93 42v63l-93 -42v100l93 42v238h155v-168l205 93v-100l-205 -93v-63l205 93v-100l-205 -93v-133q78 0 142 24t101.5 71t37.5 113h158z" />
    <glyph glyph-name="uni20BD" unicode="&#x20bd;" horiz-adv-x="901" 
d="M536 700q96 0 173.5 -32t122 -89t44.5 -131t-44.5 -132t-122 -90t-173.5 -32h-205v-70h131v-60h-131v-64h-190v64h-101v60h101v576h395zM536 334q60 0 97.5 31.5t37.5 82.5t-37.5 81.5t-97.5 30.5h-205v-226h205z" />
    <glyph glyph-name="uni20BF" unicode="&#x20bf;" horiz-adv-x="773" 
d="M705 92q-38 -44 -102.5 -67.5t-142.5 -24.5l-12 -98h-102l12 98h-68l-12 -98h-102l12 98h-148v700h207l11 100h102l-11 -100h67l12 100h102l-12 -105q87 -15 141 -64.5t54 -118.5q0 -53 -31.5 -91.5t-78.5 -59.5q58 -19 99 -62t41 -103t-38 -104zM230 560v-147h207
q45 0 70.5 21t25.5 58q0 68 -96 68h-207zM440 140q49 0 76.5 20.5t27.5 56.5q0 35 -27 53t-77 18h-210v-148h210z" />
    <glyph glyph-name="trademark" unicode="&#x2122;" horiz-adv-x="1047" 
d="M708 391l151 309h148v-393h-107v268l-130 -268h-124l-131 270v-270h-107v314h-137v-314h-107v314h-153v79h545z" />
    <glyph glyph-name="arrowleft" unicode="&#x2190;" horiz-adv-x="780" 
d="M562 47h-207l-318 326l318 327h207l-263 -255h463v-143h-463z" />
    <glyph glyph-name="arrowup" unicode="&#x2191;" horiz-adv-x="738" 
d="M295 430l-245 -223v202l319 291l319 -291v-202l-245 223v-430h-148v430z" />
    <glyph glyph-name="arrowright" unicode="&#x2192;" horiz-adv-x="789" 
d="M444 47h-207l264 255h-464v143h464l-264 255h207l318 -327z" />
    <glyph glyph-name="arrowdown" unicode="&#x2193;" horiz-adv-x="738" 
d="M688 291l-319 -291l-319 291v202l245 -222v429h148v-429l245 222v-202z" />
    <glyph glyph-name="arrowboth" unicode="&#x2194;" horiz-adv-x="1147" 
d="M538 47h-207l-296 326l296 327h207l-224 -255h518l-223 255h207l296 -327l-296 -326h-207l223 255h-518z" />
    <glyph glyph-name="arrowupdn" unicode="&#x2195;" horiz-adv-x="549" 
d="M274 0l-224 151v158l150 -95v272l-150 -110v158l224 166l225 -166v-158l-151 110v-272l151 95v-158z" />
    <glyph glyph-name="uni2196" unicode="&#x2196;" horiz-adv-x="697" 
d="M203 451l1 -358l-148 152l-1 455h462l153 -143l-367 1l334 -334l-103 -103z" />
    <glyph glyph-name="uni2197" unicode="&#x2197;" horiz-adv-x="697" 
d="M622 245l-148 -153v357l-330 -329l-104 103l334 333h-366l152 143l462 1v-455z" />
    <glyph glyph-name="uni2198" unicode="&#x2198;" horiz-adv-x="712" 
d="M660 0l-462 1l-153 143l367 -1l-333 334l102 103l331 -330l-1 358l148 -152l1 -415v-41z" />
    <glyph glyph-name="uni2199" unicode="&#x2199;" horiz-adv-x="697" 
d="M507 1l-462 -1l1 456l148 152l-1 -358l331 330l103 -103l-334 -334l367 1z" />
    <glyph glyph-name="partialdiff" unicode="&#x2202;" horiz-adv-x="636" 
d="M293 731q91 -50 162 -122t111 -154.5t40 -164.5q0 -85 -37.5 -155t-105 -110.5t-151.5 -40.5q-82 0 -146 34.5t-100 96t-36 139.5q0 74 31 132.5t88.5 92t133.5 33.5q46 0 90 -11q-60 73 -137 117zM385.5 131q32.5 25 51 67t18.5 92q0 59 -26 119q-49 17 -88 17
q-73 0 -116.5 -47.5t-43.5 -124.5q0 -65 36.5 -106.5t94.5 -41.5q41 0 73.5 25z" />
    <glyph glyph-name="emptyset" unicode="&#x2205;" horiz-adv-x="792" 
d="M782 671l-96 -96q37 -48 57 -105t20 -120q0 -99 -49.5 -183.5t-133.5 -134t-183 -49.5q-63 0 -120.5 20.5t-104.5 57.5l-97 -97l-65 64l97 97q-37 48 -57 105t-20 120q0 99 49.5 183t134 133.5t183.5 49.5q62 0 119.5 -20t105.5 -57l96 96zM212 230l305 304
q-55 36 -120 36q-60 0 -110.5 -29.5t-80.5 -80t-30 -110.5q0 -65 36 -120zM581 470l-304 -304q55 -36 120 -36q59 0 110 29.5t80.5 80.5t29.5 110q0 67 -36 120z" />
    <glyph glyph-name="product" unicode="&#x220f;" horiz-adv-x="600" 
d="M29 700h560v-140h-72v-660h-156v660h-122v-660h-156v660h-54v140z" />
    <glyph glyph-name="summation" unicode="&#x2211;" horiz-adv-x="692" 
d="M642 -200h-592v165l513 285l-513 285v165h592v-145h-360l360 -199v-211l-360 -200h360v-145z" />
    <glyph glyph-name="minus" unicode="&#x2212;" horiz-adv-x="420" 
d="M20 191v110h380v-110h-380z" />
    <glyph glyph-name="integral" unicode="&#x222b;" horiz-adv-x="474" 
d="M10 -62q78 17 118.5 50.5t42.5 90.5l16 470q3 92 68.5 142t191.5 82l17 -93q-77 -17 -117.5 -50t-42.5 -91l-16 -470q-3 -93 -69 -144.5t-192 -82.5z" />
    <glyph glyph-name="approxequal" unicode="&#x2248;" horiz-adv-x="618" 
d="M76 235q57 -28 108 -28q41 0 93 19q71 26 140 26q80 0 153 -35l-50 -118q-65 34 -117 34q-40 0 -94 -20q-67 -25 -140 -25q-78 0 -143 29zM106 426q57 -28 108 -28q41 0 93 19q71 26 140 26q80 0 153 -35l-50 -118q-65 34 -117 34q-40 0 -94 -20q-67 -25 -140 -25
q-78 0 -143 29z" />
    <glyph glyph-name="notequal" unicode="&#x2260;" horiz-adv-x="624" 
d="M580 448v-110h-216l56 -97h160v-110h-97l51 -88l-106 -56l-83 144h-301v110h237l-56 97h-181v110h118l-60 104l106 56l92 -160h280z" />
    <glyph glyph-name="lessequal" unicode="&#x2264;" horiz-adv-x="448" 
d="M48 552l380 189v-142l-271 -132l271 -133v-142l-380 189v171zM35 5v110h380v-110h-380z" />
    <glyph glyph-name="greaterequal" unicode="&#x2265;" horiz-adv-x="449" 
d="M37 599v142l380 -189v-171l-380 -189v142l271 133zM35 5v110h380v-110h-380z" />
    <glyph glyph-name="lozenge" unicode="&#x25ca;" horiz-adv-x="579" 
d="M383 700l156 -351l-156 -349h-187l-156 349l156 351h187zM209 349l81 -290l80 290l-80 291z" />
    <glyph glyph-name="uniF8FF" unicode="&#xf8ff;" horiz-adv-x="987" 
d="M841 729q-3 0 -5 -2q-3 -2 -7 -8q-4 -12 -4 -17v-3q0 -11 8 -16l4 -4q1 -1 1 -4q-4 -6 -10 -11l-8 -6q-6 -6 -13 -9l-21 -6l-42 -9l-15 -6l-9 -3q-14 -7 -17 -8l-34 -18l-6 -4l-5 -4l-5 -3q-10 -8 -15 -11q-26 -23 -76 -73q-29 -31 -53 -51q-11 -8 -31 -28
q-57 -61 -97 -96q-48 -42 -75 -59q-64 -42 -87 -55l-42 -21l-21 -10.5t-16 -8.5q-32 -15 -52 -34l-21 -21l-43 -43q-12 -10 -21 -21q-3 -3 -3 -6v-17q2 -9 10 -12l5 -2q13 -3 39 -5q41 -2 70 -8q19 -4 40 -6l31 -1q14 0 44 2q20 2 28 4q43 12 127 42q28 10 41 19
q25 16 53 35q24 16 35 25q80 69 143 136q44 46 69 78l27 34l8 9l26 35l8 13q2 3 4 13q11 32 19 70q9 33 10 58q0 5 1 14.5t2 16.5q2 19 12 32q5 7 15 10h6q11 0 18 -4q7 -3 21 -13q10 -6 19 -5q20 4 29 13q6 5 18 13q9 5 9 12q1 6 0.5 14t-0.5 12q0 7 -6 10q-13 7 -22 10
q-14 5 -26 6q-26 5 -42 15l-4 1h-23h-23zM900.5 674q-0.5 -3 0.5 -7q0 -3 -3 -3q-6 0 -9 -1q-4 0 -7 4l-2 5q-5 11 -13 18q-5 3 -8 8q-5 5 -4 8q3 5 9 5q11 0 16 -1q25 -3 55 -11q7 -1 19 -5q6 -1 13 -8q2 -4 2 -6q0 -4 -5 -7l-25 -10l-13 -7q-2 -1 -4 0t-2 3q0 5 3 6
q5 6 -2 10t-20 4q0 -2 -0.5 -5zM784 620q-20 -8 -34 -16q-22 -11 -52 -38l-16 -17l-16 -18l-62 -70q-5 -6 -11 -13.5t-14 -15.5l-15 -19q-10 -14 -16 -20l-8 -10v-1q-5 -2 -9 -8l-6 -9l-47 -51q-38 -42 -67 -67l-15 -14l-20 -13q-6 -4 -14.5 -9t-17.5 -11l-32 -24
q-4 -4 -32 -24l-16 -12q-28 -20 -85 -47l-54 -24q-5 -2 -13.5 -4t-13.5 -4l-16 -6q-2 -1 -9 -8l-6 -6q-11 -5 -28 -5q-2 0 -4 3l-9 25l1 2l62 63q15 16 45 31q14 8 42 22q49 26 58 31q72 41 121 81q27 22 62 57l78 77q13 12 39 34q9 7 23 23q10 13 19 21l35 33l18 17
q25 24 62 43q40 23 87 30l15 4l4 1v-1q-4 -9 -13 -13zM827 607q-3 -8 -4 -17.5t-1 -12.5q-2 -22 -4 -34q-1 -6 -5 -25l-3 -21l-1 -4q-3 -7 -7 -17.5t-11 -24.5q-18 -31 -21 -35l-35 -57q-13 -21 -31 -41l-5 -7l-1 -2l-15 -14l-21 -21l-25 -27l-26 -25l-10 -11q-2 -4 -10 -10
l-20 -19q-15 -16 -34 -28q-7 -3 -11 -9q-26 -22 -41 -32l-2.5 -2.5t-4.5 -2.5l-18 -12l-22 -14q-5 -3 -14 -9t-16 -9q-18 -7 -32 -11q-4 -2 -6 1q-1 1 0.5 3t1.5 3q5 6 19 14q14 6 21 10q2 1 14 8l32 20l26 19q24 18 35 28l27 26q14 13 30 34q13 16 41 48l15 22q3 5 11 15
q14 15 29 37l22 26l9 14l0.5 0.5l0.5 0.5q14 22 20 34q4 4 6 11q22 50 32 75q2 4 2.5 7t0.5 5q0 6 4 10l5 9l12 25q6 12 10 18q2 5 8 16t9 20l3 6q4 4 6 3q2 0 4 -2t2 -4v-3q0 -3 -1 -5zM255 47q-29 -10 -56 -14l-25 -2q-4 -1 -10 -2t-15 -1q-9 -1 -26 -1q-7 0 -15 3t-11 4
l-5 3q-6 6 0 10q2 2 9 4q14 4 21 7q15 4 35 11q5 2 33 17l56 30l13 9l44 30l31 24q7 6 30 20q12 7 40 30l32 28q20 14 50 50l2 2q4 3 14 15l1 2q28 30 80 94q54 64 98 112l31 33q1 1 6 4l0.5 0.5l0.5 0.5q3 5 10 9t10 6q29 17 52 26l4 2q5 0 3 -3l-4 -10l-9 -19l-17 -31
q-8 -13 -14 -31.5t-9 -26.5q-4 -9 -6.5 -18t-6.5 -18q-18 -36 -22 -43q-20 -33 -39 -59q-6 -8 -20 -24q-28 -31 -57 -71q-22 -32 -55 -63q-44 -42 -74 -64q-34 -24 -51 -35q-1 -1 -4 -2t-5 -1l-6 -3q-27 -16 -36 -23q-12 -9 -40 -19l-32 -13l-38 -18q-6 -2 -9 -2
q-12 0 -36 2q-3 0 -4 1q-2 2 -2 5q0 2 3 3l11 2l17 5l19 7l5 3l3 2l-1 2z" />
    <glyph glyph-name="i.loclTRK" horiz-adv-x="391" 
d="M101 0v700h190v-700h-190zM296 771h-195v130h195v-130z" />
    <glyph glyph-name="zero.dnom" horiz-adv-x="507" 
d="M94 42q-58 58 -58 159q0 100 58 158t159 58t159.5 -58t58.5 -158t-58.5 -158.5t-159.5 -58.5t-159 58zM328.5 110q26.5 32 26.5 91q0 58 -26.5 90t-75.5 32t-75.5 -32t-26.5 -90q0 -59 26.5 -91t75.5 -32t75.5 32z" />
    <glyph glyph-name="one.dnom" horiz-adv-x="344" 
d="M297 410v-410h-113v327h-147v83h260z" />
    <glyph glyph-name="two.dnom" horiz-adv-x="477" 
d="M170 85h261v-85h-375v236h154q39 0 61.5 14.5t22.5 33.5q0 18 -23 30t-61 12q-72 0 -152 -32l-31 92q32 15 82 25t101 10q63 0 113 -17t78.5 -48t28.5 -72q0 -61 -54.5 -96.5t-145.5 -35.5h-60v-67z" />
    <glyph glyph-name="three.dnom" horiz-adv-x="486" 
d="M301 250q74 -9 113 -36.5t39 -77.5q0 -44 -35 -77t-87.5 -51t-101.5 -18q-56 0 -113 16.5t-99 44.5l56 85q37 -25 74.5 -37t81.5 -12q43 0 69.5 13t26.5 36q0 22 -33.5 33t-93.5 11h-59v73l141 92h-247v89h410v-89z" />
    <glyph glyph-name="four.dnom" horiz-adv-x="444" 
d="M339 223h78v-83h-78v-140h-113v140h-197v270h113v-187h84v187h113v-187z" />
    <glyph glyph-name="five.dnom" horiz-adv-x="469" 
d="M434 320h-277v-54h97q81 0 130.5 -36.5t49.5 -93.5q0 -42 -27 -76.5t-75.5 -55t-109.5 -20.5q-52 0 -103 16t-94 45l55 84q34 -25 71 -38t71 -13q44 0 73 15t29 43t-24.5 42t-69.5 14h-189v212h393v-84z" />
    <glyph glyph-name="six.dnom" horiz-adv-x="452" 
d="M78 227l165 179h141l-134 -143q46 -1 86.5 -20t65 -50.5t24.5 -68.5q0 -40 -25 -72t-70 -50t-101 -18q-57 0 -104 17.5t-73.5 49t-26.5 69.5q0 51 52 107zM166 84.5q24 -17.5 64 -17.5q38 0 62 17.5t24 45.5t-24 45t-62 17q-39 0 -63.5 -17t-24.5 -45t24 -45.5z" />
    <glyph glyph-name="seven.dnom" horiz-adv-x="458" 
d="M28 316v94h408v-66l-222 -344h-139l210 316h-257z" />
    <glyph glyph-name="eight.dnom" horiz-adv-x="449" 
d="M404 166.5q19 -23.5 19 -54.5q0 -37 -25 -66t-70 -45.5t-102 -16.5q-58 0 -103 16t-70.5 45t-25.5 67q0 31 19 55t54 38q-26 14 -40 36t-14 50q0 56 50 91t130 35q79 0 129 -35t50 -91t-55 -86q35 -15 54 -38.5zM174 324q-20 -14 -20 -36q0 -23 19.5 -36.5t52.5 -13.5
q31 0 51 14t20 36t-20 36t-51 14q-32 0 -52 -14zM288 83q24 15 24 38q0 22 -24 36.5t-62 14.5t-62.5 -14.5t-24.5 -36.5q0 -23 24 -38t63 -15q38 0 62 15z" />
    <glyph glyph-name="nine.dnom" horiz-adv-x="452" 
d="M413.5 234.5q-12.5 -25.5 -39.5 -55.5l-165 -178h-141l134 142q-46 1 -86.5 20t-65 50.5t-24.5 68.5q0 40 25 72t70 50t102 18t103.5 -17.5t73 -49t26.5 -69.5q0 -26 -12.5 -51.5zM286 321.5q-24 17.5 -63 17.5t-62.5 -17t-23.5 -46q0 -27 24 -44.5t62 -17.5t62.5 17.5
t24.5 44.5q0 28 -24 45.5z" />
    <glyph glyph-name="zero.numr" horiz-adv-x="507" 
d="M94 314q-58 58 -58 159q0 100 58 158t159 58t159.5 -58t58.5 -158t-58.5 -158.5t-159.5 -58.5t-159 58zM328.5 382q26.5 32 26.5 91q0 58 -26.5 90t-75.5 32t-75.5 -32t-26.5 -90q0 -59 26.5 -91t75.5 -32t75.5 32z" />
    <glyph glyph-name="one.numr" horiz-adv-x="344" 
d="M297 700v-410h-113v327h-147v83h260z" />
    <glyph glyph-name="two.numr" horiz-adv-x="477" 
d="M170 380h261v-85h-375v236h154q39 0 61.5 14.5t22.5 33.5q0 18 -23 30t-61 12q-72 0 -152 -32l-31 92q32 15 82 25t101 10q63 0 113 -17t78.5 -48t28.5 -72q0 -61 -54.5 -96.5t-145.5 -35.5h-60v-67z" />
    <glyph glyph-name="three.numr" horiz-adv-x="486" 
d="M301 551q74 -9 113 -36.5t39 -77.5q0 -44 -35 -77t-87.5 -51t-101.5 -18q-56 0 -113 16.5t-99 44.5l56 85q37 -25 74.5 -37t81.5 -12q43 0 69.5 13t26.5 36q0 22 -33.5 33t-93.5 11h-59v73l141 92h-247v89h410v-89z" />
    <glyph glyph-name="four.numr" horiz-adv-x="444" 
d="M339 513h78v-83h-78v-140h-113v140h-197v270h113v-187h84v187h113v-187z" />
    <glyph glyph-name="five.numr" horiz-adv-x="469" 
d="M434 615h-277v-54h97q81 0 130.5 -36.5t49.5 -93.5q0 -42 -27 -76.5t-75.5 -55t-109.5 -20.5q-52 0 -103 16t-94 45l55 84q34 -25 71 -38t71 -13q44 0 73 15t29 43t-24.5 42t-69.5 14h-189v212h393v-84z" />
    <glyph glyph-name="six.numr" horiz-adv-x="452" 
d="M78 522l165 179h141l-134 -143q46 -1 86.5 -20t65 -50.5t24.5 -68.5q0 -40 -25 -72t-70 -50t-101 -18q-57 0 -104 17.5t-73.5 49t-26.5 69.5q0 51 52 107zM166 379.5q24 -17.5 64 -17.5q38 0 62 17.5t24 45.5t-24 45t-62 17q-39 0 -63.5 -17t-24.5 -45t24 -45.5z" />
    <glyph glyph-name="seven.numr" horiz-adv-x="458" 
d="M28 606v94h408v-66l-222 -344h-139l210 316h-257z" />
    <glyph glyph-name="eight.numr" horiz-adv-x="449" 
d="M404 465.5q19 -23.5 19 -54.5q0 -37 -25 -66t-70 -45.5t-102 -16.5q-58 0 -103 16t-70.5 45t-25.5 67q0 31 19 55t54 38q-26 14 -40 36t-14 50q0 56 50 91t130 35q79 0 129 -35t50 -91t-55 -86q35 -15 54 -38.5zM174 623q-20 -14 -20 -36q0 -23 19.5 -36.5t52.5 -13.5
q31 0 51 14t20 36t-20 36t-51 14q-32 0 -52 -14zM288 382q24 15 24 38q0 22 -24 36.5t-62 14.5t-62.5 -14.5t-24.5 -36.5q0 -23 24 -38t63 -15q38 0 62 15z" />
    <glyph glyph-name="nine.numr" horiz-adv-x="452" 
d="M413.5 529.5q-12.5 -25.5 -39.5 -55.5l-165 -178h-141l134 142q-46 1 -86.5 20t-65 50.5t-24.5 68.5q0 40 25 72t70 50t102 18t103.5 -17.5t73 -49t26.5 -69.5q0 -26 -12.5 -51.5zM286 616.5q-24 17.5 -63 17.5t-62.5 -17t-23.5 -46q0 -27 24 -44.5t62 -17.5t62.5 17.5
t24.5 44.5q0 28 -24 45.5z" />
    <glyph glyph-name="gravecomb.case" 
d="M-207 780l-100 120h169l65 -120h-134z" />
    <glyph glyph-name="acutecomb.case" 
d="M-222 900h169l-95 -120h-134z" />
    <glyph glyph-name="uni030B.case" 
d="M-464 900h169l-95 -120h-134zM-228 900h169l-95 -120h-134z" />
    <glyph glyph-name="uni0302.case" 
d="M-165 900l105 -120h-129l-64 82l-64 -82h-129l106 120h175z" />
    <glyph glyph-name="uni030C.case" 
d="M-255 819l63 81h130l-106 -120h-175l-105 120h129z" />
    <glyph glyph-name="uni0306.case" 
d="M-293 900q0 -26 18 -40t49 -14q32 0 50.5 14t18.5 40h97q0 -62 -47 -99.5t-119 -37.5t-118.5 37.5t-46.5 99.5h98z" />
    <glyph glyph-name="uni030A.case" 
d="M-291 773q-40 25 -40 60q0 34 40 58.5t96 24.5t95.5 -24.5t39.5 -58.5q0 -35 -39.5 -60t-95.5 -25t-96 25zM-160 811q14 9 14 22t-14.5 21.5t-34.5 8.5q-21 0 -35.5 -8.5t-14.5 -21.5t14.5 -22t35.5 -9t35 9z" />
    <glyph glyph-name="tildecomb.case" 
d="M-428 930q36 -26 78 -26q38 0 79 23q46 28 96 28q57 0 115 -38l-29 -90q-39 29 -80 29q-38 0 -80 -24q-48 -27 -97 -27q-55 0 -110 35z" />
    <glyph glyph-name="hookabovecomb.case" 
d="M-308 915q103 0 175 -23t72 -67q0 -22 -20 -48h-142q17 22 17 34q0 17 -26.5 23.5t-75.5 6.5v74z" />
    <glyph glyph-name="uni031B.case" 
d="M-61 611q0 -86 -58.5 -131t-169.5 -45v81q121 0 121 102z" />
    <glyph glyph-name="uni03060301" 
d="M-293 900q0 -26 18 -40t49 -14q32 0 50.5 14t18.5 40h97q0 -62 -47 -99.5t-119 -37.5t-118.5 37.5t-46.5 99.5h98zM-256 1102h169l-95 -120h-134z" />
    <glyph glyph-name="uni03060300" 
d="M-293 900q0 -26 18 -40t49 -14q32 0 50.5 14t18.5 40h97q0 -62 -47 -99.5t-119 -37.5t-118.5 37.5t-46.5 99.5h98zM-268 982l-100 120h169l65 -120h-134z" />
    <glyph glyph-name="uni03060309" 
d="M-293 900q0 -26 18 -40t49 -14q32 0 50.5 14t18.5 40h97q0 -62 -47 -99.5t-119 -37.5t-118.5 37.5t-46.5 99.5h98zM-351 1117q103 0 175 -23t72 -67q0 -22 -20 -48h-142q17 22 17 34q0 17 -26.5 23.5t-75.5 6.5v74z" />
    <glyph glyph-name="uni03060303" 
d="M-324 900q0 -26 18 -40t49 -14q32 0 50.5 14t18.5 40h97q0 -62 -47 -99.5t-119 -37.5t-118.5 37.5t-46.5 99.5h98zM-428 1132q36 -26 78 -26q38 0 79 23q46 28 96 28q57 0 115 -38l-29 -90q-39 29 -80 29q-38 0 -80 -24q-48 -27 -97 -27q-55 0 -110 35z" />
    <glyph glyph-name="uni03020301" 
d="M-165 900l105 -120h-129l-64 82l-64 -82h-129l106 120h175zM-283 1100h169l-95 -120h-134z" />
    <glyph glyph-name="uni03020300" 
d="M-165 900l105 -120h-129l-64 82l-64 -82h-129l106 120h175zM-295 980l-100 120h169l65 -120h-134z" />
    <glyph glyph-name="uni03020309" 
d="M-165 900l105 -120h-129l-64 82l-64 -82h-129l106 120h175zM-378 1115q103 0 175 -23t72 -67q0 -22 -20 -48h-142q17 22 17 34q0 17 -26.5 23.5t-75.5 6.5v74z" />
    <glyph glyph-name="uni03020303" 
d="M-172 900l105 -120h-129l-64 82l-64 -82h-129l106 120h175zM-431 1130q36 -26 78 -26q38 0 79 23q46 28 96 28q57 0 115 -38l-29 -90q-39 29 -80 29q-38 0 -80 -24q-48 -27 -97 -27q-55 0 -110 35z" />
    </font>
</defs>
</svg>
